<?xml version="1.0" encoding="UTF-8"?>
<svg id="Capa_2" data-name="Capa 2" xmlns="http://www.w3.org/2000/svg" viewBox="0 0 1023.12 1023.12">
  <defs>
    <style>
      .cls-1, .cls-2 {
        fill: #fff;
      }

      .cls-2, .cls-3, .cls-4, .cls-5, .cls-6, .cls-7 {
        stroke-miterlimit: 10;
      }

      .cls-2, .cls-3, .cls-5, .cls-6, .cls-7 {
        stroke: #1e1e1c;
      }

      .cls-8 {
        fill: #2c4f66;
      }

      .cls-9 {
        fill: #9eb9c7;
      }

      .cls-10 {
        fill: #1e1e1c;
      }

      .cls-3 {
        fill: #868686;
      }

      .cls-4 {
        stroke: #2d4f66;
      }

      .cls-4, .cls-11, .cls-6 {
        fill: none;
      }

      .cls-5, .cls-12 {
        fill: #3d3d3b;
      }

      .cls-7 {
        fill: #c1c0bc;
      }

      .cls-13 {
        fill: #d9d9d9;
      }
    </style>
  </defs>
  <g id="Capa_1-2" data-name="Capa 1">
    <g>
      <circle class="cls-8" cx="511.56" cy="511.56" r="511.56"/>
      <circle class="cls-9" cx="516.02" cy="502.15" r="432.63"/>
      <path class="cls-3" d="M436.63,478.67v-67.3s16.12-39.55,70.32-39.2c54.2,.36,69.52,36.7,69.52,36.7l1.8,56.3s-28.96,27.53-71.32,27.13c-42.36-.4-70.32-13.63-70.32-13.63Z"/>
      <path class="cls-5" d="M588.87,809.28s90.27-26.61,114.03-46.09c23.76-19.48,70.18-75.22,70.18-75.22l56.2,68.09s-65.56,85.04-125.43,99.77c-59.86,14.73-105,22.33-105,22.33l-9.98-68.89Z"/>
      <path class="cls-3" d="M596.79,816.65s90.27-26.61,114.03-46.09,70.18-75.22,70.18-75.22l56.2,68.09s-65.56,85.04-125.43,99.77c-59.86,14.73-105,22.33-105,22.33l-9.98-68.89Z"/>
      <path class="cls-5" d="M230.01,695.35s69.56,63.39,98.53,73.6c28.97,10.21,100.71,21,100.71,21l-29.08,83.36s-106.72-11.96-150.35-55.51c-43.64-43.55-73.54-78.2-73.54-78.2l53.73-44.25Z"/>
      <path class="cls-3" d="M227.82,705.94s69.56,63.39,98.53,73.6c28.97,10.21,100.71,21,100.71,21l-29.08,83.36s-106.72-11.96-150.35-55.51c-43.64-43.55-73.54-78.2-73.54-78.2l53.73-44.25Z"/>
      <polygon class="cls-6" points="788.89 515.66 742.54 499.78 753.26 546.07 788.89 515.66"/>
      <path class="cls-6" d="M227.08,509l48.42-14.16s-7.73,10.5-9.09,16.72-2.37,23.86-2.37,23.86l-4.95-26.42h-32.01Z"/>
      <path class="cls-7" d="M344.46,700.29l-28.3,45.32s104.31,57.96,195.4,54.16c91.09-3.8,186.11-49.85,186.11-49.85l-29.13-46.12s-77.77,50.35-161.63,46.32c-83.86-4.03-162.46-49.83-162.46-49.83Z"/>
      <path class="cls-5" d="M238.79,567.89l-45.14,10.93s19,42.76,32.78,65.09c13.78,22.33,24.71,34.21,24.71,34.21l41.33-22.4s-23.76-28.95-32.31-43.66c-8.55-14.71-21.38-44.17-21.38-44.17Z"/>
      <path class="cls-3" d="M234.04,573.59l-45.14,10.93s19,42.76,32.78,65.09c13.78,22.33,24.71,34.21,24.71,34.21l41.33-22.4s-23.76-28.95-32.31-43.66c-8.55-14.71-21.38-44.17-21.38-44.17Z"/>
      <path class="cls-5" d="M726.77,658.34l30.22,35.26s29.48-36.34,43.13-58.75c13.65-22.41,19.27-37.54,19.27-37.54l-38.72-26.67s-15.02,34.3-24.24,48.6c-9.23,14.3-29.66,39.09-29.66,39.09Z"/>
      <path class="cls-3" d="M728.09,664.44l29.52,35.85s30.19-35.75,44.27-57.89c14.08-22.14,20-37.15,20-37.15l-38.19-27.42s-15.68,34-25.19,48.12c-9.51,14.11-30.41,38.51-30.41,38.51Z"/>
      <path class="cls-7" d="M263.9,539.42l-6.18-30.41h-34.68s-19.48,2.86-19,27.56c.48,24.71,33.26,17.1,33.26,17.1,0,0,57.49,193.37,263.68,196.22,206.2,2.85,271.76-169.14,271.76-169.14,0,0,13.3-44.66,14.25-51.79,.95-7.13,1.9-13.3,1.9-13.3l-29.93-4.1s-1.9,21.2-3.8,27.86l-1.9,6.65s6.65-57.49-36.11-56.54c-42.76,.95-42.28,53.21-42.28,53.21l-335.43-3.32s9.03-57.01-37.77-54.64c-46.8,2.38-37.77,54.64-37.77,54.64Z"/>
      <path class="cls-7" d="M242.52,683.85c.48,26.76,.95,53.53,1.43,80.29h48.53v-22.33h-24.98v-41.52h20.23v-16.48l-45.21,.03Z"/>
      <path class="cls-7" d="M772.39,692.08c-.48,26.76-.95,53.53-1.43,80.29h-48.53v-22.33h24.98v-41.52h-20.23v-16.48l45.21,.03Z"/>
      <path class="cls-3" d="M596.8,508.73c-.54,.26,22.9,22.75,35.07,21.62s37.87-21.62,37.87-21.62c0,0,20.44-28.73,2.1-37.12-18.33-8.39-63.86-9.15-63.86-9.15l-11.18,46.28Z"/>
      <path class="cls-3" d="M410.69,456.66s-55.64,1.99-58.81,12.61c-3.17,10.62,13.57,59.92,22.62,61.06,9.05,1.14,45.24-17.96,45.24-17.96l-9.05-55.72Z"/>
      <path class="cls-3" d="M420.21,539.42s-32.78-77.32-13.18-81.96c19.6-4.63,32.6,32.78,99.5,32.43,66.9-.36,78.31-37.5,100.04-32.82,21.74,4.67-10.34,84.9-10.34,84.9l-176.02-2.54Z"/>
      <polygon class="cls-6" points="727.18 692.04 710.01 670.52 698.62 680.99 727.18 708.52 727.18 692.04"/>
      <polygon class="cls-6" points="722.43 750.04 686.58 690.9 679.48 696.25 683.89 711.41 722.43 772.37 722.43 750.04"/>
      <polygon class="cls-11" points="686.58 690.9 722.43 750.04 747.41 750.04 698.62 680.99 686.58 690.9"/>
      <polygon class="cls-5" points="292.48 741.81 333.59 692.04 317.5 678.11 287.73 700.29 267.5 700.29 267.5 741.81 292.48 741.81"/>
      <line class="cls-6" x1="267.5" y1="741.81" x2="317.5" y2="678.11"/>
      <polygon class="cls-5" points="288.83 683.81 306.16 666.88 293.3 655.71 246.32 683.85 288.83 683.81"/>
      <path class="cls-3" d="M405.24,539.42l-71.65-44.58s9.1,23.13,7.75,31.03c-1.35,7.9-1.9,13.55-1.9,13.55h65.8Z"/>
      <path class="cls-3" d="M614.13,542.14l78.49-43.98s-14.24,20.83-15.57,27.71c-1.33,6.89-2.18,16.87-2.18,16.87l-60.74-.6Z"/>
      <circle class="cls-5" cx="512.5" cy="317.42" r="33.14"/>
      <circle class="cls-3" cx="512.84" cy="320.31" r="33.14"/>
      <path class="cls-5" d="M844.96,263.62l-39.2,37.77s29.22,32.78,39.2,54.16c9.98,21.38,21.38,48.46,21.38,48.46l49.17-13.54s-11.4-44.9-30.64-77.68c-19.24-32.78-39.91-49.17-39.91-49.17Z"/>
      <path class="cls-3" d="M848.08,270.96l-39.2,37.77s29.22,32.78,39.2,54.16c9.98,21.38,21.38,48.46,21.38,48.46l49.17-13.54s-11.4-44.9-30.64-77.68c-19.24-32.78-39.91-49.17-39.91-49.17Z"/>
      <path class="cls-5" d="M97.47,388.15l52.33,15s13.73-41.71,27.24-61.06c13.5-19.35,31.23-42.78,31.23-42.78l-36.36-35.77s-33.14,32.36-51.87,65.44c-18.73,33.08-22.56,59.18-22.56,59.18Z"/>
      <path class="cls-5" d="M252.35,308.96s22.01-13.24,34.52,0c12.51,13.24,56.7,61.7,65.25,56.72,8.55-4.99,42.38-84.81,40.43-91.22-1.95-6.41-43.35-94.07-52.22-92.65-8.88,1.43-47.93,76.25-60.83,84.81-12.9,8.55-20.03,12.12-20.03,12.12l-7.13,30.23Z"/>
      <path class="cls-3" d="M256.84,296.05s22.01-13.24,34.52,0c12.51,13.24,56.7,61.7,65.25,56.72,8.55-4.99,42.38-84.81,40.43-91.22-1.95-6.41-43.35-94.07-52.22-92.65-8.88,1.43-47.93,76.25-60.83,84.81-12.9,8.55-20.03,12.12-20.03,12.12l-7.13,30.23Z"/>
      <rect class="cls-5" x="445.7" y="127.5" width="144.84" height="82.67" rx="6.54" ry="6.54"/>
      <rect class="cls-3" x="445.7" y="135.67" width="144.84" height="70.39" rx="6.54" ry="6.54"/>
      <rect class="cls-3" x="491.48" y="202.33" width="49.12" height="75.54" rx="4.21" ry="4.21"/>
      <circle class="cls-2" cx="516.52" cy="225.91" r="9.44"/>
      <path class="cls-4" d="M176.48,420.4s12.26-2.14,17.18-7.84,10.37-14.97,10.37-14.97"/>
      <path class="cls-4" d="M212.83,361.25s20.67-39.91,20.67-49.89,13.07,1.43,9.03-16.39c-4.04-17.82-4.2-59.62-4.2-59.62,0,0,102.79-119.26,264.56-114.27,161.77,4.99,270.2,114.27,270.2,114.27,0,0,19.61,6.88,15.81,42.51-3.8,35.63,10.45,42.76,10.45,42.76,0,0,52.02,82.67,51.31,92.65-.71,9.98,5.7,19.24,22.09,22.09"/>
      <path class="cls-5" d="M757.3,278.15c-5.7,5.42-66.04,96.64-58.68,102.34,7.37,5.7,63.67,49.02,63.67,49.02l43.47-14.81,20.67-36.35s-41.33-60.58-41.33-67.7-22.09-37.92-27.79-32.5Z"/>
      <path class="cls-3" d="M751.92,271.6c-5.7,5.42-66.04,96.64-58.68,102.34,7.37,5.7,63.67,49.02,63.67,49.02l43.47-14.81,20.67-36.35s-41.33-60.58-41.33-67.7-22.09-37.92-27.79-32.5Z"/>
      <ellipse class="cls-2" cx="366.16" cy="246" rx="8.26" ry="6.76" transform="translate(-45.62 404.2) rotate(-54.91)"/>
      <ellipse class="cls-2" cx="379.08" cy="261" rx="8.26" ry="6.76" transform="translate(-52.4 421.15) rotate(-54.91)"/>
      <g>
        <ellipse class="cls-2" cx="348.94" cy="226.74" rx="8.26" ry="6.76" transform="translate(-37.18 381.92) rotate(-54.91)"/>
        <ellipse class="cls-2" cx="351.48" cy="228.52" rx="8.26" ry="6.76" transform="translate(-37.56 384.76) rotate(-54.91)"/>
      </g>
      <g>
        <ellipse class="cls-2" cx="332.72" cy="247.12" rx="8.26" ry="6.76" transform="translate(-60.75 377.32) rotate(-54.91)"/>
        <ellipse class="cls-2" cx="335.27" cy="248.91" rx="8.26" ry="6.76" transform="translate(-61.13 380.15) rotate(-54.91)"/>
      </g>
      <g>
        <ellipse class="cls-2" cx="350.99" cy="264.9" rx="8.26" ry="6.76" transform="translate(-67.53 399.81) rotate(-54.91)"/>
        <ellipse class="cls-2" cx="353.53" cy="266.68" rx="8.26" ry="6.76" transform="translate(-67.91 402.65) rotate(-54.91)"/>
      </g>
      <g>
        <ellipse class="cls-2" cx="370.83" cy="283.39" rx="8.26" ry="6.76" transform="translate(-74.23 423.92) rotate(-54.91)"/>
        <ellipse class="cls-2" cx="373.37" cy="285.18" rx="8.26" ry="6.76" transform="translate(-74.61 426.76) rotate(-54.91)"/>
      </g>
      <g>
        <ellipse class="cls-2" cx="356.23" cy="305.39" rx="8.26" ry="6.76" transform="translate(-98.43 421.32) rotate(-54.91)"/>
        <ellipse class="cls-2" cx="358.77" cy="307.17" rx="8.26" ry="6.76" transform="translate(-98.81 424.16) rotate(-54.91)"/>
      </g>
      <g>
        <ellipse class="cls-2" cx="338.35" cy="288.97" rx="8.26" ry="6.76" transform="translate(-92.6 399.71) rotate(-54.91)"/>
        <ellipse class="cls-2" cx="340.89" cy="290.75" rx="8.26" ry="6.76" transform="translate(-92.98 402.55) rotate(-54.91)"/>
      </g>
      <g>
        <ellipse class="cls-2" cx="316.91" cy="270.98" rx="8.26" ry="6.76" transform="translate(-87 374.52) rotate(-54.91)"/>
        <ellipse class="cls-2" cx="319.45" cy="272.76" rx="8.26" ry="6.76" transform="translate(-87.38 377.35) rotate(-54.91)"/>
      </g>
      <ellipse class="cls-2" cx="369.02" cy="248.01" rx="8.26" ry="6.76" transform="translate(-46.05 407.39) rotate(-54.91)"/>
      <ellipse class="cls-2" cx="382.03" cy="263.07" rx="8.26" ry="6.76" transform="translate(-52.84 424.44) rotate(-54.91)"/>
      <ellipse class="cls-2" cx="741.55" cy="341.61" rx="8.26" ry="6.76" transform="translate(74.93 813) rotate(-60)"/>
      <ellipse class="cls-2" cx="734.38" cy="373.55" rx="8.26" ry="6.76" transform="translate(43.68 822.77) rotate(-60)"/>
      <ellipse class="cls-2" cx="739.29" cy="339.89" rx="8.26" ry="6.76" transform="translate(75.29 810.19) rotate(-60)"/>
      <ellipse class="cls-2" cx="732.12" cy="371.83" rx="8.26" ry="6.76" transform="translate(44.05 819.96) rotate(-60)"/>
      <ellipse class="cls-2" cx="786.57" cy="344.68" rx="8.26" ry="6.76" transform="translate(52.37 790.15) rotate(-54.91)"/>
      <ellipse class="cls-2" cx="766.71" cy="369.01" rx="8.26" ry="6.76" transform="translate(63.78 848.5) rotate(-60)"/>
      <ellipse class="cls-2" cx="759.55" cy="400.95" rx="8.26" ry="6.76" transform="translate(32.54 858.27) rotate(-60)"/>
      <ellipse class="cls-2" cx="763.86" cy="366.95" rx="8.26" ry="6.76" transform="translate(64.15 845) rotate(-60)"/>
      <ellipse class="cls-2" cx="756.7" cy="398.89" rx="8.26" ry="6.76" transform="translate(32.9 854.76) rotate(-60)"/>
      <path class="cls-5" d="M640.99,324.91h-20.96c-6.84,0-12.39-5.55-12.39-12.39v-37.06c0-6.84,5.55-12.39,12.39-12.39h20.96c6.84,0,12.39,5.55,12.39,12.39v37.06c0,12.39-5.55,12.39-12.39,12.39Z"/>
      <path class="cls-3" d="M632.3,324.91h-20.96c-6.84,0-12.39-5.55-12.39-12.39v-37.06c0-6.84,5.55-12.39,12.39-12.39h20.96c6.84,0,12.39,5.55,12.39,12.39v37.06c0,12.39-5.55,12.39-12.39,12.39Z"/>
      <path class="cls-5" d="M700.01,342.5h-20.96c-6.84,0-12.39-3.98-12.39-8.89v-26.6c0-4.91,5.55-8.89,12.39-8.89h20.96c6.84,0,12.39,3.98,12.39,8.89v26.6c0,8.89-5.55,8.89-12.39,8.89Z"/>
      <path class="cls-3" d="M704.36,342.5h-20.96c-6.84,0-12.39-3.98-12.39-8.89v-26.6c0-4.91,5.55-8.89,12.39-8.89h20.96c6.84,0,12.39,3.98,12.39,8.89v26.6c0,8.89-5.55,8.89-12.39,8.89Z"/>
      <rect class="cls-5" x="679.48" y="272.17" width="62.07" height="15.68"/>
      <rect class="cls-3" x="681.86" y="272.17" width="62.07" height="15.68"/>
      <path class="cls-6" d="M348.94,394.03c21.46,.94,37.28-2.79,47.75-6.41,3.25-1.12,16.19-5.6,15.68-8.55-.42-2.47-10.05-2.84-16.39-2.85"/>
      <path class="cls-4" d="M851.37,435.37s-7.13,20.67,0,27.08,32.07,14.97,32.07,14.97"/>
      <path class="cls-4" d="M802.91,678.11s39.28-15.67,45.29-39.06c6.02-23.38,17.42-49.91,24.55-61.23,7.13-11.32,2.14-18.93,10.69-35.08,8.55-16.15,14.25-33.74,14.25-33.74v-31.59"/>
      <path class="cls-4" d="M267.7,261s-9.98,51.15-19,59.31c-9.03,8.16-3.8,37.62-13.78,51.87-9.98,14.25-3.33,67.94-3.33,67.94l6.73,22.33v20.9"/>
      <path class="cls-5" d="M281.48,539.42h40.38s6.18-34.21-20.19-33.73c-26.37,.48-20.19,33.73-20.19,33.73Z"/>
      <path class="cls-5" d="M693.24,542.74h40.38s6.18-34.21-20.19-33.73c-26.37,.48-20.19,33.73-20.19,33.73Z"/>
      <path class="cls-5" d="M267.7,559.37l54.79,1.9v94.55s-22.01-22.33-38.16-48.22c-16.15-25.89-16.63-48.22-16.63-48.22Z"/>
      <path class="cls-5" d="M747.41,564.53l-54.79,1.9v94.55s22.01-22.33,38.16-48.22c16.15-25.89,16.63-48.22,16.63-48.22Z"/>
      <path class="cls-5" d="M341.34,559.37l332.1,5.16v111.72s-89.8,66.04-176.98,54.64c-87.18-11.4-155.12-57.49-155.12-57.49v-114.03Z"/>
      <path class="cls-2" d="M348.94,667.7s101.46,58.91,162.62,55.11c61.16-3.8,142.4-36.11,149.53-47.04,7.13-10.93,3.8-19.95,3.8-19.95,0,0-93.6,24.64-155.36,22.3-61.76-2.34-160.59-25.15-160.59-25.15v14.73Z"/>
      <path class="cls-7" d="M348.56,658.56s101.46,50.72,162.62,47.45c61.16-3.27,142.4-31.09,149.53-40.5,7.13-9.41,3.8-17.18,3.8-17.18,0,0-93.6,21.21-155.36,19.2-61.76-2.02-160.59-21.65-160.59-21.65v12.68Z"/>
      <path class="cls-2" d="M348.56,649.64s101.46,42.36,162.62,39.62c61.16-2.73,142.4-25.96,149.53-33.82,7.13-7.86,3.8-14.35,3.8-14.35,0,0-93.6,17.71-155.36,16.03-61.76-1.68-160.59-18.08-160.59-18.08v10.59Z"/>
      <path class="cls-7" d="M348.56,638.39s101.46,42.36,162.62,39.62c61.16-2.73,142.4-25.96,149.53-33.82,7.13-7.86,3.8-14.35,3.8-14.35,0,0-93.6,17.71-155.36,16.03-61.76-1.68-160.59-18.08-160.59-18.08v10.59Z"/>
      <path class="cls-2" d="M348.56,627.13s101.46,42.36,162.62,39.62c61.16-2.73,142.4-25.96,149.53-33.82,7.13-7.86,3.8-14.35,3.8-14.35,0,0-93.6,17.71-155.36,16.03-61.76-1.68-160.59-18.08-160.59-18.08v10.59Z"/>
      <path class="cls-7" d="M348.56,615.87s101.46,42.36,162.62,39.62c61.16-2.73,142.4-25.96,149.53-33.82s3.8-14.35,3.8-14.35c0,0-93.6,17.71-155.36,16.03-61.76-1.68-160.59-18.08-160.59-18.08v10.59Z"/>
      <path class="cls-2" d="M348.56,604.61s101.46,42.36,162.62,39.62c61.16-2.73,142.4-25.96,149.53-33.82,7.13-7.86,3.8-14.35,3.8-14.35,0,0-93.6,17.71-155.36,16.03-61.76-1.68-160.59-18.08-160.59-18.08v10.59Z"/>
      <path class="cls-7" d="M348.56,591.01s101.46,44.85,162.62,41.96c61.16-2.89,142.4-27.49,149.53-35.81,7.13-8.32,3.8-15.19,3.8-15.19,0,0-93.6,18.76-155.36,16.97s-160.59-19.14-160.59-19.14v11.21Z"/>
      <path class="cls-5" d="M348.56,579.8l10.84-20.15,296.46,4.88,8.64,17.44s-103.2,19.69-148.48,17.09-167.47-19.26-167.47-19.26Z"/>
      <path class="cls-3" d="M106.33,388.15l52.33,15s13.73-41.71,27.24-61.06c13.5-19.35,31.23-42.78,31.23-42.78l-36.36-35.77s-33.14,32.36-51.87,65.44c-18.73,33.08-22.56,59.18-22.56,59.18Z"/>
      <path class="cls-4" d="M689.53,181.79s-7.06,15.55-28.44,20.54c-21.38,4.99-33.37,15.1-30.58,23.59s22.87,0,22.87,0c0,0,6.71,22.02,11.13,27.72s-4.68,14.25-4.68,14.25h4.68s35.8-30.64,63.59-34.92"/>
      <path class="cls-4" d="M326.98,472.43s22.77-37.37,24.5-42.91c1.73-5.55,0-25.5,0-25.5"/>
      <polygon class="cls-5" points="773.08 687.98 724.21 655.71 710.01 670.52 727.18 692.04 772.39 692.08 773.08 687.98"/>
      <path class="cls-13" d="M623.85,872.53c29.99-6.02,60.17-12.23,88.15-24.98,24.09-10.98,46.28-26.11,65.37-44.46,10.68-10.26,20.37-21.54,28.91-33.64,.46-.66-.62-1.28-1.08-.63-15.26,21.61-34.26,40.54-55.86,55.81-10.73,7.59-22.1,14.28-33.95,19.96-13.09,6.27-26.77,11.16-40.74,15.1-16.83,4.74-33.99,8.19-51.13,11.63-.79,.16-.45,1.36,.33,1.21h0Z"/>
      <path class="cls-13" d="M198.35,758.77c9.2,9.92,18.4,19.84,27.61,29.76,8.08,8.71,16.06,17.58,24.97,25.45,8.8,7.78,18.49,14.26,29.44,18.61s23.5,7.11,35.2,10.84c13.56,4.33,26.55,10.3,38.7,17.7,.69,.42,1.32-.66,.63-1.08-10.54-6.42-21.71-11.77-33.34-15.91s-23.84-6.75-35.55-10.79c-5.8-2-11.46-4.41-16.78-7.48s-9.83-6.37-14.33-10.12c-9.05-7.54-17.04-16.22-25.03-24.84-10.21-11.01-20.42-22.02-30.64-33.03-.55-.59-1.43,.29-.88,.88h0Z"/>
      <path class="cls-13" d="M340.06,188.42c-10,18.15-20.08,36.45-33.09,52.67-3.65,4.56-7.54,8.93-11.66,13.07-.57,.57,.31,1.45,.88,.88,14.72-14.74,25.99-32.4,36.26-50.41,2.95-5.16,5.82-10.37,8.69-15.58,.39-.7-.69-1.34-1.08-.63h0Z"/>
      <path class="cls-13" d="M802.84,350.73c1.78,8.83,9.08,14.98,13.07,22.74,.37,.72,1.45,.08,1.08-.63-3.94-7.65-11.19-13.74-12.95-22.44-.16-.79-1.36-.45-1.21,.33h0Z"/>
      <path class="cls-13" d="M864.62,301.02c4.49,1.49,6.74,6.15,8.59,10.16,2.45,5.3,4.89,10.61,7.28,15.93,4.77,10.6,9.34,21.28,13.32,32.2,2.27,6.22,4.34,12.51,6.15,18.87,.22,.77,1.43,.44,1.21-.33-6.6-23.22-16.69-45.23-26.78-67.09-2.04-4.42-4.5-9.3-9.44-10.94-.77-.25-1.09,.95-.33,1.21h0Z"/>
      <path class="cls-13" d="M633.29,282.86c.56,9.82,.26,19.67-.9,29.45-.09,.8,1.16,.79,1.25,0,1.15-9.77,1.45-19.62,.9-29.45-.05-.8-1.3-.81-1.25,0h0Z"/>
      <path class="cls-13" d="M710.29,310.03c-2.8,5.78-3.71,12.26-2.65,18.59,.13,.79,1.34,.46,1.21-.33-1.01-5.97-.12-12.17,2.52-17.62,.35-.72-.73-1.36-1.08-.63h0Z"/>
      <path class="cls-13" d="M741.06,280.01c0-.95,0-1.9,0-2.85,0-.33-.29-.64-.62-.62s-.63,.27-.62,.62c0,.95,0,1.9,0,2.85,0,.33,.29,.64,.62,.62s.63-.27,.62-.62h0Z"/>
      <path class="cls-13" d="M642.58,533.75c7.91-6.36,16.83-11.39,26.36-14.87,.75-.27,.43-1.48-.33-1.21-9.75,3.56-18.83,8.69-26.91,15.19-.63,.5,.26,1.38,.88,.88h0Z"/>
      <path class="cls-13" d="M344.95,510.31c.7,.96,1.62,1.44,2.71,1.84,1.54,.57,2.95,1.21,4.34,2.11,2.81,1.83,5.52,3.81,8.38,5.58,5.88,3.65,12.04,6.86,18.39,9.61,.73,.32,1.37-.76,.63-1.08-6.08-2.63-11.97-5.68-17.61-9.13-2.76-1.69-5.44-3.51-8.11-5.35-1.27-.88-2.57-1.72-4-2.33-1.23-.52-2.82-.75-3.65-1.89-.47-.64-1.55-.02-1.08,.63h0Z"/>
      <path class="cls-13" d="M308.95,490.59c2.83,1.29,5.64,2.64,8.4,4.06,1.21,.62,2.46,1.21,3.58,1.98,1.4,.97,2.25,2.23,2.83,3.82,2.07,5.71,3.39,11.82,4.55,17.77,.15,.79,1.36,.45,1.21-.33-.63-3.26-1.36-6.51-2.2-9.72-.78-2.99-1.48-6.15-2.71-8.99-1.14-2.62-3.33-3.9-5.77-5.17-3.04-1.58-6.13-3.08-9.25-4.5-.73-.33-1.36,.75-.63,1.08h0Z"/>
      <path class="cls-13" d="M728.14,497.65c2.17-1.77,4.5,1,5.63,2.61,1.39,1.97,2.77,3.96,3.94,6.06,2.54,4.54,3.27,9.47,3.81,14.57,.08,.79,1.34,.8,1.25,0-.32-2.98-.63-5.98-1.4-8.89s-2.08-5.6-3.68-8.15c-1.84-2.94-5.98-10.73-10.45-7.09-.62,.51,.27,1.39,.88,.88h0Z"/>
      <path class="cls-13" d="M810.21,613.37c-5.34,16.41-16.15,30.17-26.94,43.36-3.35,4.1-6.72,8.19-10.08,12.29-.51,.62,.37,1.51,.88,.88,11.23-13.69,23.42-27.18,31.7-42.95,2.24-4.26,4.14-8.68,5.63-13.25,.25-.77-.96-1.1-1.21-.33h0Z"/>
      <path class="cls-13" d="M211.88,618.83c1.73,7.7,5.86,14.48,10.42,20.82,4.89,6.8,10.04,13.35,14.53,20.44,2.71,4.28,5.25,8.68,7.62,13.16,.38,.71,1.46,.08,1.08-.63-4.08-7.73-8.67-15.18-13.77-22.28-4.6-6.42-9.72-12.51-13.66-19.38-2.24-3.91-4.02-8.05-5.02-12.46-.18-.78-1.38-.45-1.21,.33h0Z"/>
      <path class="cls-13" d="M763.76,714.28c1.13,16.28,1.54,32.6,1.22,48.92-.02,.8,1.23,.8,1.25,0,.32-16.31-.09-32.64-1.22-48.92-.06-.8-1.31-.8-1.25,0h0Z"/>
      <path class="cls-13" d="M246.56,706.65c-.03,15.85,.5,31.69,1.58,47.51,.05,.8,1.3,.8,1.25,0-1.08-15.81-1.61-31.66-1.58-47.51,0-.8-1.25-.81-1.25,0h0Z"/>
      <path class="cls-13" d="M666.3,752.32c-9.96,6.04-21.03,10.1-32.49,12.13-6.05,1.07-12.22,1.37-18.24,2.62-5.89,1.23-11.46,3.52-17.14,5.45-11.79,4.01-23.98,6.65-36.18,9.08s-25.02,5.09-37.68,6.63c-14.33,1.75-28.72,1.35-43.12,1.85-.8,.03-.81,1.28,0,1.25,13-.45,26.02-.06,38.97-1.38,12.59-1.28,25.02-3.77,37.43-6.21s24.59-4.89,36.55-8.6c5.92-1.84,11.66-4.23,17.62-5.91,6.07-1.71,12.35-2.14,18.57-3.02,12.81-1.81,25.25-6.11,36.33-12.82,.69-.42,.06-1.5-.63-1.08h0Z"/>
      <path class="cls-13" d="M628.81,471.33c7.66,.43,15.33,.75,22.98,1.3,3.51,.25,6.97,.82,10.15,2.38,2.86,1.4,5.33,3.41,7.34,5.88,.51,.62,1.39-.27,.88-.88-4.3-5.26-10.33-7.88-17-8.51-8.08-.77-16.26-.96-24.36-1.42-.8-.05-.8,1.21,0,1.25h0Z"/>
      <path class="cls-13" d="M543.36,389c3.6,2.76,7.21,5.5,10.79,8.29,3.19,2.48,6.36,5.09,8.88,8.28,4.95,6.26,6.95,14.63,5.5,22.46-.15,.79,1.06,1.12,1.21,.33,1.46-7.94-.37-16.39-5.21-22.89-2.55-3.42-5.81-6.2-9.15-8.81-3.77-2.95-7.59-5.84-11.38-8.75-.64-.49-1.26,.6-.63,1.08h0Z"/>
      <path class="cls-13" d="M533.6,229.17c0,7.34,.01,14.68,.02,22.02v10.89c.01,2.73,.79,8.74-3.19,9.16-.79,.08-.8,1.34,0,1.25,3.02-.32,4.24-3.19,4.42-5.9,.27-4.11,.03-8.31,.03-12.43,0-8.33-.01-16.66-.02-24.99,0-.8-1.25-.81-1.25,0h0Z"/>
      <path class="cls-13" d="M568.65,143.18c2.7,1.64,5.33,3.42,7.78,5.42,1.18,.96,2.3,2.02,2.93,3.42,.66,1.49,.75,3.18,.89,4.79,.57,6.69,.55,13.41-.02,20.1-.07,.8,1.18,.8,1.25,0,.62-7.26,.68-14.66-.15-21.9-.35-3.03-1.5-5.2-3.85-7.16-2.57-2.13-5.35-4.02-8.2-5.75-.69-.42-1.32,.66-.63,1.08h0Z"/>
      <g>
        <ellipse class="cls-1" cx="511.04" cy="392.14" rx="51.29" ry="50.31"/>
        <path class="cls-2" d="M462.91,438.49s17.5,8.43,26.98,8.43,17.72-3.72,24.19-4.21l8.82,4.21s30.91-8.58,40.16-8.99c9.25-.42,52.78,23.77,56.31,27.27,3.53,3.49,44.7,29.82,32.35,56.06-12.35,26.25-4.64,36.22-24.08,34.17-19.44-2.05,11.35,2.66,15.07,13.84,3.72,11.18,13.72,38.56,9.02,51.63-4.71,13.07,5.61,17.43,2.81,36.72-2.81,19.29-4.44,27.13,.49,38.5,4.94,11.37,5.76,22.52-6.12,39.88s-52.46,29.65-71.29,14.98c-18.82-14.67-21.76-28.79-24.7-42.31-2.94-13.53-8.23-7.65-6.47-20.88,1.76-13.23,4.95-33.84,3.65-40.3-1.3-6.46-2.48-19.77-2.48-19.77,0,0-35.36-1.54-45.03,0-9.67,1.54-6.28,32.11-12.68,49.47-6.4,17.36,18.75,41.45,0,58.81-18.75,17.37-32.28,21.5-32.28,21.5,0,0-71.92-12.99-71.55-21.5,.38-8.51,0-30.18,0-30.18,0,0-.97-14.54,0-23.2,.97-8.66,8.14-22.64,8.14-22.64,0,0-6.35-21.36,0-31.33,6.35-9.97-5.17-20.72,0-30.93,5.17-10.21,3.41-34.24,32.82-38.11,29.41-3.87-38.44,15.29-54.51-9.88-16.07-25.17,0-56.33,0-56.33l1.58-7.51,20.12-7.64s20.65-29.54,35.85-33.97c15.2-4.43,32.85-5.79,32.85-5.79Z"/>
        <path class="cls-2" d="M462.91,438.49v-24.89s26.94,11.18,48.99,10c22.05-1.18,41.46-16.47,47.34-12.35,5.88,4.12-2.94,17.65-2.94,17.65l4.96,14.7s-34.42,5.55-55.55,4.12c-21.12-1.44-42.81-9.22-42.81-9.22Z"/>
        <path class="cls-6" d="M462.91,413.6s-19.15-72.35,49.18-71.76c68.33,.59,47.15,69.41,47.15,69.41,0,0-17.63,11.18-47.34,12.35-29.71,1.18-48.99-10-48.99-10Z"/>
        <g>
          <path class="cls-12" d="M479.89,429.33c.69-1.46,2.06-2.5,3.56-3.09s3.12-.78,4.73-.88c2.19-.15,4.51-.14,6.42,.95,1.75,1,2.93,2.81,3.46,4.76,.53,1.94,.45,4,.12,5.99-.35,2.08-1.09,4.28-2.85,5.44-1.06,.7-2.36,.92-3.61,1.1-2.22,.32-4.58,.54-6.63-.39-1.43-.65-2.57-1.82-3.51-3.08-2.07-2.81-3.28-6.41-2.63-9.84,.08-.4,.18-.8,.42-1.13,.53-.73,1.55-.88,2.28-1.42"/>
          <path class="cls-10" d="M480.32,429.58c1.85-3.64,6.95-3.99,10.54-3.77,1.97,.12,3.81,.77,5.12,2.3s1.88,3.58,1.94,5.57c.06,1.88-.19,3.89-.86,5.66-.75,1.98-2.16,3.12-4.23,3.55s-4.21,.71-6.2,.29-3.62-1.88-4.81-3.57c-1.29-1.83-2.23-3.96-2.48-6.19-.12-1.04-.11-2.13,.13-3.16,.3-1.33,1.45-1.44,2.44-2.1,.53-.36,.03-1.22-.5-.86-.78,.52-1.78,.74-2.38,1.5-.63,.8-.71,2.06-.74,3.05-.08,2.31,.59,4.61,1.67,6.64,1.01,1.89,2.44,3.78,4.32,4.86,2.17,1.24,4.71,1.11,7.1,.79,2.11-.28,4.2-.71,5.56-2.49,1.23-1.6,1.66-3.68,1.89-5.65,.5-4.43-1-9.61-5.82-10.86-2.44-.63-5.26-.41-7.71,.06s-4.7,1.64-5.84,3.89c-.29,.57,.57,1.08,.86,.5h0Z"/>
        </g>
        <path class="cls-10" d="M390.25,515.72c.18-1.38,2.4-2.34,3.49-2.9,1.32-.68,2.71-1.21,4.12-1.67,2.68-.87,5.46-1.59,8.24-2.06s5.96-.63,8.84,.14c2.68,.72,4.96,2.41,7.66,3.09,.62,.16,.89-.81,.27-.96-3.13-.79-5.73-2.81-8.96-3.38s-6.32-.23-9.42,.4-6.37,1.48-9.36,2.71c-1.99,.82-5.56,2.15-5.88,4.63-.08,.64,.92,.63,1,0h0Z"/>
        <path class="cls-10" d="M402.89,519.32c.62-.74,1.51-.95,2.4-1.22,1.03-.31,2.07-.61,3.1-.92,2.04-.61,4.08-1.21,6.13-1.82,3.8-1.12,7.66-2.19,11.63-2.42s7.89,.61,11.61,2.42c3.35,1.63,6.58,3.09,10.27,3.75,2.08,.37,4.2,.57,6.31,.67s4.67-.18,6.72,.74c.58,.26,1.09-.6,.5-.86-1.58-.71-3.22-.76-4.93-.8-2.2-.05-4.41-.16-6.6-.45s-4.18-.71-6.18-1.4-3.89-1.69-5.8-2.62c-3.58-1.73-7.24-2.63-11.24-2.49s-8.02,1.16-11.9,2.29c-2.35,.68-4.69,1.39-7.04,2.08-1.8,.53-4.42,.8-5.7,2.32-.41,.49,.29,1.2,.71,.71h0Z"/>
        <path class="cls-10" d="M418.59,544.66c5.75-3.99,12.15-6.86,18.21-10.3,2.93-1.66,5.77-3.47,8.39-5.6,2.76-2.24,5.12-5.64,8.63-6.7,1.82-.55,3.78-.68,5.65-.93,1.99-.27,4.05-.74,6.06-.7,3.06,.07,5.51,2.12,7.78,3.95,2.07,1.68,4.16,3.31,6.78,4.01,.27,.07,.61,.1,.85,.24,.59,.33,.76,.99,.11,1.39-.96,.59-2.16,.92-3.2,1.35-1.84,.75-3.69,1.48-5.53,2.25-3.46,1.45-6.22,3.48-8.15,6.74-2.17,3.66-2.97,7.9-3.75,12.03-.12,.63,.85,.9,.96,.27,.76-4.04,1.53-8.2,3.65-11.79,.98-1.66,2.25-3.17,3.82-4.31,1.7-1.24,3.72-1.97,5.65-2.75,2.1-.85,4.24-1.66,6.32-2.57,.93-.4,2.08-1.09,1.8-2.28s-1.63-1.34-2.57-1.6c-1.48-.42-2.8-1.22-4.03-2.11-2.34-1.7-4.43-3.86-7.12-5.04-3.24-1.41-6.81-.43-10.17,.03-2,.27-4.11,.4-6,1.16-1.54,.62-2.83,1.68-4.03,2.8-2.83,2.65-5.63,5.12-8.91,7.21-7.04,4.48-14.85,7.63-21.71,12.4-.52,.36-.03,1.23,.5,.86h0Z"/>
        <path class="cls-10" d="M481.08,530.38c8.67,.05,17.33,.09,26,.14,2.13,.01,4.1,0,5.04,2.25,.45,1.08,.74,2.45-.6,2.98-.99,.4-2.06,.62-3.11,.83-3.68,.73-7.79,.47-11.33,1.79-2.27,.85-4.62,3.51-1.87,5.35,1.47,.98,3.2,1.62,4.85,2.23,1.17,.43,2.63,1.1,3.89,.6,1.16-.46,1.44-1.71,1.12-2.82-.18-.64-.57-1.19-.84-1.8-.48-1.09-.31-2.21,.46-3.13,1.34-1.59,3.5-1.62,5.22-.67s2.92,2.81,3.67,4.67c.39,.99,.72,2.02,1.01,3.05,.16,.59,.41,1.35,.21,1.95-.22,.68-.79,1.2-1.27,1.7-1.51,1.56-3.08,3.55-4.91,4.75s-5.09,.66-7.23,.48c-2.52-.21-5.01-.62-7.47-1.19-.63-.14-.89,.82-.27,.96,2.16,.5,4.34,.87,6.54,1.11s4.57,.48,6.79,.24c1.78-.19,2.9-1.31,4.12-2.5,.78-.76,1.56-1.53,2.32-2.31,.7-.71,1.56-1.42,2.06-2.29,.85-1.49,.06-3.33-.43-4.8-.57-1.75-1.29-3.5-2.49-4.91-1.93-2.26-5.41-3.59-7.96-1.53-1.08,.87-1.82,2.25-1.63,3.67,.1,.71,.43,1.29,.74,1.92,.34,.7,.64,1.24,.25,1.99s-1.05,.69-1.83,.51c-1.93-.45-3.95-1.35-5.68-2.31-.6-.33-1.4-.8-1.53-1.56-.11-.63,.6-1.3,1.05-1.64,.91-.69,2.02-1.01,3.13-1.22,4.16-.82,8.56-.64,12.59-2.11,1.32-.48,2.09-1.39,1.84-2.85s-.99-3.09-2.34-3.8c-1.77-.93-4.17-.59-6.09-.6l-7.92-.04c-5.36-.03-10.73-.06-16.09-.09-.64,0-.64,1,0,1h0Z"/>
        <path class="cls-10" d="M511.6,553.37c1.73,1.37,2.29,5.25,.65,6.86-1.05,1.04-2.67,1.23-4.07,1.37s-2.76,.27-4.14,.4c-5.6,.54-11.07,1.24-16.44-.89-.6-.24-.86,.73-.27,.96,6.59,2.62,13.77,1.23,20.61,.55,2.35-.23,5.35-.76,6.05-3.45,.54-2.1,.07-5.11-1.7-6.51-.5-.4-1.21,.31-.71,.71h0Z"/>
        <path class="cls-10" d="M509.12,563.02c-.16,1.02-.37,2.04-.65,3.04s-.57,2.83-1.74,3.16c-.88,.25-2.08,.12-3,.17-1.14,.07-2.29,.13-3.43,.2-2.14,.12-4.29,.25-6.43,.37-1.98,.12-4.29,.54-6.05-.62-.54-.36-1.04,.51-.5,.86,1.82,1.2,4.06,.9,6.12,.78,2.72-.16,5.43-.32,8.15-.47,1.29-.07,2.57-.15,3.86-.22,.83-.05,1.91,.09,2.57-.52s.93-1.87,1.19-2.7c.39-1.24,.67-2.5,.87-3.78,.1-.63-.87-.9-.96-.27h0Z"/>
        <path class="cls-10" d="M505.92,570.63c-3.83,4.14-9.87,5.97-15.33,4.42s-9.2-5.43-13.43-8.59c-4.84-3.61-10.28-5.49-16.09-6.9-6.18-1.5-12.45-3.08-18.84-3.32-3.61-.13-7.22,.52-10.82,.07s-7.11-1.57-10.78-1.51c-.64,.01-.64,1.01,0,1,3.47-.06,6.79,.94,10.19,1.43,3.18,.45,6.3,.02,9.48-.02,6.87-.08,13.64,1.65,20.27,3.26,3.18,.77,6.37,1.61,9.38,2.91,2.64,1.14,5.03,2.68,7.31,4.42,4.26,3.25,8.41,7.18,13.79,8.41s11.67-.66,15.57-4.87c.44-.47-.27-1.18-.71-.71h0Z"/>
        <path class="cls-10" d="M421.09,554.49c-2.81,0-5.63,0-8.44-.01-1.36,0-2.75-.1-4.1,.03-1.16,.11-2.06,.65-2.97,1.34-.51,.38-.01,1.25,.5,.86,1.05-.79,1.95-1.23,3.29-1.24s2.59,0,3.89,0c2.61,0,5.22,0,7.83,.01,.64,0,.64-1,0-1h0Z"/>
        <path class="cls-10" d="M414.04,539.38c-6.69,1.99-13.26,4.35-19.7,7.06-1.71,.72-3.44,1.46-5.3,1.67-1.71,.2-3.46,.05-5.17-.1-3.78-.32-7.54-.88-11.3-1.43-.63-.09-.9,.87-.27,.96,3.61,.53,7.22,1.07,10.85,1.4s6.89,.32,10.33-1.08c6.85-2.79,13.72-5.41,20.81-7.53,.62-.18,.35-1.15-.27-.96h0Z"/>
        <path class="cls-10" d="M369.91,506.91c.03,3.87-1.85,7.57-1.28,11.47,.51,3.51,3.44,5.34,5.18,8.18,.34,.55,1.2,.05,.86-.5-1.73-2.83-4.76-4.69-5.11-8.24s1.37-7.22,1.34-10.91c0-.64-1-.64-1,0h0Z"/>
        <path class="cls-10" d="M374.58,493.15c.77,2.26,2.65,3.84,4.42,5.34s3.81,2.97,6.25,3.08c.64,.03,.64-.97,0-1-2.21-.1-4.05-1.52-5.67-2.9s-3.34-2.77-4.04-4.79c-.21-.61-1.17-.35-.96,.27h0Z"/>
        <path class="cls-10" d="M430.8,459.39c-.33,4.07-.6,8.45,1.58,12.1,1.18,1.97,2.7,3.58,3.38,5.83s.71,4.42,.52,6.65c-.21,2.45-.75,4.86-1.13,7.28-.35,2.24-.51,4.49-.63,6.75-.24,4.66-.53,9.49-3.26,13.46-.37,.53,.5,1.03,.86,.5,2.54-3.69,3.07-8.17,3.32-12.53,.14-2.49,.23-4.98,.6-7.45s.86-4.7,1.14-7.08c.52-4.43-.08-8.45-2.71-12.11-1.48-2.06-2.5-4.09-2.79-6.65-.25-2.24-.07-4.51,.11-6.75,.05-.64-.95-.64-1,0h0Z"/>
        <path class="cls-10" d="M469.73,456.05c.04,2.02,2.2,3.23,3.89,3.79,1.95,.64,4.17,.37,5.99,1.4,.56,.32,1.07-.55,.5-.86-1.63-.92-3.48-.88-5.26-1.24-.94-.19-1.83-.54-2.65-1.05-.72-.45-1.46-1.12-1.48-2.03-.01-.64-1.01-.64-1,0h0Z"/>
        <path class="cls-10" d="M478.32,454.52c1.76,1.63,4.18,2.29,6.23,3.46s4.11,2.76,5.83,4.54c.45,.46,1.15-.24,.71-.71-1.68-1.74-3.59-3.26-5.68-4.5-1.02-.6-2.09-1.11-3.17-1.6-1.14-.51-2.29-1.05-3.22-1.91-.47-.44-1.18,.27-.71,.71h0Z"/>
        <path class="cls-10" d="M493.32,465.39c-.91,2.69-2.42,5.13-4.43,7.14-1,1-2.12,1.88-3.32,2.62-.98,.6-2.03,1.17-2.57,2.24-1.1,2.16,0,4.81,1.95,6.01,1.29,.79,2.77,1.35,4.14,1.99,1.59,.74,3.18,1.48,4.78,2.23,.58,.27,1.09-.59,.5-.86-2.71-1.26-5.45-2.47-8.13-3.79-1.31-.64-2.34-1.54-2.6-3.04-.31-1.84,.71-2.86,2.16-3.74,3.99-2.43,6.98-6.09,8.49-10.52,.21-.61-.76-.87-.96-.27h0Z"/>
        <g>
          <path class="cls-1" d="M485.26,430.95c1.39,.84,2.56,2.05,3.35,3.47,.13,.24,.26,.5,.25,.77,0,.19-.08,.38-.16,.56-.38,.81-1.02,1.52-1.84,1.85s-1.84,.25-2.52-.33c-.94-.8-.98-2.21-.96-3.44,.01-.52,.02-1.04,.03-1.56,0-.21,0-.42,.09-.61,.22-.53,.9-.66,1.48-.67,1.12-.01,2.42,.33,2.85,1.36"/>
          <path class="cls-10" d="M485.13,431.16c1.23,.75,2.28,1.78,3.04,3.01,.2,.32,.48,.7,.42,1.1-.05,.36-.31,.74-.52,1.03-.39,.53-.93,.97-1.57,1.15s-1.4,.1-1.94-.32c-.51-.4-.75-1.01-.86-1.63-.12-.66-.09-1.34-.08-2,0-.41,.01-.82,.03-1.24,.01-.37,.06-.68,.42-.86,.58-.29,1.4-.2,2-.06,.65,.16,1.25,.49,1.52,1.12,.13,.29,.56,.04,.43-.25-.57-1.32-2.42-1.68-3.7-1.42-.3,.06-.61,.18-.83,.41-.29,.29-.34,.67-.35,1.06-.03,.93-.09,1.89,0,2.82,.07,.72,.23,1.44,.68,2.02,.49,.63,1.26,.95,2.05,.94s1.49-.34,2.06-.85,1.22-1.35,1.16-2.12c-.03-.45-.32-.88-.56-1.24-.26-.41-.56-.81-.88-1.18-.66-.75-1.43-1.4-2.28-1.92-.28-.17-.53,.26-.25,.43h0Z"/>
        </g>
        <path class="cls-10" d="M462.13,400.95c6.33,2.58,12.91,4.18,19.69,4.99,3.5,.42,7.02,.74,10.46,1.56,3.11,.74,6.14,1.69,9.34,2.02,6.63,.69,13.54,.17,20.15-.54s13.03-1.86,19.41-3.48c7.2-1.83,14.23-4.25,21.05-7.19l-.73-.3c1.23,3.9-1.25,7.7-4.08,10.21s-6.44,4.37-10.07,5.68c-7.76,2.8-16.18,4.15-24.33,5.21-8.59,1.12-17.25,1.62-25.91,1.62-4.25,0-8.55-.01-12.78-.42s-8.26-1.67-12.24-3.26c-1.86-.74-3.82-1.59-5.17-3.12-1.26-1.43-1.63-3.33-1.83-5.17-.33-2.99-.25-6.41-2.74-8.55-.49-.42-1.2,.29-.71,.71,2.54,2.19,2.13,5.95,2.59,8.96,.52,3.39,2.31,5.68,5.39,7.18,3.68,1.8,7.78,3.23,11.82,3.88,4.37,.71,8.85,.74,13.27,.78,9.3,.09,18.61-.37,27.84-1.55,8.46-1.08,17.23-2.44,25.27-5.38,3.97-1.45,7.84-3.45,10.91-6.41,2.8-2.71,4.98-6.68,3.74-10.63-.11-.34-.43-.43-.73-.3-12.2,5.27-25.15,8.79-38.35,10.36-6.41,.76-12.95,1.2-19.41,.9-3.4-.16-6.59-.91-9.86-1.77-3.1-.81-6.24-1.29-9.43-1.66-7.69-.9-15.08-2.34-22.28-5.28-.6-.24-.85,.72-.27,.96h0Z"/>
        <path class="cls-10" d="M483.76,404c.07-9.01,1.09-19.59,9.22-25.16,3.46-2.37,7.61-3.46,11.73-3.96,4.44-.54,9.2-.78,13.52,.53s8.21,3.62,11.21,6.75c1.5,1.57,2.74,3.41,3.44,5.48,.75,2.22,.81,4.63,.92,6.96,.21,4.48-.12,9.87-4.23,12.63-2.09,1.4-4.71,1.39-7.13,1.42s-4.72,.04-7.08,0c-10.96-.15-21.97-1.15-32.5-4.33-.31-.09-.44,.39-.13,.48,10.19,3.08,20.84,4.13,31.45,4.33,2.75,.05,5.51,.05,8.26,.02,2.21-.03,4.54-.03,6.58-1.02,3.82-1.87,5.18-6.35,5.33-10.3,.17-4.49,.02-9.55-2.49-13.43-2.35-3.63-6.1-6.27-9.96-8.09-4.57-2.16-9.24-2.5-14.22-2.19-4.2,.26-8.45,.95-12.28,2.77-4.44,2.11-7.66,5.8-9.56,10.3-2.23,5.3-2.53,11.13-2.57,16.81,0,.32,.5,.32,.5,0h0Z"/>
        <path class="cls-10" d="M479.18,402.79c.48-5.55,.93-11.37,2.47-16.74s5.11-8.89,9.36-11.96,8.89-5.2,14-5.72c5.71-.58,11.39,.85,16.8,2.56,2.56,.81,5.32,1.51,7.67,2.82s4.16,3.5,5.55,5.78c2.8,4.6,3.94,9.97,4.46,15.27,.13,1.34,.22,2.68,.3,4.02,.04,.63,.07,1.26,.1,1.9,.03,.57,.3,1.75,.09,2.27-.52,1.29-2.72,1.33-3.88,1.58-1.43,.31-2.86,.6-4.29,.88-5.7,1.11-11.47,1.97-17.27,2.36-12.48,.84-24.99-.81-36.79-4.98-.3-.11-.43,.38-.13,.48,11.37,4.02,23.43,5.73,35.47,5.09,6.01-.32,11.99-1.16,17.9-2.28,1.44-.27,2.87-.56,4.3-.86s3.1-.41,4.37-1.01c.64-.3,.81-.77,.83-1.45,.05-1.55-.13-3.14-.23-4.69-.34-5.52-1.07-11.11-3.39-16.19-1.05-2.3-2.43-4.51-4.21-6.33s-3.87-2.86-6.23-3.67c-5.61-1.94-11.43-3.87-17.4-4.15-5.41-.25-10.61,1.2-15.27,3.93s-9.49,6.6-11.69,11.69c-1.25,2.9-1.73,6.08-2.19,9.18-.5,3.39-.9,6.8-1.19,10.22-.03,.32,.47,.32,.5,0h0Z"/>
        <path class="cls-10" d="M464.46,400.22c.2-3.16,.39-6.31,.59-9.47,.09-1.52,.28-3.06,.26-4.58-.02-.96-.2-2.03-.97-2.69-.56-.48-1.42-.75-2.13-.46-.99,.4-1.27,1.81-1.56,2.7-.88,2.73-1.27,5.62-1.12,8.48,.12,2.36,.5,5.15,2.66,6.52,.27,.17,.52-.26,.25-.43-2.37-1.5-2.47-4.99-2.44-7.49,.01-1.53,.18-3.06,.49-4.56,.15-.71,.33-1.41,.54-2.1,.23-.74,.46-1.88,1.03-2.41,.61-.57,1.52-.33,2.07,.24s.66,1.44,.67,2.2c.02,1.47-.15,2.95-.24,4.41-.2,3.21-.4,6.42-.6,9.63-.02,.32,.48,.32,.5,0h0Z"/>
        <path class="cls-10" d="M562.67,382.85c-1.82-.84-3.89,.14-4.91,1.75-1.38,2.16-1.29,5.17-1.17,7.63,.07,1.4,.24,2.8,.56,4.17,.15,.66,.33,2.54,1.33,2.44,.91-.09,1.51-1.51,1.82-2.2,.47-1.06,.75-2.19,.9-3.33,.45-3.34-.13-6.74,.53-10.07,.06-.31-.42-.45-.48-.13-.57,2.88-.23,5.8-.4,8.71-.08,1.3-.27,2.6-.69,3.84-.23,.67-.54,1.33-.93,1.92-.12,.18-.24,.35-.39,.52-.49,.19-.75,.09-.79-.31-.16-.25-.2-.67-.28-.96-.74-2.8-.91-5.85-.59-8.73,.15-1.38,.52-2.86,1.52-3.89s2.43-1.52,3.72-.92c.29,.13,.54-.3,.25-.43h0Z"/>
        <path class="cls-10" d="M464.24,382.71c2.47-8.06,6.38-15.77,12.32-21.84s13.41-9.72,21.8-11.04c4.55-.71,9.19-.93,13.79-1.12s9.19-.17,13.62,1.03c7.53,2.04,14.53,6.99,19.99,12.46,5.95,5.96,10.49,13.27,13.15,21.26,.1,.3,.58,.17,.48-.13-4.8-14.44-16-27.23-30.23-32.97-4.31-1.74-8.88-2.26-13.49-2.24s-9.64,.29-14.4,.82c-4.4,.49-8.78,1.36-12.87,3.1-3.65,1.55-7.01,3.75-9.98,6.37-7.22,6.36-11.87,15.06-14.66,24.16-.09,.31,.39,.44,.48,.13h0Z"/>
        <path class="cls-10" d="M491.39,392.51c.89-.68,1.94-1.11,2.97-1.54s2.01-.79,3.08-.87c2.25-.16,4.15,1.56,5.86,2.81,.26,.19,.51-.24,.25-.43-1.8-1.31-3.75-3.05-6.12-2.88-1.12,.08-2.18,.46-3.21,.89s-2.16,.89-3.08,1.59c-.25,.19,0,.63,.25,.43h0Z"/>
        <path class="cls-10" d="M496.18,391.21c-.06,.6,.36,1.21,.95,1.36s1.23-.15,1.49-.69c.06-.12,.03-.27-.09-.34-.11-.06-.28-.03-.34,.09-.09,.19-.21,.3-.39,.4-.16,.08-.36,.1-.53,.06-.1-.03-.17-.06-.26-.13-.01-.01-.06-.06-.09-.09-.04-.04-.06-.07-.08-.1-.07-.1-.09-.16-.12-.26,0-.03-.01-.05-.02-.08,0-.02,0-.02,0,0,0-.01,0-.03,0-.04,0-.06,0-.12,0-.18,.01-.13-.12-.25-.25-.25-.15,0-.24,.12-.25,.25h0Z"/>
        <path class="cls-10" d="M516.85,390.58c2-1.27,4.49-1.85,6.84-2.01,2.22-.15,4.68,.39,5.85,2.47,.16,.28,.59,.03,.43-.25-1.16-2.06-3.55-2.8-5.79-2.74-2.58,.07-5.39,.7-7.58,2.1-.27,.17-.02,.61,.25,.43h0Z"/>
        <path class="cls-10" d="M522.71,390.09c.62,.16,1.26,.18,1.9,.08,.13-.02,.21-.19,.17-.31-.04-.14-.17-.2-.31-.17-.54,.09-1.1,.05-1.63-.08-.13-.03-.27,.04-.31,.17s.04,.27,.17,.31h0Z"/>
        <path class="cls-10" d="M507.82,399.87c1.1,.25,2.53,.48,3.33-.55,.08-.11,.1-.25,0-.35-.09-.09-.27-.11-.35,0-.68,.88-1.91,.64-2.84,.43-.31-.07-.45,.41-.13,.48h0Z"/>
        <path class="cls-10" d="M501.05,386.47c1.33,.03,2.65,.3,3.87,.86,.56,.26,1.1,.56,1.61,.92,.71,.5,1.02,1.06,1.13,1.92,.36,2.82-.88,5.55-2.02,8.06-.13,.29,.3,.54,.43,.25,1.25-2.72,2.67-5.85,2-8.92-.3-1.34-1.64-2.08-2.79-2.62-1.32-.62-2.75-.94-4.21-.97-.32,0-.32,.49,0,.5h0Z"/>
        <path class="cls-10" d="M470.19,422.7c-1.39,2.18-2.86,4.5-3.15,7.13-.22,1.95,.33,4.13,1.77,5.53,.72,.7,1.75,1.27,2.78,1.23,.95-.04,1.73-.61,2.29-1.35,1.43-1.9,1.76-4.71,1.57-7.01-.11-1.33-.43-2.64-.95-3.87-.45-1.06-1.03-2.38-2.27-2.66-.31-.07-.45,.41-.13,.48,1.12,.25,1.66,1.63,2.04,2.59s.65,2.04,.77,3.1c.24,2.06,.01,4.36-.92,6.24-.42,.84-1.08,1.73-2.05,1.94-1.1,.24-2.25-.45-2.97-1.24-1.2-1.31-1.63-3.24-1.43-4.97,.29-2.54,1.74-4.77,3.08-6.88,.17-.27-.26-.52-.43-.25h0Z"/>
        <g>
          <path class="cls-1" d="M471.64,426.86c-1.21,.49-2.5,.8-3.81,.9-1.18,.09-2.42,.02-3.49,.54-1.26,.61-2.02,1.92-2.59,3.2-.9,2.04-1.51,4.21-1.8,6.42-.41,3.2-.16,6.45-.32,9.68-.12,2.31-.46,4.61-1.01,6.86-.46,1.88-1.04,4.01,0,5.65,.55,.87,1.48,1.43,2.43,1.84,.65,.29,1.44,.51,2.05,.14,.36-.22,.58-.6,.78-.98,2.17-4.06,3.45-8.61,3.7-13.21,.18-3.33-.16-6.73,.6-9.98,.42-1.8,1.4-3.73,3.19-4.19,.22-.06,.47-.1,.64-.25,.19-.17,.25-.43,.31-.68,.44-2.04,.8-4.43-.6-5.97"/>
          <path class="cls-10" d="M471.58,426.61c-1.63,.63-3.2,.84-4.93,.95-1.12,.07-2.2,.24-3.11,.95-2.01,1.56-2.88,4.79-3.41,7.14-.75,3.29-.62,6.65-.67,10s-.61,6.59-1.33,9.89c-.52,2.36-.46,4.68,1.78,6.08,.73,.46,1.74,.99,2.62,.89,1.13-.12,1.55-1.17,2-2.08,1.4-2.81,2.39-5.83,2.92-8.93s.39-6.21,.51-9.35c.07-1.93,.21-4.01,1.03-5.79,.36-.78,.87-1.55,1.61-2.02,.48-.31,1.19-.31,1.61-.7,.72-.68,.75-2.73,.77-3.65,.02-1.25-.26-2.37-1.06-3.35-.2-.25-.55,.11-.35,.35,.92,1.13,1.01,2.55,.85,3.94-.06,.54-.09,1.28-.32,1.79-.33,.76-1.15,.81-1.75,1.19-1.55,.97-2.21,2.93-2.53,4.64-.49,2.61-.36,5.27-.41,7.91-.06,2.84-.44,5.65-1.23,8.39-.37,1.28-.81,2.53-1.34,3.75-.29,.67-.6,1.34-.94,1.99-.53,1.02-1.02,1.67-2.43,1.25s-2.67-1.45-3.03-2.84,.06-2.92,.39-4.29c.6-2.5,.98-5.03,1.09-7.6,.12-2.9-.07-5.82,.25-8.71,.18-1.62,.53-3.21,1.04-4.76,.48-1.46,1.06-3.11,2.13-4.26,1.18-1.27,2.7-1.25,4.3-1.36,1.41-.1,2.75-.41,4.07-.92,.3-.12,.17-.6-.13-.48h0Z"/>
        </g>
        <path class="cls-10" d="M493.34,455.48c5.01-1.57,10.22-2.42,15.47-2.47,2.55-.02,5.08,.16,7.61,.48,1.84,.23,3.58,.21,4.81-1.36,.98-1.26,1.86-3.32,1.73-4.92-.14-1.75-2.01-3.45-3.46-4.24-1.79-.98-4.24-.69-6.19-.73-2.41-.04-5.23-.42-7.54,.43-1.11,.41-2.07,1.12-3.08,1.72-1.18,.71-2.44,1.29-3.75,1.72-2.65,.88-5.44,1.15-8.22,.85-.32-.03-.32,.47,0,.5,3.75,.4,7.55-.25,10.93-1.94,2.14-1.07,3.86-2.63,6.35-2.79,2.25-.15,4.54-.02,6.79,.04,1.11,.03,2.3-.03,3.39,.23,1.29,.31,2.22,1.2,3.11,2.12,1.16,1.2,1.39,2.38,.87,3.98-.33,1.01-.76,2.14-1.49,2.94-1.61,1.76-4.22,.91-6.28,.71-2.23-.22-4.48-.29-6.73-.22-4.9,.15-9.76,1-14.44,2.46-.31,.1-.18,.58,.13,.48h0Z"/>
        <path class="cls-10" d="M514.75,446.9c-.2,.43-.36,.89-.44,1.36-.07,.37-.24,1.09,.29,1.21,.22,.05,.43-.04,.62-.13s.39-.19,.57-.31c.37-.24,.69-.55,.87-.96s.19-.85,0-1.24c-.17-.33-.5-.58-.85-.68-.77-.23-1.56,.31-1.71,1.08-.18,.9,.6,1.75,1.51,1.71,.32-.02,.32-.52,0-.5-.51,.02-1.04-.38-1.04-.91,0-.49,.41-.96,.92-.93s.92,.52,.8,1.04c-.15,.66-.78,1.03-1.36,1.29-.06,.03-.12,.04-.18,.06-.09,.02,0-.02,0,.02,0-.03,0-.05,0-.08,0-.19,.03-.39,.07-.58,.08-.41,.2-.81,.38-1.19,.06-.12,.03-.27-.09-.34-.11-.06-.28-.03-.34,.09h0Z"/>
        <path class="cls-10" d="M533.94,451.15c-.88,2.27-2.34,4.27-3.19,6.55-.93,2.5-.27,4.66-.14,7.21,.16,3.18-2.81,5.25-4.84,7.32-2.13,2.19-4.27,4.37-6.4,6.56-.22,.23,.13,.58,.35,.35,2.25-2.3,4.49-4.6,6.74-6.9,1.63-1.67,4.16-3.47,4.59-5.91,.19-1.11-.01-2.24-.17-3.34-.23-1.59-.32-3.06,.16-4.61,.78-2.51,2.43-4.65,3.38-7.09,.12-.3-.37-.43-.48-.13h0Z"/>
        <path class="cls-10" d="M521.75,470.1c-.7,1.03-1.6,1.92-2.64,2.6-.27,.17-.02,.61,.25,.43,1.12-.73,2.08-1.67,2.82-2.78,.18-.27-.25-.52-.43-.25h0Z"/>
        <path class="cls-10" d="M535.72,466.9c2.02-3.82,5.03-6.56,8.65-8.84,3.18-2.01,6.61-4.07,8.25-7.63,.13-.29-.3-.54-.43-.25-1.78,3.88-5.68,5.87-9.08,8.1s-5.97,4.9-7.81,8.37c-.15,.28,.28,.54,.43,.25h0Z"/>
        <path class="cls-10" d="M587.94,468c-.25,8.62-.66,17.26-.73,25.89-.06,6.83,1,14.41,6.92,18.74,.52,.38,1.02-.49,.5-.86-6.17-4.52-6.56-12.8-6.39-19.77,.2-8,.47-16,.7-23.99,.02-.64-.98-.64-1,0h0Z"/>
        <path class="cls-10" d="M618.34,513.93c-8.25-.36-16.49-.72-24.74-1.08-3.37-.15-6.7-.45-9.76,1.2-2.62,1.41-4.68,3.63-7.24,5.15-3.55,2.11-7.23,1.35-11.06,.54s-7.52-1.31-11.25-.53c-2.81,.59-5.51,2.05-7.34,4.31-1.21,1.49-3.19,4.97-1.2,6.6,1.14,.93,2.94,.84,4.3,1.28,1.69,.54,3.27,1.43,4.63,2.57,2.73,2.28,4.62,5.51,5.07,9.05,.08,.63,1.08,.64,1,0-.68-5.31-4.24-10.01-9.18-12.11-1.25-.53-2.5-.77-3.82-1.05-.92-.19-1.85-.53-1.82-1.67,.02-.94,.46-1.95,.91-2.76,1.54-2.75,4.46-4.52,7.47-5.21,3.93-.89,7.97-.15,11.84,.67,3.07,.65,6.25,1.23,9.26,0,2.58-1.06,4.61-3.03,6.83-4.65,1.19-.87,2.46-1.67,3.88-2.1,1.78-.55,3.64-.46,5.48-.38,8.91,.37,17.81,.78,26.71,1.17,.64,.03,.64-.97,0-1h0Z"/>
        <path class="cls-10" d="M546.89,527.83c-4.35,.18-9.17,.47-12.78,3.2-2.99,2.26-4.95,6.18-3.69,9.89,.08,.23,.25,.35,.48,.37,1.86,.17,3.43-.67,5-1.55,1.74-.97,3.97-2.1,5.81-.72v-.86c-2.98,1.54-6.19,2.59-9.51,3.05-2.3,.32-5.29-.35-6.16,2.39-.69,2.18,.17,4.59,1.64,6.24,1.88,2.1,4.71,3,7.37,3.6,.54,.12,.89-.62,.39-.91-2.99-1.74-6.99,.64-7.44,3.95-.54,3.92,3.57,6.86,7.15,6.62,.54-.04,.7-.83,.13-.98-2.78-.72-6,1.92-5.21,4.89,.7,2.62,4.1,3.82,6.33,2.37,.41-.27,.26-.92-.25-.93-1.84-.02-3.9-.03-5.42,1.18-1.17,.92-1.91,2.5-1.35,3.96,1.28,3.33,6.94,2.34,9.61,2.31,2.04-.03,4.18,.04,6.1-.76,1.65-.69,2.8-2.03,3.56-3.62,.88-1.82,1.34-3.8,2.04-5.69,.83-2.25,1.86-4.43,3.06-6.5s2.45-4.1,4.19-5.7c1.93-1.77,4.37-2.38,6.91-2.6,5.14-.44,10.32-.59,15.47-.87s10.36-.57,15.54-.85,10.16-.72,15.13,.21,9.33,4.17,14.35,5.33,10-.83,14.6-2.84c.59-.26,.08-1.12-.5-.86-4.2,1.83-8.75,3.76-13.43,2.82-4.06-.81-7.54-3.27-11.44-4.57-4.12-1.38-8.52-1.53-12.82-1.39-4.68,.15-9.35,.48-14.03,.74s-9.7,.53-14.55,.8c-2.35,.13-4.7,.25-7.05,.39-1.93,.12-3.9,.29-5.72,.99-3.59,1.38-5.8,4.88-7.62,8.08-1.01,1.77-1.89,3.62-2.65,5.51s-1.22,3.74-1.94,5.58c-.92,2.36-2.45,4.1-5.04,4.56-2.39,.43-4.94,.25-7.36,.28-1.68,.02-4.53,.25-5.42-1.58-.71-1.45,.64-2.94,1.89-3.45s2.59-.47,3.89-.45l-.25-.93c-1.6,1.04-4.08,.35-4.78-1.5-.87-2.3,1.72-4.49,3.89-3.93l.13-.98c-2.88,.19-6.29-1.92-6.19-5.11,.09-2.78,3.47-5.05,5.97-3.6l.39-.91c-2.38-.54-4.91-1.28-6.67-3.07-.84-.86-1.48-1.95-1.73-3.13s-.18-3.29,1.28-3.71c1.1-.32,2.48-.15,3.63-.29s2.29-.34,3.42-.61c2.43-.58,4.76-1.48,6.98-2.63,.37-.19,.28-.66,0-.86-3.78-2.84-7.52,2.48-11.32,2.13l.48,.37c-1.21-3.56,.91-7.33,3.93-9.25,3.42-2.17,7.65-2.41,11.58-2.57,.64-.03,.64-1.03,0-1h0Z"/>
        <path class="cls-10" d="M578.76,526.08c-.32,1.59,.51,3,1.75,3.95,1.46,1.11,3.22,1.84,4.78,2.81,3.27,2.03,6.29,4.43,9.01,7.14,.46,.45,1.16-.25,.71-.71-2.4-2.39-5.04-4.55-7.86-6.43-1.41-.93-2.86-1.79-4.35-2.58s-3.47-1.95-3.08-3.91c.13-.63-.84-.9-.96-.27h0Z"/>
        <path class="cls-10" d="M545.73,529.3c2.06,.86,4.13,1.73,6.19,2.59,1.01,.42,2.01,.84,3.02,1.26,.89,.38,1.83,.77,2.52,1.47s1.04,1.56,1.44,2.39c.44,.92,.87,1.84,1.28,2.77,.89,2.02,1.7,4.07,2.44,6.15,.21,.6,1.18,.34,.96-.27-.75-2.11-1.58-4.19-2.48-6.25-.45-1.03-.92-2.05-1.42-3.06-.42-.87-.85-1.75-1.53-2.45-1.33-1.37-3.47-1.94-5.18-2.66-2.33-.97-4.66-1.95-6.99-2.92-.59-.25-.85,.72-.27,.96h0Z"/>
        <path class="cls-10" d="M598.72,523.88c-.23,2.84,.45,5.71,1.92,8.15,.33,.55,1.2,.05,.86-.5-1.38-2.3-2-4.97-1.79-7.65,.05-.64-.95-.64-1,0h0Z"/>
        <path class="cls-10" d="M603.25,508.7c11.35,4.59,22.03,10.72,31.74,18.18,.51,.39,1.01-.48,.5-.86-9.78-7.52-20.54-13.66-31.98-18.28-.6-.24-.86,.73-.27,.96h0Z"/>
        <path class="cls-10" d="M612.26,485.06c-.17-.94,1.4-2.15,2.04-2.67,.85-.68,1.82-1.23,2.84-1.62,1.95-.76,4.08-1.04,6.17-.92,5.12,.3,9.77,2.97,14.14,5.44,.56,.32,1.07-.55,.5-.86-4.96-2.8-10.36-5.83-16.25-5.59-2.32,.1-4.66,.67-6.67,1.85-1.45,.84-4.09,2.71-3.73,4.64,.12,.63,1.08,.36,.96-.27h0Z"/>
        <path class="cls-10" d="M475.08,663.7c2.12-6.59,4.67-13.11,7.85-19.26,1.54-2.98,3.32-5.82,5.56-8.34,2.11-2.37,4.5-4.48,6.82-6.64,4.25-3.96,8.54-8.48,9.9-14.31s-1.64-11.51-4.38-16.74c-3.59-6.86-6.29-14.14-8.05-21.67-.07-.31-.56-.18-.48,.13,1.48,6.32,3.6,12.47,6.38,18.34s7.29,11.81,6.28,18.61c-.93,6.28-5.55,11.14-10,15.28-2.27,2.11-4.6,4.17-6.67,6.48s-3.71,4.77-5.16,7.43c-3.54,6.5-6.26,13.52-8.53,20.56-.1,.31,.38,.44,.48,.13h0Z"/>
        <path class="cls-10" d="M404.87,582.45c5.48-6.66,15.09-3.44,22.27-2.8,7.26,.65,14.31-2.05,18.85-7.85,.13-.16,.06-.43-.18-.43-2.64,.04-5.14-.81-7.2-2.47-.25-.2-.6,.15-.35,.35,2.16,1.75,4.77,2.66,7.55,2.62l-.18-.43c-2.36,3.02-5.52,5.34-9.13,6.64-4.12,1.49-8.32,1.29-12.59,.66-6.44-.96-14.65-2.42-19.4,3.35-.2,.25,.15,.6,.35,.35h0Z"/>
        <path class="cls-10" d="M625.71,594.59c-1.11,4.04-2.89,7.85-5.3,11.27-2.2,3.11-5.26,5.65-7.04,9.06-.7,1.35-1.45,3.09-.93,4.62,.47,1.39,1.81,2.24,3.04,2.89,3.13,1.65,6.47,2.87,9.67,4.37,3.69,1.73,7.26,3.86,9.65,7.24,.37,.52,1.24,.02,.86-.5-3.86-5.46-10.3-7.7-16.17-10.3-1.5-.66-3.08-1.31-4.46-2.2-.96-.62-1.71-1.39-1.76-2.59-.05-1.12,.61-2.4,1.14-3.35,1.78-3.17,4.63-5.6,6.73-8.54,2.53-3.53,4.37-7.5,5.53-11.69,.17-.62-.79-.89-.96-.27h0Z"/>
        <path class="cls-10" d="M618.4,650.98c-4.66,5.11-12.8,3-18.45,6.29-3.44,2-5,5.82-6.98,9.08-2.46,4.05-5.25,7.87-8.33,11.47-.42,.49,.29,1.2,.71,.71,2.89-3.37,5.53-6.94,7.89-10.7,2.21-3.53,3.86-8,7.78-9.99,5.71-2.91,13.44-1.05,18.09-6.15,.43-.47-.27-1.18-.71-.71h0Z"/>
        <path class="cls-10" d="M608.02,676.5c.12,5.38,6.72,6.37,10.58,8.02,4.97,2.12,9.49,5.19,13.34,8.99,.46,.45,1.17-.25,.71-.71-3.4-3.35-7.31-6.16-11.6-8.26-2.11-1.03-4.29-1.8-6.5-2.59-2.51-.89-5.45-2.41-5.52-5.46-.01-.64-1.01-.64-1,0h0Z"/>
        <path class="cls-10" d="M562.38,705.61c4.38,1.64,8.94,2.71,13.59,3.16,1.97,.19,4.26,.54,6.15-.27s3.34-2.57,5.01-3.77c7.31-5.27,16.52-6.79,25.29-7.54,5.47-.47,10.95-.72,16.39-1.47,.63-.09,.36-1.05-.27-.96-9.21,1.26-18.63,1.02-27.73,3.09-3.96,.9-7.86,2.24-11.41,4.24-1.66,.94-3.23,2.03-4.68,3.26-.81,.69-1.57,1.46-2.5,1.98-1.22,.69-2.55,.68-3.9,.61-5.36-.27-10.64-1.41-15.67-3.3-.6-.23-.86,.74-.27,.96h0Z"/>
        <path class="cls-10" d="M418.03,706.89c6.35-5.16,14.61,.67,20.73,3.11,3.65,1.46,7.5,1.91,11.4,2.01,4.28,.11,8.58,.04,12.86-.07,4.83-.12,9.65-.33,14.48-.64,.64-.04,.64-1.04,0-1-8.86,.56-17.76,.88-26.64,.72-4.5-.08-8.8-.64-12.94-2.46-3.44-1.51-6.75-3.5-10.47-4.28-3.52-.74-7.26-.44-10.13,1.89-.5,.41,.21,1.11,.71,.71h0Z"/>
        <path class="cls-10" d="M471.7,720.06l3.4,2.26c.58,.39,1.17,.77,1.75,1.16s1.16,.74,1.52,1.35c.32,.55,.47,1.2,.67,1.79,.22,.66,.44,1.32,.66,1.98,.44,1.32,.89,2.64,1.33,3.96,.1,.3,.58,.17,.48-.13-.47-1.4-.94-2.79-1.41-4.19-.23-.7-.47-1.4-.7-2.1-.2-.59-.36-1.22-.71-1.73-.67-1-1.95-1.6-2.93-2.25-1.27-.84-2.54-1.69-3.81-2.53-.27-.18-.52,.25-.25,.43h0Z"/>
        <g>
          <path class="cls-1" d="M430.95,720.07c-1.66-4.42-7.08-5.85-11.73-6.67-1.68-.3-3.42-.59-5.07-.16-2.01,.53-3.59,2.05-5.07,3.51-2.03,2.01-4.11,4.09-5.3,6.7-1.24,2.73-1.39,5.8-1.43,8.8-.07,5.35,.18,10.7,.74,16.02,.48,4.62,1.2,9.27,.77,13.9-.34,3.6-1.36,7.1-1.75,10.7-.46,4.27-.01,8.65-1.07,12.81-1.49,5.87-5.88,10.84-6.57,16.86-.07,.65-.1,1.34,.18,1.93,.3,.64,.91,1.08,1.51,1.45,6.49,3.99,14.66,3.4,22.24,4.19,4.62,.48,9.16,1.51,13.7,2.48,8.99,1.91,18.04,3.56,27.13,4.94,1.86,.28,3.91,.52,5.5-.48,1.54-.97,2.25-2.91,2.23-4.74-.03-1.82-.67-3.58-1.29-5.29-3.76-10.32-7.29-21.02-6.87-31.99,.46-11.89,5.49-23.03,9.48-34.24,.64-1.81,1.27-3.69,1.14-5.61-.13-1.84-.96-3.56-1.87-5.17-4.93-8.7-13.52-15.94-23.5-16.65-.64-.05-1.34-.05-1.87,.33-.66,.48-.82,1.37-1.03,2.17-1.22,4.75-6.41,8.1-11.24,7.27"/>
          <path class="cls-10" d="M431.43,719.94c-1.61-4.01-5.78-5.65-9.71-6.55-2.37-.54-5.06-1.22-7.48-.68s-4.15,2.33-5.81,3.98c-1.81,1.8-3.64,3.67-4.81,5.96-1.24,2.41-1.61,5.12-1.72,7.8-.26,6.25,.12,12.57,.8,18.78,.33,3.03,.73,6.06,.79,9.11,.07,3.31-.47,6.51-1.1,9.75-.54,2.81-.91,5.6-1,8.46-.1,3.08-.08,6.2-.88,9.2-1.36,5.11-4.79,9.38-6.11,14.51-.52,2.03-.97,4.29,.92,5.71s4.43,2.33,6.75,2.91c5.2,1.31,10.62,1.18,15.92,1.7,6.35,.62,12.56,2.24,18.8,3.5s12.58,2.4,18.9,3.41c2.44,.39,5.24,1.18,7.71,.63,2.23-.49,3.62-2.38,3.96-4.57,.41-2.6-.67-5.14-1.54-7.54-1.07-2.96-2.11-5.94-3.04-8.95-1.8-5.86-3.2-11.89-3.48-18.04-.54-12.14,4.06-23.48,8.2-34.64,.98-2.65,2.31-5.45,2.42-8.31,.1-2.53-1.07-4.83-2.32-6.95-2.42-4.08-5.58-7.75-9.36-10.62s-8.06-4.85-12.71-5.47c-2.26-.3-4.06-.3-4.73,2.18s-1.91,4.44-4.03,5.85c-1.98,1.32-4.36,1.95-6.73,1.59-.63-.1-.9,.87-.27,.96,3.84,.58,7.75-1.05,10.12-4.13,.52-.68,.96-1.42,1.29-2.21,.55-1.29,.47-3.26,2.27-3.43,2.17-.2,4.76,.62,6.78,1.35,4.44,1.6,8.37,4.45,11.59,7.87,1.61,1.72,3.06,3.59,4.32,5.58,1.4,2.22,2.88,4.69,2.78,7.41s-1.44,5.5-2.38,8.04-1.94,5.17-2.88,7.77c-1.86,5.15-3.57,10.39-4.54,15.79-2,11.12,.13,21.99,3.64,32.58,.89,2.68,1.88,5.32,2.81,7.98,.86,2.48,1.64,5.79-.49,7.9s-5.86,.9-8.39,.5c-3-.47-5.99-.98-8.98-1.51-5.8-1.03-11.58-2.18-17.35-3.42-5.35-1.14-10.66-2.08-16.13-2.42-5.03-.32-10.25-.46-14.99-2.37-1.19-.48-2.63-1.07-3.58-1.96-1.15-1.08-.67-2.89-.33-4.24,.6-2.44,1.72-4.71,2.85-6.94,1.05-2.09,2.14-4.18,2.9-6.4,.86-2.52,1.13-5.16,1.23-7.81,.11-2.9,.12-5.78,.59-8.64,.44-2.68,1.08-5.33,1.4-8.03,.68-5.84-.48-11.7-.96-17.51s-.9-11.54-.26-17.17c.34-2.94,1.39-5.52,3.27-7.81,1.51-1.84,3.26-3.67,5.12-5.15,2.55-2.03,5.26-1.8,8.29-1.23,2.11,.4,4.25,.89,6.2,1.82s3.68,2.32,4.52,4.39c.24,.59,1.2,.33,.96-.27h0Z"/>
        </g>
        <g>
          <path class="cls-1" d="M613.76,712.17c1.66-4.42,7.08-5.85,11.73-6.67,1.68-.3,3.42-.59,5.07-.16,2.01,.53,3.59,2.05,5.07,3.51,2.03,2.01,4.11,4.09,5.3,6.7,1.24,2.73,1.39,5.8,1.43,8.8,.07,5.35-.18,10.7-.74,16.02-.48,4.62-1.2,9.27-.77,13.9,.34,3.6,1.36,7.1,1.75,10.7,.46,4.27,.01,8.65,1.07,12.81,1.49,5.87,5.88,10.84,6.57,16.86,.07,.65,.1,1.34-.18,1.93-.3,.64-.91,1.08-1.51,1.45-6.49,3.99-14.66,3.4-22.24,4.19-4.62,.48-9.16,1.51-13.7,2.48-8.99,1.91-18.04,3.56-27.13,4.94-1.86,.28-3.91,.52-5.5-.48-1.54-.97-2.25-2.91-2.23-4.74,.03-1.82,.67-3.58,1.29-5.29,3.76-10.32,7.29-21.02,6.87-31.99-.46-11.89-5.49-23.03-9.48-34.24-.64-1.81-1.27-3.69-1.14-5.61,.13-1.84,.96-3.56,1.87-5.17,4.93-8.7,13.52-15.94,23.5-16.65,.64-.05,1.34-.05,1.87,.33,.66,.48,.82,1.37,1.03,2.17,1.22,4.75,6.41,8.1,11.24,7.27"/>
          <path class="cls-10" d="M614.24,712.3c1.71-4.25,6.83-5.48,10.88-6.23,1.34-.25,2.7-.52,4.07-.44,1.61,.09,2.98,.82,4.21,1.83,1.84,1.51,3.61,3.33,5.1,5.18,3.8,4.72,3.45,10.83,3.32,16.56s-.86,11.58-1.38,17.39c-.26,2.87-.35,5.75,0,8.61,.33,2.7,.99,5.34,1.41,8.02,.85,5.38,0,10.99,1.78,16.23,1.57,4.59,4.58,8.6,5.75,13.35,.34,1.37,.81,3.14-.33,4.24-.93,.9-2.4,1.49-3.58,1.96-2.44,.98-5.04,1.5-7.65,1.81-5.07,.6-10.18,.59-15.23,1.38-5.83,.92-11.58,2.35-17.37,3.48s-11.62,2.16-17.46,3.08c-2.55,.4-6.24,1.51-8.28-.67s-1.17-5.51-.29-7.99c3.7-10.51,7.53-21.2,7.21-32.51-.31-11.04-4.57-21.4-8.34-31.61-.94-2.54-2.27-5.29-2.31-8.04s1.54-5.28,2.98-7.51c2.55-3.94,5.83-7.45,9.73-10.08,1.91-1.29,3.97-2.36,6.15-3.12,.99-.35,2-.63,3.02-.85,1.15-.24,2.6-.62,3.78-.44,1.61,.25,1.57,2.24,2.07,3.42,.34,.81,.79,1.56,1.33,2.26,1.17,1.5,2.74,2.68,4.5,3.41s3.68,.96,5.58,.67c.63-.1,.36-1.06-.27-.96-2.48,.37-4.99-.33-7.01-1.78s-3.09-3.45-3.79-5.83-2.61-2.3-4.75-2c-2.27,.31-4.47,.95-6.57,1.87-4.4,1.91-8.26,4.98-11.38,8.59-1.51,1.75-2.87,3.63-4.05,5.62-1.34,2.26-2.53,4.7-2.29,7.39s1.46,5.34,2.39,7.87c1.06,2.88,2.16,5.74,3.19,8.63,1.96,5.51,3.73,11.14,4.56,16.94,1.78,12.42-1.88,24.49-6.07,36.05-.91,2.51-2.04,5.18-1.47,7.9,.42,2.05,1.82,3.74,3.9,4.21,2.61,.58,5.62-.29,8.2-.71,3.08-.49,6.15-1.02,9.22-1.57,6.26-1.13,12.48-2.47,18.71-3.75,3.07-.63,6.16-1.2,9.28-1.5,2.79-.27,5.6-.37,8.4-.59,4.76-.38,10.49-1.01,14.37-4.1,1.84-1.46,1.31-3.82,.77-5.83-.66-2.45-1.81-4.73-2.94-6.98-1.23-2.43-2.49-4.88-3.17-7.53-.77-3.01-.73-6.15-.83-9.23-.21-6.07-2.21-11.9-2.09-17.98s1.27-12.51,1.52-18.8c.13-3.17,.21-6.37,.04-9.55-.14-2.6-.56-5.21-1.79-7.53s-3.06-4.13-4.87-5.93c-1.67-1.66-3.48-3.43-5.89-3.88s-5.07,.23-7.42,.77c-2.09,.49-4.21,1.16-6.03,2.33-1.6,1.03-2.8,2.41-3.51,4.18-.24,.6,.73,.86,.96,.27h0Z"/>
        </g>
        <path class="cls-10" d="M396.03,805.94c1.84-3.44,4.72-6.06,7.92-8.24s6.68-4.21,10.24-5.77c4.4-1.93,8.93-2.31,13.61-1.27,4.24,.94,8.44,2.6,12.3,4.58s7.11,4.34,9.59,7.69c1.18,1.59,2.14,3.37,2.74,5.27s1.57,5.34-.54,6.48-4.71,.69-6.91,.11c-2.07-.54-4.1-1.2-6.18-1.73-4.23-1.07-8.52-1.86-12.82-2.57-9.75-1.61-19.61-2.81-29.1-5.71-.31-.09-.44,.39-.13,.48,9.41,2.87,19.19,4.08,28.87,5.67,4.76,.78,9.51,1.67,14.18,2.9,3.73,.99,8.59,3.33,12.35,1.28,1.65-.9,1.59-2.59,1.38-4.26-.23-1.83-.8-3.6-1.61-5.25-1.83-3.69-4.83-6.63-8.25-8.87-3.71-2.42-7.92-4.17-12.12-5.55s-8.88-2.2-13.34-1.15c-4.77,1.12-9.26,3.86-13.35,6.47-3.71,2.37-7.15,5.25-9.26,9.18-.15,.28,.28,.54,.43,.25h0Z"/>
        <path class="cls-10" d="M590.34,809.78c.94-3.9,2.17-7.81,3.93-11.42,1.67-3.43,4-6.2,7.65-7.56s7.48-2.01,11.21-2.61c3.99-.65,8.04-.99,12.08-.82s7.83,.82,11.54,2.13c1.75,.62,3.56,1.44,4.81,2.87,1.38,1.58,1.96,4.29,.35,5.93-1.34,1.37-3.57,1.7-5.34,2.18-2.01,.54-4.02,1.06-6.05,1.56-3.97,.97-7.95,1.85-11.96,2.63-9.33,1.82-18.75,3.13-28.23,3.92-.32,.03-.32,.53,0,.5,9.2-.77,18.35-2.02,27.42-3.76,4.56-.87,9.1-1.87,13.6-2.99,2.25-.56,4.5-1.15,6.74-1.77,1.51-.42,3.2-.84,4.29-2.06,2.13-2.4,.58-5.89-1.65-7.57-3.08-2.32-7.5-3.18-11.23-3.7-8.37-1.16-16.98,.16-25.09,2.27-2.1,.55-4.21,1.24-5.97,2.56-1.53,1.15-2.72,2.67-3.69,4.31-2.37,4.04-3.81,8.74-4.9,13.27-.08,.31,.41,.45,.48,.13h0Z"/>
        <g>
          <path class="cls-12" d="M567.57,431.29c-2.08,9.57-9.06,17.2-15.77,24.33-6.93,7.36-13.85,14.73-20.78,22.09-10.46,11.13-21.45,23.31-23.46,38.45-.16,1.21-.25,2.51,.33,3.58,.49,.91,1.4,1.52,2.27,2.09,6,3.95,12.43,8.03,19.61,8.19,6.99,.16,13.51-3.45,19.13-7.62,1.65-1.22,3.29-2.52,5.2-3.27,3.42-1.34,7.24-.77,10.92-.71,7.15,.11,15.16-2.55,18.1-9.07,.41-.9,.71-1.92,.47-2.88-.29-1.17-1.31-2-2.28-2.72-3.17-2.34-6.58-4.44-9.2-7.39-3.5-3.93-5.37-9.28-5.08-14.53,.28-5.26,2.72-10.37,6.62-13.9,2.34-2.12,5.15-3.67,7.41-5.87,3.03-2.95,4.88-6.89,6.32-10.87,1.68-4.63,2.84-9.96,.56-14.33-1.72-3.3-5.17-5.44-8.78-6.37-3.61-.93-7.39-.78-11.11-.51"/>
          <path class="cls-10" d="M567.09,431.16c-2.29,10.15-9.76,17.86-16.66,25.19-7.98,8.49-16.08,16.89-23.93,25.5-6.51,7.14-12.83,14.8-16.57,23.81-.92,2.21-1.67,4.48-2.2,6.81-.47,2.03-1.17,4.59-.61,6.66,.6,2.18,3.04,3.31,4.79,4.44,2.26,1.45,4.56,2.86,6.98,4.03,4.37,2.12,9.11,3.39,13.99,2.76,5.1-.66,9.79-3.05,14-5.9,2.21-1.5,4.26-3.37,6.68-4.54,2.6-1.26,5.53-1.23,8.36-1.11,4.48,.18,8.85,.07,13.07-1.61,3.63-1.45,6.92-3.95,8.57-7.59,.87-1.92,.82-3.77-.75-5.28-1.74-1.67-3.95-2.9-5.88-4.34-4.33-3.24-7.66-7.3-8.91-12.66-1.16-4.96-.28-10.21,2.33-14.57,1.36-2.28,3.17-4.18,5.26-5.79s4.28-2.98,6.1-4.84c3.4-3.47,5.43-8.22,6.83-12.81s1.98-9.73-.84-13.8c-2.56-3.69-6.95-5.49-11.27-6.02-2.78-.34-5.59-.2-8.37,0-.64,.05-.64,1.05,0,1,5.18-.37,10.74-.51,15.33,2.32s5.96,7.93,4.98,13.1c-.9,4.76-2.88,9.8-5.8,13.68-3.02,4.02-7.82,6.03-11.05,9.83-5.85,6.89-6.61,16.95-1.77,24.61,2.47,3.91,6.25,6.52,9.95,9.16,.98,.7,2.1,1.37,2.85,2.33,1.08,1.37,.52,2.96-.22,4.34-1,1.86-2.48,3.4-4.22,4.58-3.45,2.34-7.72,3.35-11.85,3.46-4.75,.14-9.6-.93-13.96,1.55-2.15,1.22-4.03,2.87-6.08,4.25s-4.28,2.68-6.59,3.69c-4.84,2.11-10.03,2.74-15.15,1.29s-9.4-4.24-13.68-7.06c-1.09-.72-2.31-1.43-2.69-2.78s-.03-2.85,.21-4.16c.41-2.29,1.02-4.55,1.81-6.74,3.24-8.99,9.29-16.67,15.58-23.72,7.27-8.14,14.9-15.97,22.38-23.92,6.53-6.94,13.86-13.86,17.88-22.67,.91-2,1.62-4.08,2.11-6.23,.14-.63-.82-.89-.96-.27h0Z"/>
        </g>
        <g>
          <path class="cls-12" d="M425.75,441.55c1.1,7.45,2.2,14.9,3.31,22.34,.51,3.48,1.03,6.96,1.93,10.36,1.11,4.17,2.8,8.2,3.37,12.47,.81,6.08-.71,12.2-1.7,18.25-.22,1.31-.4,2.7,.13,3.91,.73,1.68,2.59,2.52,4.3,3.17,9.45,3.57,19.42,5.76,29.5,6.45,3.46,.24,6.96,.31,10.29,1.28,2.71,.79,5.54,2.17,8.2,1.23,2.95-1.04,4.25-4.41,6.39-6.69,2.34-2.5,5.83-3.78,7.92-6.5,3.01-3.92,2.11-9.79-.76-13.81s-7.27-6.63-11.53-9.12c-4.47-2.6-8.93-5.2-13.4-7.81-2.64-1.54-5.33-3.11-7.32-5.43-1.59-1.84-2.66-4.05-3.71-6.24-2.84-5.9-5.67-11.8-8.51-17.7-2.77-5.75-6.28-12.13-12.48-13.65-3.53-.86-7.24,.09-10.66,1.34-2.48,.91-5.39,2.86-4.72,5.42"/>
          <path class="cls-10" d="M425.27,441.68c.74,5.02,1.49,10.04,2.23,15.06s1.32,9.95,2.35,14.85c.97,4.64,2.86,9.03,3.76,13.68,1,5.17,.19,10.39-.73,15.51-.64,3.57-2.24,8.11,1.43,10.52,1.64,1.07,3.66,1.65,5.49,2.28,2.28,.79,4.58,1.49,6.91,2.12,4.55,1.22,9.17,2.13,13.84,2.73,4.9,.63,9.99,.44,14.82,1.51,3.75,.83,7.91,3.35,11.49,.7,1.36-1.01,2.32-2.44,3.29-3.81,1.24-1.74,2.59-3.12,4.35-4.35,2.97-2.07,5.97-4.01,6.91-7.74,.88-3.49-.05-7.34-1.95-10.33-2.17-3.42-5.54-5.9-8.93-8-4.07-2.53-8.27-4.86-12.41-7.27-3.84-2.23-8.27-4.26-11.27-7.63-1.54-1.73-2.58-3.84-3.58-5.91-1.1-2.26-2.18-4.53-3.27-6.8-2.07-4.3-4.07-8.63-6.21-12.89-1.62-3.23-3.47-6.48-6.14-8.97s-6.23-3.89-10.01-3.6c-2.17,.17-4.29,.76-6.34,1.49-1.61,.57-3.24,1.33-4.42,2.61-.94,1.02-1.36,2.22-1.08,3.58,.13,.63,1.09,.36,.96-.27-.82-4,6.29-5.62,8.99-6.14,4.16-.81,8.08,.13,11.19,3.04,2.56,2.39,4.33,5.51,5.9,8.61,1.99,3.95,3.85,7.96,5.76,11.95s3.56,8.18,5.93,11.87c2.1,3.28,5.23,5.35,8.53,7.28,3.95,2.31,7.92,4.61,11.87,6.92,3.55,2.07,7.24,4.05,10.31,6.81s5.18,6.08,5.46,10.1c.13,1.84-.17,3.73-1.07,5.36-.98,1.77-2.59,2.99-4.22,4.11-1.4,.96-2.84,1.88-4.05,3.08s-2.04,2.59-3.02,3.9c-1.17,1.57-2.57,2.97-4.62,3.19-2.32,.24-4.55-.86-6.73-1.49-4.21-1.21-8.66-1.1-12.98-1.51-4.52-.43-9.01-1.16-13.43-2.18s-8.57-2.27-12.72-3.8c-1.71-.63-3.87-1.35-4.64-3.18-.9-2.14,.17-5.17,.57-7.37,.79-4.4,1.56-8.87,1.18-13.35s-1.93-8.35-3.14-12.47c-1.28-4.38-1.89-8.9-2.56-13.4s-1.37-9.23-2.05-13.84c-.34-2.27-.67-4.53-1.01-6.8-.09-.63-1.06-.36-.96,.27h0Z"/>
        </g>
        <g>
          <path class="cls-1" d="M525.72,508.5c-11.26,.31-22.52,.63-33.78,.94-2.58,.07-5.54,.34-7.04,2.44-.74,1.03-.96,2.34-1.13,3.6-.29,2.15-.34,4.64,1.24,6.12,1.25,1.16,3.11,1.29,4.81,1.34,5.99,.15,11.99,.02,17.98-.12,3.12-.07,6.24-.14,9.36-.21,1.53-.03,3.18-.12,4.35-1.1,1.1-.93,1.5-2.42,1.83-3.82,.76-3.16,1.51-6.31,2.27-9.47"/>
          <path class="cls-10" d="M525.72,508c-8.03,.22-16.06,.45-24.1,.67-3.81,.11-7.69,.01-11.48,.37-2.46,.23-5.05,1-6.14,3.44-1.02,2.28-1.42,5.96-.24,8.25,1.35,2.64,4.48,2.67,7.07,2.73,7.96,.16,15.93-.12,23.88-.3,3.16-.07,6.96,.3,8.45-3.14,.69-1.58,.96-3.38,1.36-5.05,.53-2.21,1.06-4.42,1.59-6.63,.15-.63-.81-.89-.96-.27-.78,3.27-1.52,6.56-2.35,9.82-.35,1.38-.8,2.87-2.14,3.59-1.46,.79-3.36,.61-4.95,.64-6.79,.15-13.58,.37-20.37,.37-1.67,0-3.33-.02-5-.06-1.49-.04-3.19,0-4.49-.84-2.48-1.6-1.97-6.11-1.04-8.47,1.14-2.87,4.49-3.1,7.14-3.19,3.48-.11,6.96-.19,10.43-.29,7.78-.22,15.57-.44,23.35-.65,.64-.02,.64-1.02,0-1h0Z"/>
        </g>
        <path class="cls-10" d="M506.34,453.43c-1.77,4.22-1.87,8.83-2.01,13.33-.07,2.35-.11,4.71,.13,7.06s.82,4.5,1.46,6.71c1.28,4.45,2.02,8.88,1.68,13.52s-1.67,9.21-3.85,13.35c-.3,.57,.56,1.08,.86,.5,4.09-7.79,5.14-16.89,2.9-25.41-.61-2.31-1.39-4.59-1.8-6.95-.44-2.51-.46-5.07-.41-7.61,.11-4.79,.12-9.76,2.01-14.25,.25-.59-.72-.85-.96-.27h0Z"/>
      </g>
      <circle class="cls-2" cx="145.1" cy="365.9" r="12.1"/>
      <circle class="cls-2" cx="181.55" cy="304.24" r="12.1"/>
      <circle class="cls-2" cx="161.72" cy="333.81" r="12.1"/>
      <circle class="cls-2" cx="147.91" cy="363.88" r="12.1"/>
      <circle class="cls-2" cx="184.37" cy="302.22" r="12.1"/>
      <circle class="cls-2" cx="164.54" cy="331.8" r="12.1"/>
      <circle class="cls-2" cx="846.17" cy="314.72" r="12.1"/>
      <circle class="cls-2" cx="881.35" cy="377.12" r="12.1"/>
      <circle class="cls-2" cx="865.65" cy="345.16" r="12.1"/>
      <circle class="cls-2" cx="843.05" cy="311.29" r="12.1"/>
      <circle class="cls-2" cx="878.22" cy="373.7" r="12.1"/>
      <circle class="cls-2" cx="862.52" cy="341.74" r="12.1"/>
      <ellipse class="cls-5" cx="473.88" cy="156.22" rx="16.13" ry="6.19"/>
      <ellipse class="cls-5" cx="473.88" cy="175.6" rx="16.13" ry="6.19"/>
      <ellipse class="cls-5" cx="473.88" cy="161.17" rx="16.13" ry="6.19"/>
      <ellipse class="cls-5" cx="473.88" cy="180.55" rx="16.13" ry="6.19"/>
      <ellipse class="cls-5" cx="516.03" cy="157.68" rx="16.13" ry="6.19"/>
      <ellipse class="cls-5" cx="516.03" cy="177.06" rx="16.13" ry="6.19"/>
      <ellipse class="cls-5" cx="516.03" cy="161.17" rx="16.13" ry="6.19"/>
      <ellipse class="cls-5" cx="516.03" cy="180.55" rx="16.13" ry="6.19"/>
      <ellipse class="cls-5" cx="558.91" cy="157.54" rx="16.13" ry="6.19"/>
      <ellipse class="cls-5" cx="558.91" cy="176.92" rx="16.13" ry="6.19"/>
      <ellipse class="cls-5" cx="558.91" cy="161.17" rx="16.13" ry="6.19"/>
      <ellipse class="cls-5" cx="558.91" cy="180.55" rx="16.13" ry="6.19"/>
      <ellipse class="cls-2" cx="765.26" cy="320.02" rx="8.26" ry="6.76" transform="translate(63.49 762.24) rotate(-54.91)"/>
      <ellipse class="cls-2" cx="763.01" cy="318.3" rx="8.26" ry="6.76" transform="translate(63.94 759.66) rotate(-54.91)"/>
      <ellipse class="cls-2" cx="783.72" cy="342.61" rx="8.26" ry="6.76" transform="translate(52.85 786.94) rotate(-54.91)"/>
    </g>
  </g>
</svg>