<?xml version="1.0" encoding="utf-8"?>
<!-- Generator: Adobe Adobe Illustrator 24.2.0, SVG Export Plug-In . SVG Version: 6.00 Build 0)  -->
<svg version="1.1" xmlns="http://www.w3.org/2000/svg" xmlns:xlink="http://www.w3.org/1999/xlink" x="0px" y="0px" width="2900px"
	 height="1296px" viewBox="0 0 2900 1296" style="enable-background:new 0 0 2900 1296;" xml:space="preserve">
<style type="text/css">
	.st0{fill:#1C0AD0;}
	.st1{fill:#1C45D0;}
	.st2{fill:#1C75D0;}
	.st3{fill:#1C8CD0;}
	.st4{fill:#42A5E3;}
	.st5{fill:#B5E3FF;}
	.st6{fill:none;stroke:#FFFFFF;stroke-width:3;}
	.st7{fill:#FFFFFF;stroke:#FFFFFF;}
	.st8{fill:#FFFFFF;stroke:#FFFFFF;stroke-miterlimit:10;}
	.st9{font-family:'Helvetica';}
	.st10{font-size:26.2165px;}
	.st11{fill:#FFFFFF;}
	.st12{font-family:'DINCondensed-Bold';}
	.st13{font-size:36.7584px;}
	.st14{fill:#FFFFFF;stroke:#FFFFFF;stroke-width:3;}
	.st15{font-family:'DINAlternate-Bold';}
	.st16{font-size:32.8462px;}
	.st17{font-size:32.8456px;}
	.st18{font-size:32.8454px;}
	.st19{stroke:#FFFFFF;}
	.st20{font-size:32.8461px;}
	.st21{font-size:37.6712px;}
	.st22{fill:#2199E1;}
	.st23{fill:#89C932;}
	.st24{fill:#8AC933;}
	.st25{fill:#8AC932;}
	.st26{fill:#319FE7;}
	.st27{fill:#8BCA34;}
	.st28{fill:#8FCB37;}
	.st29{fill:#A6A6A6;}
	.st30{fill:#717171;}
	.st31{fill:#949494;}
	.st32{fill:#9A9A9A;}
	.st33{fill:#8D8D8D;}
	.st34{fill:#9D9D9D;}
	.st35{fill:#7C7C7C;}
	.st36{fill:#868686;}
	.st37{fill:#D5D5D5;}
	.st38{fill:#C5C6C5;}
	.st39{fill:#B5B5B5;}
	.st40{fill:#757575;}
	.st41{fill:#696969;}
	.st42{fill:#555757;}
	.st43{fill:#1E1E1E;}
	.st44{fill:#88C831;}
	.st45{fill:#269BE4;}
	.st46{fill:#94CD3F;}
	.st47{fill:#EFEFEE;}
	.st48{fill:#3A535C;}
	.st49{fill:#E9E9E9;}
	
		.st50{fill:none;stroke:#FFFFFF;stroke-width:2;stroke-linecap:round;stroke-linejoin:round;stroke-miterlimit:10;stroke-dasharray:15,10,15,10,15,10;}
	.st51{fill:none;stroke:#9D9D9D;stroke-width:0;stroke-linecap:round;stroke-linejoin:round;}
	.st52{fill:none;stroke:#949494;stroke-width:0;stroke-linecap:round;stroke-linejoin:round;}
	.st53{fill:none;stroke:#E9E9E9;stroke-width:0;stroke-linecap:round;stroke-linejoin:round;}
	.st54{fill:none;stroke:#EFEFEE;stroke-width:0;stroke-linecap:round;stroke-linejoin:round;}
	.st55{font-family:'MyriadPro-SemiCn';}
	.st56{font-size:60px;}
	.st57{font-family:'MyriadPro-Bold';}
	.st58{font-size:70px;}
</style>
<g id="Layer_2">
	<rect width="2900" height="1296"/>
</g>
<g id="Layer_1">
	<path id="undefined_-_Vostok_6" class="st0" d="M218.19,1028.53H953.5c8.59,0,15.56,6.97,15.56,15.56v98.88
		c0,8.59-6.97,15.56-15.56,15.56H218.19c-8.59,0-15.56-6.97-15.56-15.56v-98.88C202.63,1035.49,209.6,1028.53,218.19,1028.53z"/>
	<path id="undefined_-_Vostok_5" class="st1" d="M216.96,848.7h1317.57c7.92,0,14.33,6.42,14.33,14.33v101.33
		c0,7.92-6.42,14.33-14.33,14.33H216.96c-7.92,0-14.33-6.42-14.33-14.33V863.04C202.63,855.12,209.05,848.7,216.96,848.7z"/>
	<path id="undefined_-_Vostok_4" class="st2" d="M216.01,672.11h739.67c7.39,0,13.38,5.99,13.38,13.38v103.25
		c0,7.39-5.99,13.38-13.38,13.38H216.01c-7.39,0-13.38-5.99-13.38-13.38V685.49C202.63,678.1,208.62,672.11,216.01,672.11z"/>
	<path id="undefined_-_Vostok_3" class="st3" d="M214.12,500.47h967.65c7.5,0,13.58,6.08,13.58,13.58v102.83
		c0,7.5-6.08,13.58-13.58,13.58H214.12c-7.5,0-13.58-6.08-13.58-13.58V514.05C200.54,506.55,206.62,500.47,214.12,500.47z"/>
	<path id="undefined_-_Vostok_2" class="st4" d="M215.59,320.48h247.08c8.26,0,14.96,6.7,14.96,14.96v100.08
		c0,8.26-6.7,14.96-14.96,14.96H215.59c-8.26,0-14.96-6.7-14.96-14.96V335.43C200.63,327.17,207.33,320.48,215.59,320.48z"/>
	<path id="undefined_-_Vostok_1" class="st5" d="M208.61,140.5L208.61,140.5c4.41,0,7.98,3.57,7.98,7.98v114.03
		c0,4.41-3.57,7.98-7.98,7.98h0c-4.41,0-7.98-3.57-7.98-7.98V148.48C200.63,144.07,204.2,140.5,208.61,140.5z"/>
	<path class="st6" d="M197.29,1198.82v-11.57h1437.05v11.57"/>
	<g transform="translate(0,0)">
		<line class="st7" x1="196.87" y1="1188.51" x2="196.87" y2="1204.32"/>
		<text transform="matrix(0.7331 0 0 1 191.4414 1230.8705)" class="st8 st9 st10">0</text>
	</g>
	<g transform="translate(82.77777777777777,0)">
		<line class="st7" x1="273.98" y1="1188.51" x2="273.98" y2="1204.32"/>
		<text transform="matrix(0.7331 0 0 1 263.1768 1230.8705)" class="st8 st9 st10">10</text>
	</g>
	<g transform="translate(165.55555555555554,0)">
		<line class="st7" x1="351.09" y1="1188.51" x2="351.09" y2="1204.32"/>
		<text transform="matrix(0.7331 0 0 1 340.2946 1230.8705)" class="st8 st9 st10">20</text>
	</g>
	<g transform="translate(248.33333333333331,0)">
		<line class="st7" x1="428.2" y1="1188.51" x2="428.2" y2="1204.32"/>
		<text transform="matrix(0.7331 0 0 1 417.4035 1230.8705)" class="st8 st9 st10">30</text>
	</g>
	<g transform="translate(331.1111111111111,0)">
		<line class="st7" x1="505.31" y1="1188.51" x2="505.31" y2="1204.32"/>
		<text transform="matrix(0.7331 0 0 1 494.5085 1230.8705)" class="st8 st9 st10">40</text>
	</g>
	<g transform="translate(413.8888888888889,0)">
		<line class="st7" x1="582.42" y1="1188.51" x2="582.42" y2="1204.32"/>
		<text transform="matrix(0.7331 0 0 1 571.6229 1230.8705)" class="st8 st9 st10">50</text>
	</g>
	<g transform="translate(496.66666666666663,0)">
		<line class="st7" x1="659.53" y1="1188.51" x2="659.53" y2="1204.32"/>
		<text transform="matrix(0.7331 0 0 1 648.7269 1230.8705)" class="st8 st9 st10">60</text>
	</g>
	<g transform="translate(579.4444444444445,0)">
		<line class="st7" x1="736.65" y1="1188.51" x2="736.65" y2="1204.32"/>
		<text transform="matrix(0.7331 0 0 1 725.8475 1230.8705)" class="st8 st9 st10">70</text>
	</g>
	<g transform="translate(662.2222222222222,0)">
		<line class="st7" x1="813.76" y1="1188.51" x2="813.76" y2="1204.32"/>
		<text transform="matrix(0.7331 0 0 1 802.9496 1230.8705)" class="st8 st9 st10">80</text>
	</g>
	<g transform="translate(745,0)">
		<line class="st7" x1="890.87" y1="1188.51" x2="890.87" y2="1204.32"/>
		<text transform="matrix(0.7331 0 0 1 880.0635 1230.8705)" class="st11 st9 st10">90</text>
	</g>
	<text transform="matrix(1.8433 0 0 1 1468.8652 1174.3818)" class="st11 st12 st13">Órbitas </text>
	<path class="st14" d="M197.29,107.05v1080.2"/>
	<g transform="translate(0,46.73609044927109)">
		<line class="st7" x1="197.29" y1="157.79" x2="176.77" y2="157.79"/>
		<text transform="matrix(1.0361 0 0 1 35.2891 168.362)" class="st8 st15 st16">Vostok 1</text>
	</g>
	<g transform="translate(0,140.04165426956266)">
		<line class="st7" x1="197.29" y1="244.46" x2="176.77" y2="244.46"/>
		<text transform="matrix(1.0361 0 0 1 35.2847 255.0335)" class="st8 st15 st17">Vostok 2</text>
	</g>
	<g transform="translate(0,233.3472180898542)">
		<line class="st7" x1="197.29" y1="331.14" x2="176.77" y2="331.14"/>
		<text transform="matrix(1.0361 0 0 1 35.2837 341.7212)" class="st8 st15 st16">Vostok 3</text>
	</g>
	<g transform="translate(0,326.6527819101458)">
		<line class="st7" x1="191.84" y1="409.5" x2="171.31" y2="409.5"/>
		<text transform="matrix(1.0367 0 0 1 29.8397 420.0576)" class="st8 st15 st17">Vostok 4</text>
	</g>
	<g transform="translate(0,419.9583457304374)">
		<line class="st7" x1="192.32" y1="492.8" x2="171.79" y2="492.8"/>
		<text transform="matrix(1.0364 0 0 1 30.3361 503.3434)" class="st8 st15 st18">Vostok 5</text>
	</g>
	<line class="st19" x1="192.32" y1="1092.55" x2="171.85" y2="1092.55"/>
	<text transform="matrix(1.0348 0 0 1 30.3213 1103.1267)" class="st11 st15 st20">Vostok 6</text>
	<text transform="matrix(1.5576 0 0 1 191.228 82.8821)" class="st11 st12 st21">Misiones</text>
</g>
<g id="Layer_3">
	<g>
		<path class="st22" d="M2105.23,350.74c18.82-16.77,41.9-19.61,67.05-18.33c-2.41,12.64-6.15,23.56-10.99,37.67
			c3.32,5.95,10.74,7.01,20.66,1.51c7.87-4.36,17.13-6.38,24.64-11.2c12.52-8.04,30.42-13.13,24.33-34.54
			c30.4,4.96,60.81,9.92,91.46,16.79c-5.71,5.53-14.89,8.04-16.64,13.11c-1.47,4.26,5.7,11.5,9.04,17.42
			c8.11-7.95,22.77,10.48,28.23-6.83c1.42-4.49,0.58-9.7,0.78-14.58c3.75,2.67,7.51,5.34,11.98,10.14
			c0.04,9.84,2.21,21.81-1.83,24.49c-13.28,8.85-28.81,14.34-44.13,22.1c-15.87,12.47-16.62,17.01-5.97,32.25
			c-0.14,0.04,0.09-0.14,0.13,1.05c-0.54,7.97-1.22,14.74-1.68,21.53c-0.69,10.13-1.23,20.27-1.94,31.61
			c-5.57,14.01-17.33,28.07-15.07,39.32c3.77,18.71-1.3,41.03,15.5,56.26c11.49,10.42,23.1,20.72,34.9,30.78
			c1.23,1.05,4.18,0.18,6.32,0.08c21.16-0.95,41.11-11.01,63.8-3.41c12.28,4.12,16.37,8.76,12.32,18.72
			c-5.05,12.41-0.53,20.87,7.03,29.47c13.1,14.91,13.96,30.6,3.63,47.09c-6.76,10.79-12.71,22.17-6.41,35.78
			c-0.09,0.27-0.08,0.85-1.02,1.43c-1.58,0.93-2.23,1.28-3.5,1.07c-2.43-1.09-4.24-1.62-6.89-2.3c-1.92,0.15-2.99,0.45-4.81,0.36
			c-1.87-1.55-3.01-2.7-3.78-4.72c-0.62-2.71-1.61-4.55-2.89-7.53c-2.73-0.42-5.17,0.3-7.8,1.04c-0.2,0.02-0.46-0.27-1.61-0.24
			c-3.05,2.18-4.95,4.33-6.98,7.56c0.01,3.22,0.15,5.36,0.38,8.55c1.95,1.72,3.81,2.38,6.01,4.24c0.54,1.99,0.75,2.79,0.68,4.4
			c-0.27,1.94-0.27,3.07-0.14,5.29c1.21,3.72,2.3,6.36,3.2,9.69c-0.18,0.7,0.03,2.12-0.11,3.05c-0.15,1.56-0.16,2.19-0.24,2.81
			c-0.07-0.01-0.08,0.13-1.15,0.14c-7.04,5.5-13.02,11-20.01,16.7c-1.11,3.2-1.2,6.2-1.26,10.19c7.63,8.38,8.13,1.78,10.31-3.85
			c5.45-5.53,9.82-10.86,14.72-16.29c1.21-0.4,1.92-0.62,3.87-0.5c2.87,0.14,4.52,0.02,7.15,0.18c2.81,0.79,4.64,1.31,7.63,2.28
			c18.89,12.6,8.95,26.05,0.29,39.15c22.22,1.25,54.37-17.3,60.2-33.48c4.41-12.26,7.71-24.94,12.42-37.07
			c1.59-4.09,5.99-7.1,10.25-10.46c5.06,2.16,8.97,4.18,14.95,7.26c1.03-5.7,1.9-10.56,3.73-15.92c3.42-2.14,8.17-4.12,7.98-5.36
			c-1.45-9.7-3.86-19.26-5.9-30.36c2.66-23.94,4.68-46.48,8.16-68.79c1.19-7.66,6.04-14.74,9.22-22.09
			c2.29,5.67,6.19,11.21,6.64,17.02c9.2,120.27-69.44,252.22-179.94,301.2c-14.02,6.21-29.73,8.61-46.67,13.83
			c-15.53,1.33-30.03,4.89-42.34,1.18c-23.18-6.97-37.06,9.96-54.97,16.36c-15.67-5.05-33.8,2.69-48.27-9.47
			c-2.59-2.17-7.75-3.96-10.48-2.86c-18.95,7.63-35.5-1-52.15-7.2c-128.02-47.67-214.61-176.39-207.35-311.77
			c1.71-31.89,11.46-63.38,18.01-94.94c0.77-3.7,4.76-6.72,8.23-8.44c8.01,21.67,12.58,43.55,37.76,50.67
			c12.02-11.3,7.91-21.33-3.2-30.98c3.2-7.06,6.37-14.06,9.86-21.75c-9.41,1.18-17.05,2.13-24.9,3.11
			c2.43-26.61,25.02-48.7,46.46-46.21c0.91,5.92,1.84,11.95,3.33,21.67c14.11-16.83,26.02-30.56,37.39-44.72
			c9.36-11.65,17.92-23.93,27.17-35.66c3.32-4.21,8.24-11.36,11.41-10.85c23.58,3.81,30.72-22.34,49.96-26.65
			c3.37-0.76,4.25-12.56,6.29-19.26c-6.76-0.51-14.04-2.83-20.14-1.07c-6.99,2.02-12.6,8.4-19.45,11.44
			c-4.02,1.79-9.3,0.77-14.01,1.01c2.38-4.53,3.75-10.19,7.35-13.34C2088.74,361.36,2097.23,356.33,2105.23,350.74z M2122.25,792.01
			c2.93-3.84,5.24-10.21,8.9-11.12c34.6-8.52,38.75-13.61,40.87-48.96c0.42-7.01,3.05-16.65,8.07-20.07
			c11.82-8.04,12.68-17.61,10.19-29.63c-2.95-14.26-12.77-21.37-25.89-23.32c-15.02-2.23-30.3-2.92-45.5-3.65
			c-9.43-0.45-19.31-4.38-15.46-13.6c7.77-18.63-6.49-19.93-16.15-25.32c-13.57-7.57-28.98-12.78-40.74-22.46
			c-20.47-16.84-57.71-15.88-70.77,0.16c1.61,12.17,6.41,22.54,3.19,28.74c-10.89,20.95-9.73,41.9-5.17,63.45
			c4.76,22.48,11.49,44.01,29.76,60.05c6.25,5.49,13.33,11.69,16.19,19.05c5.8,14.91,8.43,31.02,13.38,46.31
			c7.58,23.46,13.97,47.65,24.81,69.58c7.27,14.7,22.06,24.9,42.58,27.9c-5.81-11.95-11.11-20.87-14.39-30.48
			c-1.55-4.54-0.96-11.55,1.64-15.47c13.38-20.17,15.83-46.16,34.16-63.63C2122.76,798.75,2122.12,796.38,2122.25,792.01z
			 M2000.85,537.14c4.81,0.84,9.62,1.67,16.48,2.87c-13.46-21.27-21.05-23.98-35.83-11.89
			C1987.75,531.38,1993.02,534.12,2000.85,537.14z M2153.47,939.62c1.91,2.71,3.82,5.42,5.73,8.13c0.78-0.64,1.56-1.27,2.34-1.91
			C2159.25,943.44,2156.97,941.04,2153.47,939.62z"/>
		<path class="st23" d="M2422.48,748.76c-6.38-13.33-0.44-24.72,6.32-35.5c10.33-16.49,9.48-32.18-3.63-47.09
			c-7.56-8.6-12.08-17.06-7.03-29.47c4.05-9.96-0.05-14.61-12.32-18.72c-22.69-7.61-42.64,2.46-63.8,3.41
			c-2.14,0.1-5.09,0.97-6.32-0.08c-11.81-10.06-23.41-20.36-34.9-30.78c-16.81-15.24-11.73-37.56-15.5-56.26
			c-2.27-11.25,9.5-25.31,16.08-39.84c6.03-7.18,11.65-12.14,15.69-18.16c10.38-15.47,49.06-27.92,65.79-20.21
			c3.12,1.44,5.07,5.24,8.07,7.13c6.13,3.86,12.23,8.59,19.02,10.38c10.17,2.68,20.9,3.4,31.45,4.41
			c5.55,0.53,11.22-0.08,16.84-0.18c-3.24-6.74-5.23-14.62-10.06-19.91c-5.63-6.17-13.75-10.08-20.78-14.96
			c6.57-8.05,10.93-16.44,10.03-17.05c-5.88-3.97-12.91-6.25-19.56-9.09c2.16,11.61,11.29,20.04-2.05,27.67
			c-6.14-5.02-11.67-9.54-20.16-16.47c1.42,10.15,2.24,15.97,3.05,21.79c-1.9,1.4-3.8,2.8-5.7,4.19c-1.13-3.07-1.69-6.53-3.47-9.16
			c-15.47-22.85-34.51-22.4-48.69,0.3c-2.61,4.17-8.61,6.85-13.6,8.8c-12.78,4.98-15.95-8.05-23.31-13.28c0,0-0.24,0.18-0.15-1.2
			c1.61-4.75,2.28-9.18,4.84-11.27c4.18-3.41,9.61-5.29,14.51-7.82c-4.22-4.27-8.45-8.53-12.67-12.8
			c14.67-6.78,30.19-12.27,43.48-21.12c4.03-2.69,1.87-14.66,2.55-23.36c1.83-14.94,9.02-4.42,12.15-2.83
			c52.45,26.66,95.4,64.61,124.8,115.35c15.61,26.93,24.83,57.55,34.77,86.92c-7.02-5.07-12.62-10.07-16.57-16.14
			c-9.24-14.19-17.13-29.27-26.75-43.17c-3.44-4.97-10.28-7.58-15.57-11.27c12.5,25.86,26.78,48.67,41.01,71.5
			c8.39,13.46,16.71,26.96,25.06,40.44c-0.13,2.91-0.26,5.82-0.17,10.17c-2.95,8.79-7.8,15.87-9,23.53
			c-3.48,22.31-5.5,44.85-9.19,69.43c-3.81,13.94-6.53,25.75-9.69,38.5c-4.02,2.33-7.6,3.71-11.18,5.09
			c-3.12,3.5-7.52,6.5-9.11,10.6c-4.71,12.14-8,24.81-12.42,37.07c-5.82,16.18-37.98,34.74-60.2,33.48
			c8.66-13.1,18.6-26.55-0.11-39.47c-0.98-0.78-0.17-1.99,1.13-1.82c4.76-4.78,8.22-9.74,11.63-14.65
			c-0.05,0.04-0.08,0.19,1.07-0.55c-0.64-4.53-2.43-8.31-4.42-12.16c-0.19-0.06-0.46-0.79-0.13-1.57c0.88-1.77,1.43-2.75,3.28-3.54
			c8.43-3.12,21.65,2.17,21.29-13.4c4.93-1.3,8.81-2.39,12.69-3.48c-0.12-1.86-0.24-3.72-0.36-5.58
			c-5.15-0.34-10.29-0.68-16.41-0.93c-3.26,2.09-5.54,4.09-8.52,6.98c-3.79,3.06-6.88,5.24-10.76,7.25
			C2424.08,748.63,2422.48,748.76,2422.48,748.76z"/>
		<path class="st24" d="M2105.24,349.34c-8.01,6.99-16.5,12.02-23.79,18.42c-3.59,3.15-4.97,8.81-7.35,13.34
			c4.71-0.24,9.98,0.77,14.01-1.01c6.85-3.04,12.46-9.42,19.45-11.44c6.1-1.76,13.38,0.55,20.14,1.07
			c-2.03,6.7-2.92,18.51-6.29,19.26c-19.24,4.31-26.38,30.47-49.96,26.65c-3.17-0.51-8.09,6.63-11.41,10.85
			c-9.25,11.73-17.82,24.01-27.17,35.66c-11.37,14.16-23.28,27.9-37.39,44.72c-1.49-9.72-2.42-15.75-3.33-21.67
			c-21.45-2.49-44.03,19.6-46.46,46.21c7.85-0.98,15.49-1.94,24.9-3.11c-3.48,7.69-6.66,14.69-9.86,21.75
			c11.12,9.65,15.22,19.68,3.2,30.98c-25.18-7.12-29.76-29-36.83-49.97c2.1-10.3,2.47-20.56,6.64-28.94
			c35.24-70.77,89.93-121.27,162.36-152.73C2098.86,348.19,2102.2,348.39,2105.24,349.34z"/>
		<path class="st25" d="M2229.75,325.34c7.26,21.92-10.64,27-23.15,35.04c-7.51,4.82-16.77,6.84-24.64,11.2
			c-9.93,5.5-17.35,4.44-20.66-1.51c4.83-14.1,8.58-25.02,12.03-36.54c3.5-2.92,7.16-6.96,11.11-7.27
			C2199.09,325.13,2213.86,325.21,2229.75,325.34z"/>
		<path class="st26" d="M2536.32,603.82c-9.26-13.47-17.58-26.97-25.97-40.43c-14.23-22.84-28.51-45.64-41.01-71.5
			c5.29,3.69,12.13,6.3,15.57,11.27c9.62,13.9,17.52,28.99,26.75,43.17c3.95,6.07,9.55,11.07,15.57,16.83
			C2531.35,576.89,2534.29,590.35,2536.32,603.82z"/>
		<path class="st27" d="M2219.39,965.34c16.72-6.7,30.59-23.63,53.77-16.66c12.31,3.7,26.81,0.15,41.65-0.16
			c0.19,1.5-0.79,4.2-2.13,4.39C2282.01,957.32,2251.29,961.45,2219.39,965.34z"/>
		<path class="st28" d="M2343.35,350.7c0.26,5.94,1.09,11.14-0.33,15.64c-5.46,17.3-20.12-1.12-28.23,6.83
			c-3.34-5.92-10.51-13.16-9.04-17.42c1.75-5.07,10.92-7.58,17.52-12.24C2330.23,344.86,2336.56,347.25,2343.35,350.7z"/>
		<path class="st29" d="M2759.21,483.65c0,0-0.74-0.85-0.62-2.43c-1.6-3.45-3.32-5.33-5.03-7.2c-1.37-3.79-2.75-7.58-3.04-13.36
			c7.01-5.8,12.93-9.61,18.86-13.42c0.98,9.11,1.96,18.22,1.71,29.1c-3.63,3.5-6.04,5.24-9.3,7.03
			C2760.35,483.5,2759.78,483.58,2759.21,483.65z"/>
		<path class="st30" d="M2769.6,446.07c-6.16,4.98-12.09,8.79-18.87,13.35c-1.87-6.37,0.54-16.07-12.9-15.7
			c1.57-2.78,3.78-4.11,7.3-5.54c12.18,0.99,20.02-3.09,25.04-13.5c2.21,0.01,3.47,0,4.73-0.01
			C2773.22,431.42,2771.53,438.16,2769.6,446.07z"/>
		<path class="st31" d="M1834.95,358.45c0.37-0.98,0.75-1.96,2.87-2.73c4.57,1.02,7.38,1.83,10.59,3.35c1.33,2,2.26,3.28,3.2,5.74
			c-0.04,1.95-0.09,2.73-0.61,3.7c-0.19,0.04,0.11-0.11,1.32-0.3c1.51-0.05,2.12-0.06,2.61-0.02c-0.11,0.05-0.12-0.19,0.11,0.54
			c0.72,1.68,1.45,2.38,3.92,2.84c3.52,0.02,5.54,0.04,8.08,0.13c1.41,0.56,2.2,1.17,3.02,2.93c-1.8,2.86-3.73,4.7-6.71,6.56
			c-2.34,2.2-3.63,4.38-5.63,6.84c-0.18,1.99,0.36,3.7,0.73,5.75c-0.17,0.33-0.47,1.02-0.47,1.02c-3.79-1.94-7.57-3.87-12.33-7.09
			c-0.98-1.28-0.98-2.44,0-2.7c4.11-10.46-6.19-11.09-10.4-17.41C1835.11,363.68,1835.03,361.07,1834.95,358.45z"/>
		<path class="st32" d="M2729.55,417.73c4.45-4.91,8.91-9.83,14.75-15.82c5.38-1.44,9.37-1.8,13.36-2.15
			c-0.56,0.95-1.04,1.93-1.71,4.87c-1.73,9.45-3.2,16.97-4.62,24.23c-1.74-1.61-3.99-3.69-7.66-7.09
			c-0.39,5.33-0.65,8.91-1.91,12.87c-14.58,4.64-11.48-3.19-9.32-11.32c-1-1.64-1.84-2.29-2.89-3.4
			C2729.55,419.2,2729.55,417.73,2729.55,417.73z"/>
		<path class="st33" d="M2749.98,368.84c3.74,1.4,7.47,2.8,11.97,4.49c0.67,6.06,1.41,12.8,0.37,20.44
			c-7.6-1.32-13.42-3.54-19.25-5.76c0.01-6.53,0.01-13.05,2.36-19.51C2748.5,368.66,2749.24,368.75,2749.98,368.84z"/>
		<path class="st34" d="M2742.75,434.27c0.26-3.58,0.52-7.16,0.91-12.49c3.68,3.4,5.93,5.48,7.66,7.09
			c1.42-7.27,2.9-14.79,4.55-23.42c1.75,0.01,3.32,1.12,5.82,3.73c3.13,6.16,5.33,10.82,7.53,15.48
			c-4.08,10.44-11.92,14.51-24.46,12.55C2742.99,435.64,2742.87,434.96,2742.75,434.27z M2762.03,424.51
			c-0.83,0.5-2.1,0.84-2.36,1.55c-0.21,0.58,0.78,1.6,1.24,2.42C2761.37,427.65,2761.83,426.83,2762.03,424.51z"/>
		<path class="st35" d="M1833.96,358.64c1.07,2.43,1.15,5.04,1.09,9.96c1.11,5.34,2.36,8.37,3.52,12.48
			c-0.13,2.54-0.17,3.98-0.21,5.43c-0.61,0.27-1.22,0.55-3.1,1.5c-1.26,0.67-2.57,0.46-3.84,0.45c-3.77,0.04-6.26,0.1-9.56-0.89
			c-2.32-1.87-3.84-2.71-5.35-3.55C1821.99,375.62,1827.48,367.22,1833.96,358.64z"/>
		<path class="st36" d="M1815.45,405.27c-2.02,3.91-3.47,8.35-6.37,11.42c-0.99,1.04-7.8-0.78-8.21-2.31
			c-1.31-4.79-1.89-10.34-0.69-15.06c0.8-3.15,5.13-5.41,9.41-7.11C1812.55,397.2,1814,401.24,1815.45,405.27z"/>
		<path class="st37" d="M1881.14,323.57c6.27,1.18,12.53,2.36,18.8,3.54c-3.14,3.82-6.29,7.64-10.78,10.35
			C1885.58,332.09,1883.36,327.83,1881.14,323.57z"/>
		<path class="st37" d="M2723.1,445.02c-2.31,1.07-4.62,2.14-6.92,3.21c-1.71-5.61-3.43-11.22-3.35-16.65
			c2.37-2.05,2.94-4.29,4.64-6.11c2.57,0.97,4.03,1.53,5.47,2.13c-0.01,0.05,0.08,0.07,0.09,1.32c-0.04,3.74-0.09,6.23-0.31,9.96
			C2722.73,441.75,2722.91,443.38,2723.1,445.02z"/>
		<path class="st36" d="M1879.97,323.96c3.39,3.87,5.61,8.13,7.96,13.59c-0.26,1.69-0.65,2.17-2.05,3.58
			c-2.25,0.87-3.48,0.82-5.06-0.08c-1.43-1.37-2.53-1.88-4.29-2.39c-0.67,0.01-2-0.03-2.24-0.56c-0.57-0.73-0.9-0.93-1.23-1.13
			c0.5,0.54,1.01,1.08,1.49,2.45c-0.01,1.38-0.01,1.94,0,2.49c0,0,0.01,0-1.18,0.07c-4.28-0.84-7.37-1.75-10.46-2.67
			C1868.22,334.33,1873.51,329.34,1879.97,323.96z"/>
		<path class="st33" d="M1816.19,404.35c-2.19-3.11-3.63-7.15-5.54-12.81c1.14-3.45,2.74-5.27,5.1-7.3c2.28,0.62,3.8,1.45,5.99,4.26
			c1.81,4.2,2.95,6.42,4.09,8.65C1822.86,399.24,1819.89,401.34,1816.19,404.35z"/>
		<path class="st38" d="M1864.42,381.18c1.93-1.84,3.85-3.68,6.51-6.48c1.29-0.9,1.85-0.84,2.41-0.78
			c4.35,5.45,8.7,10.9,10.99,16.95c-3.64,2.68-5.21,4.76-7.67,7.03c-1.48,0.12-2.07,0.06-2.67-0.01c-0.89-0.7-1.78-1.4-2.35-3.97
			c8.83-11.82,0.42-11.4-6.36-12.25C1864.95,381.6,1864.42,381.18,1864.42,381.18z"/>
		<path class="st39" d="M2724.13,444.95c-1.22-1.57-1.4-3.2-0.53-6.61c0.51-4.74-0.04-7.7-0.59-10.67c0,0-0.1-0.02-0.15-1.14
			c0.11-2.54,0.27-3.96,1.17-5.39c0.74-0.01,2.21-0.09,2.59,0.86c2.31,1.32,4.23,1.69,6.16,2.06c-2.51,7.4-5.61,15.24,8.97,10.6
			c1.12,0.31,1.24,0.99,1.72,2.65c-1.86,2.31-4.07,3.65-6.73,5.85C2732.6,444.31,2728.88,444.6,2724.13,444.95z"/>
		<path class="st32" d="M2770.18,424.68c-3.15-4.68-5.35-9.34-7.57-15.15c3.68-1.47,7.37-1.78,12.25-2.2
			c0.25,5.24,0.48,9.88,0.38,15.93C2773.65,424.68,2772.38,424.69,2770.18,424.68z"/>
		<path class="st40" d="M2742.87,389.31c6.03,0.92,11.85,3.14,18.93,5.42c0.14,1.61-0.99,3.17-3.12,4.88c-5.01,0.5-9,0.86-14.2,1.34
			C2743.06,397.59,2742.86,394.1,2742.87,389.31z"/>
		<path class="st32" d="M1865.61,381.74c6.45,0.78,14.86,0.36,6.06,11.25c-4.42,1.91-8.54,2.88-13.18,2.84
			c-0.51-1.02-0.2-1.71,0.75-2.23c1.29-2.08,1.62-3.64,2.75-5.67C1863.73,385.55,1864.67,383.64,1865.61,381.74z"/>
		<path class="st40" d="M1877.84,351.79c-2.67,3.16-5.35,6.33-9.7,9.77c-1.68,0.28-2.98,0.31-3.1-0.96
			c-0.19-3.81-0.26-6.35-0.34-8.84c-0.02,0.05-0.1,0.09,0.79-0.07c1.42-1.2,1.95-2.24,3.64-3.3c2.61,0.51,4.06,1.04,5.99,1.96
			C1876.28,351.23,1877.02,351.58,1877.84,351.79z"/>
		<path class="st34" d="M2716.34,425.06c-0.58,2.23-1.15,4.47-2.51,6.29c-1.32-5.31-1.86-10.21-2.4-15.12
			c1.43,1.06,2.86,2.11,4.61,4.77C2716.45,423.43,2716.45,424.24,2716.34,425.06z"/>
		<path class="st41" d="M1827.08,397.35c-2.4-2.43-3.54-4.66-4.55-7.82c2.63-0.99,5.12-1.04,8.68-0.32c1.7,1.77,2.61,2.2,3.79,2.06
			C1832.78,393.37,1830.56,395.47,1827.08,397.35z"/>
		<path class="st42" d="M2751.1,368.66c-1.86,0.09-2.6,0-4.43-0.27c2.44-2.81,5.97-5.44,9.51-8.07c0.72,0.56,1.44,1.13,2.16,1.69
			C2756.3,364.17,2754.26,366.33,2751.1,368.66z"/>
		<path class="st30" d="M1878.87,351.65c-1.84-0.07-2.59-0.42-3.86-2.66c-0.54-3.53-0.49-5.31-0.43-7.08c0,0-0.01,0,0.84,0.09
			c1.42,0.06,1.99,0.04,2.52-0.02c-0.04-0.04,0-0.02,0.24,0.65c1.15,0.21,2.07-0.25,2.99-0.71c0,0,0.01-0.01,0.01-0.01
			c1.24,0.05,2.47,0.1,4.64,0.16C1884.46,345.22,1882.18,348.36,1878.87,351.65z"/>
		<path class="st41" d="M1865.16,361.88c0,0,1.29-0.04,1.93-0.14c2.26,3.4,3.87,6.89,5.87,11.28c-0.18,0.83-0.74,0.77-2.15,0.65
			c-1.55-0.8-2.34-1.41-4.57-2.81c-2.66-3.63-3.97-6.34-4.23-9.08C1863.76,361.8,1864.46,361.84,1865.16,361.88z"/>
		<path class="st36" d="M1841.53,351.8c2.03-2.26,4.06-4.52,6.46-4.67c0.33,2.97,0.28,3.84-0.88,4.7
			C1844.51,351.8,1843.02,351.8,1841.53,351.8z"/>
		<path class="st39" d="M2762.65,483.32c2.4-1.74,4.81-3.48,8.01-5.57c1.75,1.39,2.7,3.14,1.66,5.4
			C2767.77,483.53,2765.21,483.42,2762.65,483.32z"/>
		<path class="st29" d="M1873.38,341.99c1.14,1.7,1.09,3.47,1.14,6.61c-1.34,0.84-2.79,0.31-5.4-0.16c-1.16,0.06-1.14,0-1.24-0.78
			c-0.52-1.87-1.31-2.48-2.72-3.05c-0.25-0.42-0.79-1.25-0.79-1.25c-0.65-0.82-1.31-1.65-1.71-3.25
			C1866.01,340.23,1869.1,341.15,1873.38,341.99z"/>
		<path class="st34" d="M2726.25,421.05c0,0-1.47,0.08-3.12,0.05c-2.26-0.04-2.87-0.04-3.48-0.05c2.65-1.25,5.29-2.49,8.92-3.53
			c0.98,0.21,0.98,1.68,0.16,2.57C2727.35,421.01,2726.8,421.03,2726.25,421.05z"/>
		<path class="st35" d="M1840.7,352.05c2.32-0.25,3.81-0.25,6.49,0.72c1.16,1.6,1.12,2.24,1.17,3.57c0.09,0.69-0.34,2.02-0.34,2.02
			c-2.82-0.81-5.63-1.61-9.43-2.95C1838.36,354.02,1839.12,353.16,1840.7,352.05z"/>
		<path class="st39" d="M2752.77,474.54c2.5,1.36,4.22,3.23,5.91,6.13C2756.43,479.48,2754.21,477.26,2752.77,474.54z"/>
		<path class="st42" d="M1848.27,355.65c0.04-0.64,0.08-1.27,0.04-2.86c-0.03-1.82,0.01-2.69,0.01-4.87
			c1.41-0.72,2.86-0.13,5.43,0.55c1.12,0.09,0.93,0.17,0.92,1.43c0.02,2.94,0.04,4.61-0.97,5.89
			C1851.19,355.49,1849.73,355.57,1848.27,355.65z"/>
		<path class="st43" d="M1874.27,398.82c0.31-0.87,0.91-0.81,3.17-0.73c1.67,0.01,3.28-0.16,3.28-0.16c-0.8,1.97-1.6,3.95-3.67,5.85
			c-1.27-0.07-1.43-0.59-1.43-0.59C1875.26,402.05,1874.91,400.9,1874.27,398.82z"/>
		<path class="st31" d="M2718.82,421.36c1.43-0.3,2.04-0.3,3.56-0.25c0.75,1.46,0.59,2.88,0.49,5.38c-1.39,0.51-2.85-0.04-5.42-1.01
			c-1.01-1.23-1.01-2.04-1.14-3.49C2716.85,421.45,2717.43,421.56,2718.82,421.36z"/>
		<path class="st42" d="M1881.33,397.2c-0.61,0.73-2.22,0.91-3.01,0.71c0.79-2.28,2.37-4.35,5.04-6.48
			C1883.62,393.07,1882.78,394.77,1881.33,397.2z"/>
		<path class="st40" d="M2759.11,492.94c-0.82,0.48-1.63,0.96-2.45,1.44c0.59-1.24,1.18-2.47,2.01-3.58
			c0.23,0.13,0.45,1.5,0.49,1.66C2759.2,492.62,2759.11,492.94,2759.11,492.94z"/>
		<path class="st42" d="M2761.78,483.37c3.43,0.05,5.99,0.16,9.85,0.29c1.38,0.69,1.48,1.34,0.54,2.68
			c-1.69,0.67-2.34,0.67-3.73,0.59c-0.73-0.07-2.21-0.1-3.37-0.16c-2.68,0.01-4.21,0.08-5.73,0.15c0,0-0.23-1.63-0.18-2.45
			C2759.78,483.58,2760.35,483.5,2761.78,483.37z"/>
		<path class="st30" d="M1839.26,387.22c-0.86-2.16-0.82-3.61,0.12-5.55c2.36,0.87,3.82,2.23,5.29,3.6c0,0,0,1.16,0.01,1.73
			C1843.17,387.7,1841.67,387.82,1839.26,387.22z"/>
		<path class="st30" d="M2766.23,486.83c0,0,1.47,0.03,2.54,1.02c2.3,1.04,3.52,1.09,4.75,1.14c-2.63,1.37-5.27,2.75-7.81,2.14
			C2765.95,488.37,2766.09,487.6,2766.23,486.83z"/>
		<path class="st30" d="M1859.66,346.41c1.04-1.14,2.09-2.28,3.92-3.24c0.79,0.18,1.33,1.01,1.29,2.2c-0.04,1.19-0.44,2.76-0.49,3.7
			c0.03,1.56,0.12,2.17,0.2,2.79c0,0,0.08-0.05-0.92-0.02c-2.53-1.11-4.05-2.26-5.14-3.88
			C1858.96,347.48,1859.66,346.41,1859.66,346.41z"/>
		<path class="st39" d="M2765.07,486.77c1.02,0.82,0.88,1.59-0.11,3.18c-0.85,0.82-0.79,0.61-2.19,0.63
			c-2.15,0.59-2.9,1.16-3.65,1.73c0,0-0.22-1.37-0.05-2.04c0.17-0.67-0.06-2.02,0.1-2.68
			C2760.86,486.85,2762.39,486.79,2765.07,486.77z"/>
		<path class="st38" d="M1876.01,403.87c-0.25,0.16-0.73,0.17-0.8-0.25C1875.61,403.19,1875.77,403.72,1876.01,403.87z"/>
		<path class="st39" d="M2773.55,488.59c-1.25,0.34-2.48,0.29-4.04-0.68c0.32-0.91,0.98-0.9,2.56-0.58
			C2773,487.65,2773.57,488.2,2773.55,488.59z"/>
		<path class="st30" d="M2759.16,492.47c0.71-0.73,1.46-1.3,3.62-1.99c0.48,1.07-0.44,2.27-2.52,2.96
			C2759.11,492.94,2759.2,492.62,2759.16,492.47z"/>
		<path class="st30" d="M1854.91,348.65c1.13-1.1,2.22-2.3,4.03-2.87c0.72,0.63,0.02,1.7-1.27,2.16c-1.86,0.54-2.43,0.62-2.99,0.7
			C1854.68,348.64,1854.87,348.56,1854.91,348.65z"/>
		<path class="st37" d="M1835.16,390.7c-1.34,0.72-2.25,0.29-2.68-1.48c0.21-0.76,1.52-0.54,2.17-0.42S1835.32,390.13,1835.16,390.7
			z"/>
		<path class="st44" d="M2122.21,793.37c-0.09,3.01,0.55,5.38-0.3,6.19c-18.32,17.47-20.77,43.46-34.16,63.63
			c-2.6,3.92-3.19,10.93-1.64,15.47c3.28,9.61,8.58,18.53,14.39,30.48c-20.52-3.01-35.31-13.2-42.58-27.9
			c-10.84-21.93-17.23-46.12-24.81-69.58c-4.94-15.29-7.57-31.4-13.38-46.31c-2.86-7.36-9.94-13.56-16.19-19.05
			c-18.27-16.05-25-37.57-29.76-60.05c-4.56-21.55-5.72-42.5,5.17-63.45c3.23-6.21-1.57-16.57-3.19-28.74
			c13.05-16.04,50.3-17,70.77-0.16c11.77,9.68,27.17,14.9,40.74,22.46c9.66,5.39,23.92,6.69,16.15,25.32
			c-3.85,9.23,6.03,13.15,15.46,13.6c15.2,0.73,30.48,1.42,45.5,3.65c13.12,1.94,22.94,9.06,25.89,23.32
			c2.49,12.02,1.62,21.6-10.19,29.63c-5.02,3.42-7.65,13.06-8.07,20.07c-2.12,35.34-6.27,40.43-40.87,48.96
			C2127.49,781.79,2125.18,788.17,2122.21,793.37z"/>
		<path class="st45" d="M2303.98,441.8c7.33,4.03,10.5,17.06,23.27,12.08c4.99-1.95,10.99-4.62,13.6-8.8
			c14.18-22.7,33.22-23.16,48.69-0.3c1.78,2.63,2.34,6.09,3.47,9.16c1.9-1.4,3.8-2.8,5.7-4.19c-0.81-5.82-1.63-11.64-3.05-21.79
			c8.49,6.94,14.02,11.46,20.16,16.47c13.33-7.63,4.21-16.06,2.05-27.67c6.65,2.84,13.68,5.12,19.56,9.09
			c0.9,0.61-3.46,9-10.03,17.05c7.04,4.89,15.15,8.79,20.78,14.96c4.83,5.29,6.82,13.18,10.06,19.91
			c-5.62,0.1-11.28,0.72-16.84,0.18c-10.55-1.01-21.28-1.74-31.45-4.41c-6.79-1.79-12.9-6.52-19.02-10.38
			c-3-1.89-4.95-5.69-8.07-7.13c-16.73-7.71-55.4,4.74-65.79,20.21c-4.04,6.02-9.67,10.99-15.59,16.95
			c-0.41-9.61,0.13-19.75,0.82-29.88C2302.76,456.54,2303.44,449.77,2303.98,441.8z"/>
		<path class="st45" d="M2309.83,408.49c4.88,3.29,9.1,7.56,13.33,11.83c-4.9,2.53-10.33,4.41-14.51,7.82
			c-2.57,2.09-3.24,6.52-4.7,11.23C2293.21,425.5,2293.96,420.96,2309.83,408.49z"/>
		<path class="st46" d="M1999.57,537c-6.55-2.88-11.81-5.62-18.07-8.88c14.78-12.09,22.38-9.38,35.83,11.89
			C2010.47,538.82,2005.66,537.98,1999.57,537z"/>
		<path class="st26" d="M2507.82,744.52c2.72-11.81,5.44-23.62,9.18-36.07c3.13,8.96,5.54,18.52,6.99,28.22
			c0.19,1.24-4.56,3.22-9.25,5.38C2510.94,743.22,2509.38,743.87,2507.82,744.52z"/>
		<path class="st36" d="M2372.77,800.35c5.98-5.5,11.96-10.99,19.12-15.26c1.82,2.69,2.47,4.15,3.11,5.61
			c-4.37,5.33-8.74,10.66-14.56,15.77c-1.45-0.22-2.33-0.91-2.35-1.01c-0.01-0.09-0.43,0-1.42-0.67
			C2374.71,802.87,2373.74,801.61,2372.77,800.35z"/>
		<path class="st34" d="M2507.37,745.46c2.01-1.59,3.57-2.24,6.41-2.91c0.4,4.84-0.47,9.7-1.5,15.4c-5.97-3.08-9.89-5.1-14.95-7.26
			C2499.77,749.17,2503.35,747.79,2507.37,745.46z"/>
		<path class="st39" d="M2402.05,745.74c1.14,1.15,2.27,2.3,4,4.11c0.59,0.67,0.08,1-1.13,0.78c-1.98,0.07-2.75,0.36-4.27,1.24
			c-2.48,1.18-4.22,1.76-6.79,2.58c-1.98,0.26-3.13,0.27-4.41-1.11c-0.07-2.32,0-3.25,0.38-4.91c1.97-1.91,3.63-3.09,6.49-4.22
			C2399.03,744.77,2400.54,745.25,2402.05,745.74z"/>
		<path class="st29" d="M2395.53,790.6c-1.18-1.37-1.82-2.83-2.58-5.52c-0.11-1.23-0.1-1.37,0.72-1.48c1.1-0.55,1.7-1.2,1.58-1.38
			c-0.54-0.82-1.28-1.51-1.96-2.24c0,0-0.22-1.42,0.97-2.13c2.53-0.72,3.88-0.73,5.44,0.02c0.81,1.8,1.71,2.24,2.56,3.1
			c-1.59,3.64-2.84,6.26-4.09,8.87C2397.44,789.98,2396.74,790.2,2395.53,790.6z"/>
		<path class="st47" d="M2395.13,744.18c-1.66,1.18-3.33,2.36-6.03,4.85c-1.64,1.43-2.25,1.55-2.84,0.64
			c0.08-2.42,0.14-3.8,1.07-5.73c1.89-2.31,2.91-4.07,3.93-5.83c0,0,0.27,0.3,1.31,0.81c2.26,1.04,3.47,1.56,4.17,2.9
			C2395.87,743.14,2395.5,743.66,2395.13,744.18z"/>
		<path class="st41" d="M2371.76,800.55c1.98,1.05,2.95,2.31,4.81,4.25c0.89,0.68,1.1,0.72,0.42,1.6c-2.63,1.7-4.58,2.52-6.54,3.34
			C2370.56,806.75,2370.66,803.76,2371.76,800.55z"/>
		<path class="st38" d="M2154.08,939.13c2.89,1.91,5.18,4.31,7.46,6.71c-0.78,0.64-1.56,1.27-2.34,1.91
			C2157.29,945.04,2155.38,942.33,2154.08,939.13z"/>
		<path class="st35" d="M2370.5,810.74c1.91-1.81,3.86-2.63,6.6-4.33c0.79-0.88,1-0.85,1-0.85s0.88,0.7,1.25,1.12
			C2378.63,812.52,2378.13,819.12,2370.5,810.74z"/>
		<path class="st40" d="M2425.63,757.74c-0.55,0.99-1.09,1.97-2.81,3.1c-1.81-0.13-2.44-0.4-3.41-1.5
			c-1.35-2.29-2.36-3.76-2.89-5.49c1.2-0.55,1.7-1.05,2-1.76c0.65-0.35,1.29-0.7,3.17-0.91c1.7,1.13,2.47,1.78,3.72,3.19
			C2425.6,756.24,2425.61,756.99,2425.63,757.74z"/>
		<path class="st48" d="M2399.49,777.11c-1.35,0.01-2.69,0.02-5.04,0.04c-2.09-2.63-3.17-5.27-3.41-8.82
			c2.15-0.86,3.44-0.8,4.86-0.79c0.12-0.04,0.04-0.28,0.21,0.8c1.19,3.7,2.22,6.31,3.28,8.89
			C2399.43,777.2,2399.49,777.11,2399.49,777.11z"/>
		<path class="st36" d="M2399.4,790.1c0.03-2.88,1.27-5.49,2.96-9.02c0.43-0.91,0.33-0.64,1.18-0.56c1.43,0.99,2.01,1.89,2.51,3.92
			c-0.21,2.6-0.34,4.08-0.47,5.57C2403.92,790.12,2402.27,790.24,2399.4,790.1z"/>
		<path class="st48" d="M2406.55,790.28c-0.85-1.76-0.72-3.24,0.27-5.63c0.86-0.91,2.47-0.82,2.95-0.05
			c1.49,1.43,2.51,2.08,3.77,2.69c0.25-0.04,0.74-0.16,0.45,0.62s0.2,2.35,0.2,2.35s-0.81,1.22-1,1.53
			C2411.18,791.58,2409.36,791.07,2406.55,790.28z"/>
		<path class="st35" d="M2396.32,744.23c-0.82-0.57-0.46-1.09,0.98-2.68c1.72-1.62,2.2-2.28,2.52-3.07c0.99,1.83,1.98,3.67,2.6,6.38
			C2400.54,745.25,2399.03,744.77,2396.32,744.23z"/>
		<path class="st38" d="M2406.79,750.25c1.22-0.57,2.3-0.88,4.53,0.28c1.19,2.36,1.23,3.25,1.39,4.52c0.12,0.37-0.57,1.7-1.72,1.42
			c-2.38-2.06-3.62-3.84-4.85-5.62C2406.13,750.85,2406.64,750.52,2406.79,750.25z"/>
		<path class="st48" d="M2389.59,754.74c1.15-0.01,2.3-0.02,4.43,0.83c1.29,2.31,1.6,3.76,1.97,5.09c0.06-0.11-0.17-0.24-1.12-0.25
			c-2.1,0.55-3.25,1.11-4.39,1.66c-0.2-0.8-0.41-1.6-0.78-4.22C2389.52,756.04,2389.59,754.74,2389.59,754.74z"/>
		<path class="st32" d="M2390.2,762.88c1.42-1.36,2.57-1.92,4.85-1.28c1,2.8,0.87,4.39,0.73,5.98c-1.3-0.06-2.59-0.11-4.87-0.33
			C2389.93,765.95,2389.93,764.82,2390.2,762.88z"/>
		<path class="st35" d="M2389.45,753.35c0.14,1.39,0.07,2.69-0.1,3.31c-2.03-0.04-3.89-0.71-5.16-2.55
			c1.44-1.68,1.93-2.42,2.05-3.41c0.61-0.12,1.21-0.25,2.55-0.95C2389.46,750.1,2389.39,751.03,2389.45,753.35z"/>
		<path class="st48" d="M2412.58,754.68c-0.03-0.89-0.07-1.79-0.42-3.99c1.49-0.78,3.3-0.25,5.73,0.84
			c0.33,1.28-0.18,1.77-2.27,2.27C2413.69,754.25,2413.14,754.46,2412.58,754.68z"/>
		<path class="st39" d="M2386.26,749.67c-0.13,2.03-0.62,2.77-2.16,3.4c-0.81-2.02-0.95-4.16-0.17-7.49
			c0.93-1.19,2.54-1.09,2.54-1.09C2386.4,745.87,2386.34,747.25,2386.26,749.67z"/>
		<path class="st35" d="M2387.33,743.93c-0.86,0.55-2.48,0.45-3.28,0.57c1.1-2.04,3-4.19,6.05-6.37
			C2390.24,739.86,2389.21,741.62,2387.33,743.93z"/>
		<path class="st34" d="M2399.52,737.34c-0.02,1.93-0.51,2.6-1.72,3.41c-1.77-0.27-2.98-0.79-5.04-1.85
			C2394.36,737.63,2396.79,736.91,2399.52,737.34z"/>
		<path class="st48" d="M2425.2,753.26c-1.06-0.3-1.83-0.95-2.59-2.66c-0.29-0.72-0.3-1.3-0.21-1.57s1.68-0.4,2.41,0.47
			C2425.5,751.35,2425.39,752.31,2425.2,753.26z"/>
		<path class="st36" d="M2393.15,780.91c0.82-0.2,1.56,0.49,2.1,1.31c0.12,0.18-0.49,0.83-1.51,1.39
			C2392.99,783.1,2393,782.47,2393.15,780.91z"/>
		<path class="st32" d="M2415.49,790.42c-1.3-0.17-1.78-1.74-0.45-2.89c1.7-2.68,2.06-4.22,2.42-5.76
			c-1.39,1.85-2.78,3.71-4.17,5.56c-1.01-0.65-2.03-1.31-3.37-3.86c-1.89-5.24-3.45-8.58-3.83-12.24c5.01-1.51,8.84-2.69,13.48-3.49
			c2.5,1,4.18,1.63,6.28,3.8c0.81,2.54,1.18,3.54,1.59,4.47c0.03-0.08-0.27-0.27-0.27-0.27
			C2423.72,780.68,2420.25,785.64,2415.49,790.42z"/>
		<path class="st35" d="M2425.39,754.37c0-2.07,0.11-3.03,0.2-4.72c3.15-2.89,6.24-5.07,11.03-8c4.17,0.35,6.65,1.45,9.49,2.68
			c0.36,0.12,1.06,0.42,1.06,0.42c1.41,15.35-11.82,10.06-20.24,13.18C2425.61,756.99,2425.6,756.24,2425.39,754.37z"/>
		<path class="st31" d="M2445.11,734.45c5.15,0.34,10.29,0.69,15.44,1.03c0.12,1.86,0.24,3.72,0.36,5.58
			c-3.88,1.09-7.76,2.18-12.69,3.48c-1.04,0.21-1.75-0.09-2.26-1.43C2445.33,739.33,2445.22,736.89,2445.11,734.45z"/>
		<path class="st41" d="M2444.14,734.55c1.08,2.34,1.19,4.78,1.46,8.44c-2.33,0.12-4.81-0.98-8.29-2.22
			C2438.6,738.64,2440.89,736.65,2444.14,734.55z"/>
		<path class="st40" d="M2427.42,776.08c-0.38-1-0.76-2-1.52-5.73c-0.9-4.23-1.42-5.73-1.93-7.23c1.79,3.79,3.58,7.57,4.33,12.09
			C2427.26,775.94,2427.42,776.08,2427.42,776.08z"/>
		<path class="st47" d="M2423.78,763.05c0.71,1.56,1.23,3.06,1.7,5.75c-1.72,0.56-3.4-0.06-6.12-1.8c-1.6-1.98-2.15-2.84-1.93-4.48
			c1.29-1.3,1.8-1.82,2.31-2.34c0.63,0.27,1.27,0.54,2.74,1.45C2423.31,762.26,2423.58,762.99,2423.78,763.05z"/>
		<path class="st47" d="M2427.45,776c-0.03,0.08-0.19-0.06-0.3-0.05c-0.11,0.01-0.08-0.14-0.02-0.18
			C2427.18,775.72,2427.48,775.92,2427.45,776z"/>
		<path class="st49" d="M1848.37,356.34c1.37-0.77,2.82-0.85,5.49,0.07c1.76,1.76,2.51,2.1,3.86,2.88c1.49,1.47,2.56,2.07,3.57,2.55
			c-0.07-0.13-0.33-0.03-0.33-0.03c1.31,2.71,2.62,5.43,4.75,8.98c-1.2,0.82-3.21,0.81-6.64-0.1c-2.36-1.49-3.3-2.09-4.24-2.69
			c0,0,0.01,0.24-0.16-0.74c-1.12-1.86-2.08-2.74-3.04-3.61c-0.94-1.29-1.87-2.58-3.2-4.57
			C1848.03,358.36,1848.46,357.04,1848.37,356.34z"/>
		<path class="st49" d="M1845.65,385.01c-2.44-1.11-3.91-2.47-6.18-4.43c-2.06-3.62-3.3-6.65-4.35-10.68
			C1839.46,373.92,1849.76,374.56,1845.65,385.01z"/>
		<path class="st49" d="M1865.28,381.67c-0.61,1.98-1.55,3.88-4,6.2c-1.51,0.42-2.83-0.12-2.83-0.12c1.28-2.18,2.57-4.36,4.91-6.56
			C1864.42,381.18,1864.95,381.6,1865.28,381.67z"/>
		<path class="st30" d="M1857.73,388.03c0.72-0.28,2.04,0.26,2.75,0.31c0.38,1.61,0.04,3.18-1.07,4.92
			C1858.08,391.74,1857.54,390.03,1857.73,388.03z"/>
		<path class="st40" d="M1851.62,364.81c0.95-0.29,1.91,0.58,3.14,2.39c-0.32,0.94-0.93,0.96-2.42,1.03
			c-0.89,0.06-0.85,0.09-0.85,0.09C1851.54,367.54,1851.58,366.76,1851.62,364.81z"/>
		<path class="st40" d="M1851.43,368.27c-0.31,0.13-0.61,0.28-0.43,0.24C1851.49,368.32,1851.45,368.29,1851.43,368.27z"/>
		<path class="st40" d="M1855.05,368.73c0.71-0.13,1.65,0.46,2.5,1.95C1856.49,371.11,1855.77,370.41,1855.05,368.73z"/>
		<path class="st30" d="M2726.63,422c0.17-0.97,0.72-0.99,2.09-1.17c1.87,0.21,2.72,0.86,3.72,2.5
			C2730.86,423.68,2728.93,423.31,2726.63,422z"/>
		<path class="st32" d="M2762.16,425.25c-0.33,1.57-0.79,2.4-1.25,3.22c-0.46-0.82-1.45-1.84-1.24-2.42
			C2759.93,425.35,2761.2,425,2762.16,425.25z"/>
		<path class="st31" d="M2723.03,428.92c0.54,1.72,1.09,4.68,0.75,8.19C2722.93,435.15,2722.99,432.66,2723.03,428.92z"/>
		<path class="st29" d="M1874.58,338.6c-0.5-0.54-1.01-1.08-1.51-1.62c0.33,0.2,0.66,0.4,1.24,1.12
			C1874.56,338.61,1874.58,338.6,1874.58,338.6z"/>
		<path class="st29" d="M1877.96,342.01c-0.57,0.02-1.14,0.05-2.56-0.01c-0.86-0.64-0.86-1.19-0.85-2.58c0.02-0.83,0-0.81-0.01-0.8
			c-0.01,0.01,1.33,0.05,2.29,0.86C1877.86,340.86,1877.91,341.44,1877.96,342.01z"/>
		<path class="st30" d="M1877.92,341.98c-0.01-0.54-0.07-1.12-0.42-2.51c0.8-0.3,1.89,0.21,3.32,1.58c0.34,0.85,0.33,0.86-0.48,0.88
			c-0.81,0.02-2.42,0.03-2.42,0.03S1877.88,341.94,1877.92,341.98z"/>
		<path class="st34" d="M1857.31,358.42c-0.94,0.08-1.68-0.25-2.4-1.62c-0.19-2.29-0.22-3.96-0.24-6.9
			c0.57-1.35,1.14-1.43,2.57-1.49c2.38,1.17,3.91,2.31,6.45,3.38c1.09,2.46,1.15,5,1.34,8.81c-0.57,1.24-1.27,1.2-3.02,1.18
			c-1.05,0.02-0.78-0.08-1.02-0.88C1859.61,359.54,1858.46,358.98,1857.31,358.42z"/>
		<path class="st34" d="M1865.48,351.69c-0.98-0.45-1.06-1.07-0.21-2.49c1.53-0.79,2.12-0.77,2.71-0.76c0,0-0.02,0.06-0.03,0.02
			C1867.43,349.45,1866.9,350.49,1865.48,351.69z"/>
		<path class="st36" d="M1878.16,342.63c-0.24-0.66,1.38-0.68,2.18-0.7C1880.23,342.38,1879.32,342.83,1878.16,342.63z"/>
		<path class="st36" d="M1867.89,347.66c-0.49,0.77-1.09,0.75-2.56,0.6c-0.88-0.13-0.48-1.71-0.19-2.47
			C1866.57,345.17,1867.36,345.79,1867.89,347.66z"/>
		<path class="st22" d="M2378.09,805.46c0.01,0.09-0.2,0.07-0.31,0.07s-0.32-0.04-0.22-0.05S2378.08,805.37,2378.09,805.46z"/>
		<path class="st36" d="M2395.9,767.55c0.02-1.55,0.15-3.15,0.1-5.93c-0.18-1.19,0.05-1.07,1.01-1.34c2.1-3.18,3.24-6.08,4.38-8.99
			c0.77-0.29,1.54-0.58,3.52-0.65c2.45,2,3.68,3.77,5.28,6.69c0.04,1.83-0.3,2.52-1.38,3.74c-2.29,2.31-3.84,4.1-6.63,6
			c-2.91,0.15-4.58,0.17-6.25,0.2C2395.94,767.27,2396.02,767.5,2395.9,767.55z"/>
		<path class="st47" d="M2400.65,751.88c-0.39,2.31-1.53,5.21-3.7,8.51c-1.34-1.06-1.64-2.5-2.1-5.06
			C2396.43,753.63,2398.17,753.05,2400.65,751.88z"/>
		<path class="st48" d="M2402.7,780.05c-1.29,0.06-2.18-0.38-2.99-2.19c-0.21-0.76-0.28-0.67,0.54-0.5c1.36,1.14,1.9,2.11,2.44,3.08
			C2402.69,780.44,2402.79,780.17,2402.7,780.05z"/>
		<path class="st47" d="M2409.57,760.53c0.33-0.69,0.67-1.38,1.78-2.93c0.78-0.86,1.47-2.18,1.35-2.55c0.43-0.59,0.99-0.8,2.44-0.97
			c1.9,1.51,2.91,2.98,4.26,5.27c-0.18,1.35-0.69,1.87-2.71,2.52C2413.31,761.52,2411.44,761.03,2409.57,760.53z"/>
		<path class="st47" d="M2403.53,780.52c-1.38-1.05-1.92-2.02-3.32-3.11c-1.88-2.74-2.91-5.36-4.1-9.05c1.5-1.1,3.16-1.13,5.87-0.41
			c1.67,1.7,2.3,2.65,2.93,3.61c1.56,3.34,3.12,6.68,4.53,11.15c-0.15,1.12-1.77,1.04-2.54,0.83
			C2405.54,782.41,2404.96,781.5,2403.53,780.52z"/>
		<path class="st42" d="M2413.54,787.29c1.14-1.81,2.53-3.66,3.93-5.52c-0.36,1.54-0.72,3.07-2.13,4.99
			C2414.28,787.13,2413.79,787.25,2413.54,787.29z"/>
		<path class="st35" d="M2406.1,771.23c-1.82-0.64-2.44-1.59-2.87-3.42c1.75-2.65,3.3-4.43,5.59-6.74c2.62-0.04,4.49,0.45,7.1,1.59
			c1.29,1.51,1.84,2.37,2.62,3.97C2414.93,768.54,2411.11,769.72,2406.1,771.23z"/>
		<path class="st41" d="M1857.71,359.29c0.74-0.31,1.89,0.25,3.34,1.74C1860.28,361.36,1859.2,360.76,1857.71,359.29z"/>
	</g>
	<path class="st50" d="M2010.95,406.02c-53.97-22.67-112.26-34.96-170.79-36.03c-29.62-0.54-59.99,1.95-86.97,14.18
		c-17.05,7.73-41.16,29.19-38.47,47.72c0.87,6.01,10.84,27.48,13.73,32.82c32.53,60.03,67.59,79.66,112.27,120.97
		c39.65,36.66,84.27,67.55,129.89,96.46c135,85.56,280.25,154.93,431.65,206.15c91.59,30.98,191.06,55.37,284.03,28.85
		c13.95-3.98,28.6-9.88,36.19-22.24c13.35-21.74,8.24-55.25-6.46-76.09c-40.04-56.76-92.51-109.66-154.37-141.25"/>
	<path class="st50" d="M2427.19,389.78c85.94-39.58,177.94-65.95,271.79-77.91c20.77-2.65,42.38-4.51,62.2,2.24
		c19.82,6.75,37.4,24.34,37.67,45.28c0.2,15.35-8.55,29.24-17.48,41.73c-66.84,93.48-160.26,164.3-255.19,229.06
		c-127.77,87.17-261.1,166.2-398.9,236.45c-131.23,66.9-257.95,110.21-405.84,118.08c-19.11,1.02-52.57-3.73-63.6-19.37
		c-9.44-13.38-14.95-29.82-8.83-45c6.33-15.72,16.91-32.43,28.85-46.63c60.79-72.33,128.68-127.32,204.65-187.73"/>
	<path class="st50" d="M2557.71,537.95c27.25,10.68,53.96,22.76,79.99,36.15c18.73,9.64,38.71,21.87,44.79,42.04
		c5.04,16.73,2.81,41.3-8.22,54.86c-11.02,13.56-26.27,26.95-41.57,35.4c-120.84,66.72-265.09,79.48-402.92,87.05
		c-116.96,6.42-236.2,2.4-347.95-32.73c-31.77-9.99-63.14-22.65-89.93-42.42c-20.2-14.91-38.7-36.8-37.19-61.86
		c1.45-23.92,20.54-42.82,40-56.8c35.03-25.18,75.55-42.69,117.89-50.96"/>
	<path class="st34" d="M2772.24,416.77c0.17-0.23,0.25-0.56,0.2-0.81c0.04-0.36-0.01-0.69-0.18-0.94c0.63-1.64-0.09-3.18-2.3-2.72
		c-1.49,0.58-2.31,2.15-2.84,3.73c-1.21-0.35-2.62,0.11-3.41,1.11c-1.04,0.22-1.98,0.8-2.61,1.67c-0.01,0.02-0.03,0.03-0.04,0.05
		c-1.32,0.92-2.11,2.44-2.76,3.9c-0.03,0.04-0.06,0.08-0.08,0.11c-1.39,2.12-2.43,4.92-1.81,7.46c0.59,2.44,3.94,3.33,5.66,1.49
		c0.1-0.09,0.19-0.2,0.28-0.29c1.41,0.24,2.93-0.14,3.98-1.22c0.47-0.49,0.79-1.05,1.02-1.66c0.8-0.33,1.51-0.9,1.95-1.7
		c0.21-0.34,0.33-0.7,0.41-1.07c0.84-0.96,1.28-2.39,0.86-4.03c-0.06-0.59-0.2-1.2-0.41-1.78c0.38-0.54,0.75-1.09,1.1-1.64
		C2771.67,417.96,2772.02,417.36,2772.24,416.77z"/>
	<path class="st51" d="M2769.61,415.77c-0.1,0.07-0.18,0.17-0.24,0.27"/>
	<path class="st34" d="M2756.7,435.31c0.15-0.08,0.31-0.16,0.45-0.25c0.27-0.16,0.53-0.33,0.78-0.51c-1.33,0.24-2.66,0.51-4,0.68
		c-0.04,0-0.09,0-0.13,0c0.35-0.76,1.19-0.91,1.87-1.24c-0.49,0.03-1,0.02-1.45,0.22c-0.4,0.17-0.66,0.61-0.77,1.02
		c-0.31,0.02-0.62,0.04-0.93,0.09c-0.12,0.03-0.25,0.05-0.39,0.08c-0.71,0.06-1.6,0.49-1.41,1.31c0.12,0.28,0.33,0.45,0.59,0.57
		c0,0.02,0,0.03,0,0.05c0.05,0.16,0.17,0.29,0.34,0.34c0.36,0.05,0.72,0.08,1.09,0.09c-0.05,0.04-0.11,0.07-0.16,0.11
		c0.08-0.03,0.15-0.07,0.23-0.11c0.43,0.02,0.85,0.02,1.27,0.02c0.29-0.07,0.46-0.34,0.49-0.62c1.69,0.06,3.41-0.04,2.79-1.47
		C2757.23,435.47,2756.97,435.32,2756.7,435.31z"/>
	<path class="st30" d="M2756.35,438.87c0.03-0.1,0.04-0.22-0.01-0.36c-0.07-0.22-0.31-0.36-0.54-0.36h0v0
		c-0.53,0.04-1.05,0.03-1.58,0.04c-1.41,0.01-2.83,0.03-4.25-0.05c-0.18,0-0.34,0.1-0.44,0.25c-0.04,0.09-0.05,0.16-0.06,0.23
		c-0.76,0.04-1.52,0.11-2.27,0.24c-1.07,0.08-1.77,0.82-2.02,1.69c-1.32,0.95-1.74,3.02-0.47,4.23c0.09,0.07,0.18,0.12,0.27,0.19
		c0.75,1.06,2.21,1.74,3.57,1.72c-0.23-0.03-0.46-0.06-0.68-0.09c1.23,0.12,2.6,0.49,3.81,0.16c0.58,0.04,1.16-0.01,1.68-0.35
		c0.88-0.5,1.31-1.33,1.35-2.19c0.41-0.01,0.83-0.03,1.22-0.09c0.01,0,0.02,0,0.04,0v-0.01c1.43-0.21,2.62-0.84,2.67-2.67
		C2758.6,439.82,2757.59,439.16,2756.35,438.87z"/>
	<path class="st31" d="M1844.35,369.13c-1.12-1.09-3.47-2.72-3.77-3c-1.23-1.49-3.76-0.6-3.74,1.35c0,0.21,0.04,0.4,0.1,0.59
		c-0.02,0.07-0.03,0.15-0.01,0.23c-0.02,0-0.05-0.01-0.07,0c-1.22,1.06,0.48,1.99,1.29,2.57c0.63,0.49,1.91,1.23,2.54,1.35
		c0.41,0.49,0.85,0.94,1.4,1.27c0.96,0.61,2.32,0.33,2.75-0.74c0.39-0.21,0.71-0.54,0.84-1.05
		C1846.02,370.6,1845.09,369.78,1844.35,369.13z"/>
	<path class="st52" d="M1853.97,368.96c-0.01,0.03-0.02,0.07-0.03,0.1"/>
	<path class="st35" d="M1834.6,366.93c-0.09-0.02-0.17-0.02-0.24-0.01c-0.32-0.33-0.91-0.39-1.26-0.08
		c-0.02,0.02-0.03,0.04-0.04,0.05c-0.26-0.19-0.54-0.2-0.81-0.11c-0.09-0.03-0.17-0.06-0.25-0.07c-0.09-0.63-0.67-1.15-1.31-1.21
		c-0.14-0.06-0.3-0.1-0.46-0.1c-1.06,0.06-1.52,1.24-2.16,1.93c-0.37,0.53-0.79,1.06-1.19,1.61c-0.03,0.03-0.05,0.06-0.07,0.08
		c0.18-0.37,0.35-0.75,0.51-1.14c-0.39,0.47-0.76,0.98-1.11,1.51c-0.68,0.84-1.31,1.76-1.77,2.62c0.13-0.14,0.26-0.28,0.38-0.42
		c-0.31,0.47-0.61,0.95-0.86,1.42c0.27-0.28,0.53-0.57,0.79-0.86c-0.05,0.14-0.12,0.28-0.17,0.42c0.04-0.05,0.07-0.11,0.11-0.16
		c-0.09,0.21-0.19,0.41-0.27,0.62c0.41-0.54,0.79-1.1,1.16-1.66c-0.02,0.12-0.03,0.23-0.02,0.34c-0.16,0.34-0.31,0.67-0.44,1
		c0.18-0.23,0.34-0.46,0.5-0.69c0.05,0.15,0.11,0.3,0.21,0.43c-0.03,0.08-0.08,0.17-0.11,0.25c0.05,0.14,0.21-0.24,0.13-0.13
		c0.02-0.01,0.04-0.02,0.05-0.03c0.18,0.23,0.42,0.41,0.69,0.52c0.03,0.01,0.06,0.02,0.09,0.03c0.3,0.11,0.64,0.14,0.96,0.04
		c0.14-0.04,0.27-0.1,0.38-0.17c0.32,0.69,1.27,1.08,1.98,0.64c0.02-0.02,0.04-0.05,0.06-0.07c-0.01,0.04-0.02,0.07-0.03,0.11
		c0.07-0.12,0.15-0.23,0.23-0.35c0.07-0.08,0.13-0.14,0.2-0.23c0.01,0.01,0.03,0.02,0.04,0.03c0.04-0.06,0.08-0.13,0.12-0.19
		c0.13-0.06,0.23-0.16,0.27-0.3c0.03-0.06,0.05-0.12,0.07-0.18c0.02,0.1,0.04,0.19,0.08,0.28c0.31,0.52,0.96,0.71,1.5,0.48
		c0,0,0,0,0,0c0,0.07,0.02,0.14,0.05,0.2c-0.01,0.09-0.03,0.19-0.04,0.28c-0.05,0.36,0.05,0.24,0.21-0.1
		c0.12,0.08,0.28,0.1,0.41,0.03c0.14-0.08,0.26-0.2,0.37-0.33c0,0.11,0,0.21,0.02,0.28c0.06-0.19,0.12-0.37,0.18-0.56
		c0.01-0.02,0.02-0.04,0.03-0.06c0,0.03,0,0.06,0,0.08c0.01-0.05,0.02-0.09,0.03-0.14c0.06-0.11,0.12-0.22,0.17-0.34
		c0.02-0.06,0.03-0.12,0.05-0.19c0-0.01,0.01-0.02,0.01-0.02c0.01,0.13,0.02,0.26,0.05,0.37c0,0.07,0.01,0.14,0.01,0.21
		c0.02,0.51-0.03,1.08,0.3,1.5c0.12-0.02,0.25-0.08,0.35-0.15c-0.49,0.23-0.33-0.46-0.29-0.73c0.04-0.16,0.07-0.32,0.1-0.49
		c0.02,0,0.03,0,0.05-0.01c0.05,0.19,0.09,0.39,0.15,0.57c-0.01-0.22-0.02-0.42-0.03-0.63c0.05-0.03,0.1-0.07,0.13-0.12
		c0,0.02,0,0.04,0,0.06c0-0.03,0-0.05,0.01-0.08c0.08-0.12,0.12-0.27,0.08-0.43c0-0.18,0-0.35,0-0.53c0.06-0.75,0.07-1.51,0.01-2.26
		c0.04-0.19,0.07-0.39,0.08-0.58c0.01-0.03,0.02-0.07,0.03-0.1c-0.01,0-0.02-0.01-0.03-0.01c0-0.09,0.02-0.18,0.01-0.27
		c-0.04-0.04-0.07-0.07-0.1-0.1c0.05-0.25,0.11-0.5,0.15-0.75C1835.21,367.44,1834.97,367.03,1834.6,366.93z"/>
	<path class="st31" d="M1866.94,372.08c-0.03,0-0.07,0-0.1-0.01c-0.33-0.62-1.87-0.71-2.46-0.88c-0.64-0.06-2.12-0.32-3.21-0.17
		c-0.17-0.12-0.43-0.16-0.63-0.2c-0.32-0.03-0.74-0.14-1.06-0.04c-0.08-0.07-0.15-0.14-0.23-0.21c-0.7-0.54-1.73-1.27-2.74-1.59
		c-0.42-0.34-0.92-0.47-1.37-0.27c-0.26-0.14-0.57-0.04-0.74,0.19c-0.02-0.04-0.04-0.08-0.06-0.11c0,0.02,0.01,0.05,0.02,0.07
		c-0.01-0.02-0.02-0.04-0.04-0.05c-0.1-0.18-0.36-0.21-0.51-0.07c-0.12,0.13-0.11,0.32-0.08,0.48c0.03,0.08,0.07,0.16,0.1,0.24
		c-0.08-0.11-0.17-0.23-0.26-0.32c-0.52-0.71-1.19-1-1.78-0.94c-0.42-0.32-0.88-0.58-1.38-0.77c-0.12-0.03-0.25-0.04-0.38-0.06
		c-0.32-0.06-0.66-0.03-1,0.11c-0.87,0.27-1.61,0.95-1.69,1.88c-0.14,1.06,0.53,2.13,1.08,3c1.21,1.28,1.99,3.62,3.99,3.69
		c0.55,0,1.05-0.21,1.45-0.53c0.63,0.04,1.21-0.31,1.66-1.26c0.07-0.27,0.06-0.53,0.01-0.79c-0.01-0.1-0.01-0.2-0.02-0.29
		c0.17,0.18,0.43,0.28,0.67,0.2c0.06-0.02,0.1-0.05,0.15-0.07c0.29,0.14,0.59,0.26,0.9,0.36c0.14,0.08,0.28,0.16,0.41,0.23
		c0.26,0.34,0.6,0.45,0.9,0.38c0.04,0.01,0.08,0.03,0.11,0.04c0.9,0.18,1.79-0.55,1.93-1.43c0.01-0.04,0.01-0.07,0.02-0.11
		c0.32,0.04,0.64,0.09,0.95,0.12c0.06,0.01-0.08-0.01-0.14-0.02c0.58,0.01,1.39,0.39,1.85-0.05c0.22,0.02,0.39-0.04,0.51-0.12
		c0.57,0.04,1.14,0.15,1.69,0.1c0.11,0.02,0.23,0.05,0.38,0.08c0.32,0.07,0.72,0.14,0.93-0.18c0.14-0.26,0.14-0.47,0.06-0.64
		C1866.88,372.08,1866.91,372.08,1866.94,372.08z"/>
	<path class="st49" d="M1867.06,371.75c-0.08-0.12-0.16-0.24-0.25-0.37c0.03-0.08,0.04-0.18,0.02-0.33c0.03-0.05,0-0.13-0.13-0.22
		c-0.26-0.33-0.72-0.61-1.14-0.69c-0.03-0.02-0.06-0.04-0.08-0.05c0.01,0.02,0.03,0.03,0.04,0.04c-0.01,0-0.01,0-0.02,0
		c-0.01-0.01-0.03-0.02-0.04-0.02c-0.04,0-0.07,0-0.1,0c-0.02,0-0.05-0.01-0.08-0.01c-0.03,0.01-0.05,0.03-0.07,0.05
		c-0.02,0.01-0.04,0.01-0.06,0.03c-0.12-0.14-0.23-0.28-0.34-0.4c-0.27-0.23-0.54-0.78-0.95-0.6c-0.12,0.07-0.17,0.21-0.14,0.34
		c-0.02,0.04-0.05,0.09-0.07,0.15c0.03,0.11,0.06,0.22,0.11,0.32c0,0,0,0,0,0c0,0,0,0,0.01,0.01c0.01,0.02,0.02,0.03,0.02,0.05
		c-0.46-0.33-0.96-0.61-1.31-0.47c-0.09-0.03-0.17-0.06-0.26-0.08c-0.18-0.05-0.38-0.07-0.57-0.05c-0.79-0.2-1.67-0.37-2.42-0.49
		c-0.27-0.06-0.54-0.11-0.76-0.15c-0.63-0.19-1.2,0.55-0.86,1.11c0.13,0.22,0.37,0.34,0.61,0.41c0.2,0.04,0.41,0.07,0.61,0.1
		c0.07,0.12,0.37,0.18,0.49,0.24c0.08,0.01,0.21,0.08,0.32,0.12c-0.07-0.01-0.13-0.02-0.1,0c0.03,0.01,0.07,0.03,0.11,0.04
		c-0.04,0.01-0.08,0.01-0.12,0.03c0.06-0.01,0.12-0.01,0.19-0.01c0.05,0.02,0.11,0.02,0.15,0c0.06,0,0.13,0.01,0.19,0.02
		c0.12,0.33,0.53,0.5,0.89,0.56c0.21,0.05,0.42,0.11,0.62,0.17c0.11,0.04,0.21,0.07,0.32,0.09c0.22,0.06,0.45,0.1,0.68,0.13
		c0.01,0.01,0.03,0.01,0.04,0.02c0-0.01,0-0.01,0-0.01c0.1,0.01,0.21,0.03,0.31,0.03c0.19-0.01,0.36-0.11,0.48-0.25
		c0.09,0,0.18-0.01,0.27-0.04c0.26,0.06,0.49,0.06,0.69-0.08c0.23,0.07,0.41,0.07,0.54-0.03c0.15,0.17,0.31,0.32,0.47,0.47
		c0.03,0.04,0.07,0.08,0.1,0.12c0.01-0.01,0.01-0.01,0.01-0.01c0.02,0.02,0.05,0.05,0.07,0.07c0.32,0.02,0.37-0.13,0.29-0.35
		c0.03,0,0.06,0.01,0.09,0c0.02-0.01,0.02-0.02,0.04-0.03c0.04,0.04,0.07,0.09,0.09,0.12c0.21,0.18,0.37,0.51,0.68,0.52
		C1867.01,372.34,1867.21,372,1867.06,371.75z"/>
	<path class="st53" d="M1865.61,370.4c-0.04-0.05-0.09-0.09-0.14-0.12"/>
	<path class="st53" d="M1866.34,370.59c-0.01-0.01-0.01-0.02-0.02-0.03"/>
	<path class="st32" d="M2427.16,775.28c-0.06-0.2-0.13-0.39-0.2-0.58c0-0.04-0.01-0.08-0.01-0.11c0.01-0.01,0.02-0.03,0.04-0.05
		c0-0.01,0-0.01,0-0.02c0.04,0.11,0.09,0.22,0.14,0.31c-0.06-0.43-0.19-0.85-0.34-1.27c-0.02-0.12-0.03-0.24-0.06-0.35
		c0-0.16-0.04-0.31-0.11-0.44c-0.01-0.04-0.02-0.08-0.03-0.11c0,0.02,0,0.05,0,0.07c-0.08-0.13-0.2-0.23-0.34-0.24
		c-0.08-0.05-0.18-0.06-0.26-0.02c-0.06,0.02-0.11,0.07-0.14,0.13c-0.05-0.02-0.11-0.04-0.19-0.04c-0.06,0.02-0.11,0.05-0.15,0.09
		c-0.02-0.05-0.04-0.1-0.07-0.15c-0.3-0.55-0.97-0.76-1.54-0.6c-0.03,0-0.06-0.02-0.09-0.02c-0.33-1.18-1.2-2.08-2.77-2.11
		c-0.05-0.01-0.1-0.01-0.16,0c-0.94-0.37-2.02-0.34-3,0.08c-0.35,0.08-0.71,0.2-1.08,0.38c-1.9,0.79-2.89,2.79-3.35,4.69
		c-0.58,1.95-0.08,4.16,1.83,5.14c2.1,1.16,4.33,0.57,6.13-0.72c1.95,2.15,5.26,0.31,4.57-2.74c-0.05-0.26-0.08-0.54-0.1-0.82
		c0.18-0.01,0.35-0.2,0.38-0.3c0,0,0,0,0,0c0.15,0.23,0.33,0.37,0.54,0.36C2427.05,775.82,2427.23,775.53,2427.16,775.28z"/>
	<path class="st32" d="M2410.57,778.56c0.05-0.74-0.14-1.5-0.24-2.24c-0.19-0.71-0.26-1.52-0.69-2.12
		c-0.46-0.68-1.55-0.73-2.11-0.14c-0.49,0.6-0.49,1.35-0.33,2.09c0.01,0.72,0.24,1.43,0.44,2.11c0.22,0.53,0.3,1.22,0.79,1.57
		c0.2,0.17,0.43,0.25,0.67,0.27c0.15,0.32,0.3,0.63,0.46,0.94c-0.06-0.32-0.14-0.63-0.21-0.94c0.54-0.07,1.04-0.49,1.16-1.06
		c0.01-0.04,0.01-0.09,0.01-0.13c0.03-0.1,0.05-0.21,0.04-0.32C2410.58,778.58,2410.57,778.57,2410.57,778.56z"/>
	<path class="st47" d="M2407.05,775.94c-0.11,0.05-0.17,0.12-0.2,0.2c-0.03,0.01-0.06,0-0.08,0.02c0,0-0.01-0.02-0.01-0.02
		c-0.12-0.16-0.25-0.21-0.37-0.21c-0.19-0.18-0.42-0.24-0.6,0.07c0,0.01,0,0.02,0,0.04c-0.35-0.44-0.77-0.85-1.22-1.17
		c-0.28-0.27-0.59-0.52-0.89-0.75c-1.01-0.71-2.44-0.53-3.06,0.48c-0.33-0.15-0.71-0.05-0.98,0.18c-0.22,0.13-0.38,0.36-0.37,0.62
		c0.01,0.03,0.03,0.06,0.03,0.09c0,0.42,0.3,0.78,0.53,1.13c0.17,0.22,0.36,0.43,0.53,0.65c0.04,0.05,0.08,0.1,0.12,0.16
		c-0.12,0.15-0.03,0.6,0.5,1.28c0.16,0.12,0.29,0.15,0.38,0.12c0.14,0.12,0.28,0.21,0.4,0.27c0.02,0.03,0.05,0.06,0.07,0.09
		c0.18,0.18,0.42,0.28,0.67,0.28c0.11,0,0.22-0.03,0.32-0.07c0.03,0.02,0.05,0.04,0.08,0.06c0.08,0.09,0.19,0.09,0.29,0.07
		c0.07,0.04,0.14,0.09,0.2,0.12c0.1,0.05,0.2,0.1,0.3,0.13c0.63,0.22,1.27,0.21,1.91-0.11c0.51-0.34,0.79-0.74,0.92-1.16
		c0.07,0.04,0.14,0.05,0.22,0.04c0.02,0.13,0.04,0.26,0.06,0.38c0.05,0.18,0.24,0.37,0.44,0.26c0.21-0.15,0.07-0.48,0.06-0.7
		c0-0.01,0-0.01,0-0.02c0.14,0.05,0.32,0.04,0.43-0.08C2408.05,778.02,2407.82,775.57,2407.05,775.94z"/>
	<path class="st54" d="M2400.91,777.77c-0.02-0.04-0.04-0.08-0.05-0.12"/>
	<path class="st29" d="M2401.22,778.96c0.11-0.49,0.03-1.05-0.32-1.38c-0.13-0.12-0.3-0.14-0.46-0.1c-0.09-0.33-0.43-0.54-0.75-0.63
		c-0.54-0.11-0.91,0.1-1.13,0.45c-0.24-0.2-0.51-0.36-0.85-0.44c-0.41-0.09-0.74-0.05-1.01,0.07c-0.77-0.09-1.48,0.14-1.72,0.74
		c-0.02,0.02-0.05,0.04-0.07,0.05c-0.07,0.03-0.13,0.07-0.18,0.11c-0.01,0-0.02,0.01-0.03,0.01c-0.06,0.02-0.12,0.05-0.18,0.08
		c-0.82-0.22-1.61,0.35-1.48,1.5c0.03,0.57,0.47,1.08,0.97,1.26c0.19,0.23,0.43,0.38,0.72,0.38c0.48,0.94,1.85,1.66,2.67,0.76
		c0.29-0.31,0.44-0.68,0.49-1.07c0.37-0.02,0.66-0.14,0.9-0.32c0.34-0.03,0.67-0.18,0.93-0.47c0.02,0.02,0.04,0.04,0.06,0.06
		c0.16,0.13,0.38,0.15,0.57,0.19c-0.1-0.04-0.19-0.11-0.29-0.21c0.36,0.03,0.71-0.12,0.99-0.53c0.03-0.05,0.04-0.11,0.07-0.16
		c0.02,0.03,0.03,0.07,0.05,0.1c-0.01-0.04-0.02-0.09-0.04-0.14c0.03-0.08,0.08-0.16,0.1-0.24c0.08,0.11,0.18,0.2,0.25,0.23
		C2401.37,779.17,2401.29,779.07,2401.22,778.96z"/>
</g>
<g id="Layer_4">
	<path class="st11" d="M2031.38,632.76V526.14c0-17.68,14.33-32.01,32.01-32.01h317.96c17.68,0,32.01,14.33,32.01,32.01v106.62
		c0,17.68-14.33,32.01-32.01,32.01h-317.96C2045.71,664.77,2031.38,650.44,2031.38,632.76z"/>
	<text transform="matrix(1 0 0 1 2163.9839 555.5619)" class="st55 st56">Total</text>
	<text transform="matrix(1 0 0 1 2132.0122 624.4545)" class="st57 st58">260,5</text>
</g>
</svg>
