<?xml version="1.0" encoding="UTF-8"?>
<svg id="Capa_1" data-name="Capa 1" xmlns="http://www.w3.org/2000/svg" viewBox="0 0 879.21 1460.91">
  <defs>
    <style>
      .cls-1 {
        letter-spacing: 0em;
      }

      .cls-2 {
        fill: #2c4f66;
      }

      .cls-2, .cls-3, .cls-4, .cls-5, .cls-6, .cls-7, .cls-8, .cls-9, .cls-10 {
        stroke-miterlimit: 10;
      }

      .cls-2, .cls-4, .cls-6, .cls-10 {
        stroke: #000;
      }

      .cls-3 {
        stroke: #1d1710;
      }

      .cls-3, .cls-4, .cls-5, .cls-7, .cls-9 {
        fill: none;
      }

      .cls-11 {
        letter-spacing: 0em;
      }

      .cls-12 {
        letter-spacing: 0em;
      }

      .cls-13 {
        letter-spacing: 0em;
      }

      .cls-5, .cls-7, .cls-8, .cls-9 {
        stroke: #fff;
      }

      .cls-14 {
        letter-spacing: 0em;
      }

      .cls-15 {
        letter-spacing: 0em;
      }

      .cls-16 {
        letter-spacing: -.01em;
      }

      .cls-17 {
        letter-spacing: -.01em;
      }

      .cls-18 {
        letter-spacing: 0em;
      }

      .cls-19 {
        opacity: .33;
      }

      .cls-20 {
        letter-spacing: 0em;
      }

      .cls-21 {
        letter-spacing: 0em;
      }

      .cls-6 {
        fill: #9eb9c7;
      }

      .cls-22 {
        letter-spacing: 0em;
      }

      .cls-23 {
        letter-spacing: 0em;
      }

      .cls-24 {
        letter-spacing: -.01em;
      }

      .cls-25 {
        letter-spacing: 0em;
      }

      .cls-7 {
        stroke-dasharray: 0 0 11.89 11.89;
      }

      .cls-26 {
        letter-spacing: .02em;
      }

      .cls-27 {
        letter-spacing: -.03em;
      }

      .cls-28 {
        letter-spacing: 0em;
      }

      .cls-9 {
        stroke-dasharray: 0 0 12.04 12.04;
      }

      .cls-10, .cls-29 {
        fill: #fff;
      }

      .cls-30 {
        fill: #6b6b59;
        font-size: 10.07px;
      }

      .cls-30, .cls-29 {
        font-family: MyriadPro-Regular, 'Myriad Pro';
      }

      .cls-31 {
        letter-spacing: 0em;
      }

      .cls-29 {
        font-size: 25.18px;
      }

      .cls-32 {
        letter-spacing: -.02em;
      }
    </style>
  </defs>
  <path class="cls-10" d="M385.57,236.75l31.88-54.06,39.4-2.45,31.62,42.12,.36,14.38c-13.5,3.21-29.99,6.05-48.89,7.04-20.63,1.08-38.7-.32-53.31-2.44-.36-1.53-.71-3.07-1.07-4.6Z"/>
  <path class="cls-10" d="M417.45,182.7c-.26,.44,0,1,.5,1.07,2.67,.39,10.12,1.18,17.37-.88l8.17-2.32c.45-.13,.66-.64,.43-1.04l-11.39-20.41c-.27-.48-.96-.49-1.25-.01l-13.83,23.6Z"/>
  <path class="cls-10" d="M385.57,236.75v82.85s44.78,8.66,66.1,4.33c21.32-4.33,37.16-17.06,37.16-17.06l-3.35-72.77s-24.55,8.43-51.72,8.43-48.19-5.79-48.19-5.79Z"/>
  <ellipse class="cls-6" cx="351.93" cy="238.11" rx="61.54" ry="39.19"/>
  <ellipse class="cls-2" cx="327.25" cy="232.27" rx="29.19" ry="18.59" transform="translate(-44.78 81.82) rotate(-13.35)"/>
  <ellipse class="cls-10" cx="253" cy="198.54" rx="29.19" ry="18.59" transform="translate(-39 63.77) rotate(-13.35)"/>
  <path class="cls-6" d="M345.62,326.85l-51.17-31.68c3.68-3.79,25.43-25.43,60.11-25.18,33.93,.24,55.11,21.26,58.92,25.18-15.58,10.56-31.16,21.12-46.73,31.68-1.61-.95-5.52-2.97-10.86-2.89-4.99,.07-8.64,1.94-10.25,2.89Z"/>
  <circle class="cls-6" cx="309.78" cy="277.3" r="7.21"/>
  <circle class="cls-6" cx="321.96" cy="272.42" r="7.21"/>
  <circle class="cls-6" cx="336.38" cy="270.09" r="7.21"/>
  <circle class="cls-6" cx="396.89" cy="277.3" r="7.21"/>
  <circle class="cls-6" cx="385.12" cy="272.42" r="7.21"/>
  <circle class="cls-6" cx="373.34" cy="269.98" r="7.21"/>
  <circle class="cls-6" cx="363.18" cy="267.55" r="7.21"/>
  <circle class="cls-6" cx="350.8" cy="267.55" r="7.21"/>
  <path class="cls-10" d="M242.87,251.1v28.53s-23.15-1.12-22.54-12.08c.61-10.96,22.54-16.45,22.54-16.45Z"/>
  <path class="cls-10" d="M316.61,165.97l-3.17,89.55s-29.73-12.79-62.62-6.7c-32.9,6.09-30.46,16.55-30.46,16.55l-.04-87.83s9.79-12.79,35.37-14.62c25.59-1.83,60.92,3.05,60.92,3.05Z"/>
  <path class="cls-10" d="M220.31,174.95c19.7-22.95,39.4-45.89,59.1-68.84,12.4,19.95,24.79,39.9,37.19,59.85,0,0-39.86-9.23-65.21-3.46-25.35,5.77-31.08,12.44-31.08,12.44Z"/>
  <polygon class="cls-10" points="262.85 125.41 290.38 123.76 279.42 106.11 262.85 125.41"/>
  <path class="cls-10" d="M294.45,351.01v64.58l109.66,2.44v-67.01s-12.15-14.01-50.14-14.01-59.51,14.01-59.51,14.01Z"/>
  <ellipse class="cls-10" cx="349.27" cy="414.98" rx="54.83" ry="17.67"/>
  <path class="cls-10" d="M293.63,452.75c-4.33,65.82-8.66,131.65-13,197.47,4.84-4.61,28.16-25.85,64.17-25.68,40.23,.2,64.84,26.96,68.67,31.27-3.12-66.62-6.25-133.25-9.37-199.87-9.15-5.25-27.15-13.96-51.45-15.37-28.09-1.63-49.41,7.37-59.02,12.17Z"/>
  <path class="cls-10" d="M287.14,752.48l-6.5-102.35c5.61-5.12,28.71-25.03,64.17-25.59,38.81-.61,63.94,22.41,68.86,27.11-1.56,33.61-3.13,67.22-4.69,100.83-8.57-5.42-30.71-17.83-61.53-17.67-30.1,.16-51.71,12.23-60.31,17.67Z"/>
  <path class="cls-10" d="M287.95,758.57v378.93c10.11-5.68,31.63-15.96,60.72-16.45,31.53-.53,54.84,10.75,65,16.45-1.56-128.34-3.13-256.68-4.69-385.02-8.57-5.42-30.71-17.83-61.53-17.67-30.1,.16-51.71,12.23-60.31,17.67,.27,2.03,.54,4.06,.81,6.09Z"/>
  <polygon class="cls-10" points="426.85 816.18 419.54 1202.69 553.56 1202.69 481.5 816.18 426.85 816.18"/>
  <polygon class="cls-10" points="426.85 713.08 419.54 1099.59 553.56 1099.59 481.5 713.08 426.85 713.08"/>
  <path class="cls-10" d="M481.5,711.05s-42.47-84.48-47.34-84.48-7.34,86.51-7.34,86.51l54.68-2.03Z"/>
  <polygon class="cls-10" points="550.93 1085.5 605.65 1080.53 544.42 1050.58 550.93 1085.5"/>
  <polygon class="cls-10" points="273.2 814.14 280.51 1200.65 146.48 1200.65 218.55 814.14 273.2 814.14"/>
  <polygon class="cls-10" points="273.2 711.04 280.51 1097.54 146.48 1097.54 218.55 711.04 273.2 711.04"/>
  <path class="cls-10" d="M218.55,709.01s42.47-84.48,47.34-84.48c4.87,0,7.34,86.51,7.34,86.51l-54.68-2.03Z"/>
  <polygon class="cls-10" points="149.11 1083.46 94.4 1078.49 155.62 1048.53 149.11 1083.46"/>
  <polygon class="cls-10" points="143.36 1202.69 118.59 1229.69 159.2 1216.19 143.36 1202.69"/>
  <polygon class="cls-10" points="553.04 1205.47 575.04 1234.78 535.95 1217.35 553.04 1205.47"/>
  <ellipse class="cls-10" cx="351.11" cy="1137.49" rx="62.55" ry="17.67"/>
  <ellipse class="cls-10" cx="486.55" cy="1200.49" rx="67.01" ry="24.47"/>
  <ellipse class="cls-10" cx="486.55" cy="1097.39" rx="67.01" ry="24.47"/>
  <ellipse class="cls-10" cx="213.5" cy="1198.45" rx="67.01" ry="24.47"/>
  <ellipse class="cls-10" cx="213.5" cy="1095.35" rx="67.01" ry="24.47"/>
  <path class="cls-6" d="M319.82,310.87c2.16-2.25,14.81-14.95,35.14-14.99,20.44-.04,33.19,12.76,35.34,14.99"/>
  <path class="cls-10" d="M433.77,159.08l30.26,51.88,.07,86.13s23.56,8.12,24.37,12.18c.81,4.06,0-86.91,0-86.91,0,0-42.45-61.75-54.7-63.29Z"/>
  <path class="cls-8" d="M743.58,104.72V1230.85"/>
  <g class="cls-19">
    <g>
      <line class="cls-5" x1="279.42" y1="106.11" x2="285.42" y2="106.11"/>
      <line class="cls-9" x1="297.46" y1="106.11" x2="724.91" y2="106.11"/>
      <line class="cls-5" x1="730.93" y1="106.11" x2="736.93" y2="106.11"/>
    </g>
  </g>
  <g class="cls-19">
    <g>
      <line class="cls-5" x1="118.59" y1="1237.56" x2="124.59" y2="1237.56"/>
      <line class="cls-7" x1="136.48" y1="1237.56" x2="724.99" y2="1237.56"/>
      <line class="cls-5" x1="730.93" y1="1237.56" x2="736.93" y2="1237.56"/>
    </g>
  </g>
  <text class="cls-29" transform="translate(795.98 687.12)"><tspan x="0" y="0">30.84 m</tspan></text>
  <text class="cls-29" transform="translate(118.59 1302.02)"><tspan class="cls-14" x="0" y="0">C</tspan><tspan x="14.43" y="0">a</tspan><tspan class="cls-12" x="26.57" y="0">r</tspan><tspan x="34.6" y="0">ga útil: 4.730 kg</tspan></text>
  <text class="cls-29" transform="translate(119.62 1339.46)"><tspan class="cls-32" x="0" y="0">P</tspan><tspan x="12.77" y="0">eso lanzamie</tspan><tspan class="cls-13" x="149.01" y="0">n</tspan><tspan class="cls-21" x="162.88" y="0">t</tspan><tspan x="171.07" y="0">o: 281.375 kg</tspan></text>
  <text class="cls-29" transform="translate(0 494.4)"><tspan x="0" y="0">Lanzado</tspan><tspan class="cls-17" x="88.94" y="0">r</tspan><tspan x="96.93" y="0">es</tspan><tspan x="0" y="30.22">sujetados</tspan></text>
  <text class="cls-29" transform="translate(332.25 21.08)"><tspan class="cls-16" x="0" y="0">C</tspan><tspan class="cls-25" x="14.3" y="0">ubie</tspan><tspan class="cls-26" x="61.02" y="0">r</tspan><tspan x="69.86" y="0">ta</tspan></text>
  <text class="cls-29" transform="translate(40.45 325.15)"><tspan x="0" y="0">VOS</tspan><tspan class="cls-27" x="43.82" y="0">T</tspan><tspan x="55.65" y="0">OK</tspan></text>
  <text class="cls-29" transform="translate(41.65 402.86)"><tspan class="cls-18" x="0" y="0">E</tspan><tspan x="12.31" y="0">tapa final</tspan></text>
  <text class="cls-29" transform="translate(525.78 571.42)"><tspan class="cls-18" x="0" y="0">E</tspan><tspan x="12.31" y="0">tapa p</tspan><tspan class="cls-23" x="78.92" y="0">r</tspan><tspan x="87.26" y="0">incipal</tspan></text>
  <text class="cls-30" transform="translate(98.5 1388.85)"><tspan x="0" y="0">Esta </tspan><tspan class="cls-31" x="19.27" y="0">v</tspan><tspan x="24.01" y="0">ersión </tspan><tspan class="cls-31" x="51.96" y="0">r</tspan><tspan x="55.15" y="0">eali</tspan><tspan class="cls-20" x="69.78" y="0">z</tspan><tspan x="74.02" y="0">ó 13 lanzamie</tspan><tspan class="cls-28" x="131.95" y="0">n</tspan><tspan class="cls-1" x="137.5" y="0">t</tspan><tspan x="140.78" y="0">os en </tspan><tspan class="cls-22" x="165.2" y="0">t</tspan><tspan x="168.48" y="0">otal e</tspan><tspan class="cls-28" x="191.75" y="0">n</tspan><tspan x="197.3" y="0">t</tspan><tspan class="cls-31" x="200.64" y="0">r</tspan><tspan x="203.83" y="0">e 1960 y 1964. </tspan><tspan class="cls-24" x="265.59" y="0">C</tspan><tspan x="271.32" y="0">on ella se lanza</tspan><tspan class="cls-31" x="334.53" y="0">r</tspan><tspan x="337.72" y="0">on seis misiones t</tspan><tspan class="cls-11" x="411.23" y="0">r</tspan><tspan x="414.57" y="0">ipulada</tspan><tspan class="cls-24" x="445.97" y="0">s</tspan><tspan x="449.85" y="0">, </tspan><tspan class="cls-1" x="454.07" y="0">t</tspan><tspan x="457.35" y="0">odas </tspan><tspan class="cls-1" x="479.54" y="0">c</tspan><tspan x="483.99" y="0">on </tspan><tspan class="cls-15" x="497.25" y="0">é</tspan><tspan x="502.27" y="0">xi</tspan><tspan class="cls-1" x="509.29" y="0">t</tspan><tspan x="512.56" y="0">o</tspan></text>
  <ellipse class="cls-8" cx="253" cy="203.55" rx="29.19" ry="18.59" transform="translate(-40.16 63.9) rotate(-13.35)"/>
  <g>
    <ellipse class="cls-8" cx="315.88" cy="1141.75" rx="18.79" ry="9.29"/>
    <ellipse class="cls-8" cx="348.2" cy="1155.48" rx="18.79" ry="9.29"/>
    <ellipse class="cls-8" cx="384.17" cy="1141.75" rx="18.79" ry="9.29"/>
    <ellipse class="cls-8" cx="348.2" cy="1130.43" rx="18.79" ry="9.29"/>
    <ellipse class="cls-8" cx="315.88" cy="1147.92" rx="18.79" ry="9.29"/>
    <ellipse class="cls-8" cx="348.2" cy="1161.66" rx="18.79" ry="9.29"/>
    <ellipse class="cls-8" cx="384.17" cy="1147.92" rx="18.79" ry="9.29"/>
    <ellipse class="cls-8" cx="348.2" cy="1136.6" rx="18.79" ry="9.29"/>
  </g>
  <g>
    <ellipse class="cls-8" cx="452.4" cy="1104.06" rx="18.79" ry="9.29"/>
    <ellipse class="cls-8" cx="484.73" cy="1117.8" rx="18.79" ry="9.29"/>
    <ellipse class="cls-8" cx="520.69" cy="1104.06" rx="18.79" ry="9.29"/>
    <ellipse class="cls-8" cx="484.73" cy="1092.75" rx="18.79" ry="9.29"/>
    <ellipse class="cls-8" cx="452.4" cy="1110.24" rx="18.79" ry="9.29"/>
    <ellipse class="cls-8" cx="484.73" cy="1123.98" rx="18.79" ry="9.29"/>
    <ellipse class="cls-8" cx="520.69" cy="1110.24" rx="18.79" ry="9.29"/>
    <ellipse class="cls-8" cx="484.73" cy="1098.92" rx="18.79" ry="9.29"/>
  </g>
  <g>
    <ellipse class="cls-8" cx="179.35" cy="1099.77" rx="18.79" ry="9.29"/>
    <ellipse class="cls-8" cx="211.68" cy="1113.5" rx="18.79" ry="9.29"/>
    <ellipse class="cls-8" cx="247.64" cy="1099.77" rx="18.79" ry="9.29"/>
    <ellipse class="cls-8" cx="211.68" cy="1088.45" rx="18.79" ry="9.29"/>
    <ellipse class="cls-8" cx="179.35" cy="1105.94" rx="18.79" ry="9.29"/>
    <ellipse class="cls-8" cx="211.68" cy="1119.68" rx="18.79" ry="9.29"/>
    <ellipse class="cls-8" cx="247.64" cy="1105.94" rx="18.79" ry="9.29"/>
    <ellipse class="cls-8" cx="211.68" cy="1094.62" rx="18.79" ry="9.29"/>
  </g>
  <g>
    <ellipse class="cls-8" cx="177.53" cy="1201.17" rx="18.79" ry="9.29"/>
    <ellipse class="cls-8" cx="209.86" cy="1214.91" rx="18.79" ry="9.29"/>
    <ellipse class="cls-8" cx="245.82" cy="1201.17" rx="18.79" ry="9.29"/>
    <ellipse class="cls-8" cx="209.86" cy="1189.86" rx="18.79" ry="9.29"/>
    <ellipse class="cls-8" cx="177.53" cy="1207.34" rx="18.79" ry="9.29"/>
    <ellipse class="cls-8" cx="209.86" cy="1221.08" rx="18.79" ry="9.29"/>
    <ellipse class="cls-8" cx="245.82" cy="1207.34" rx="18.79" ry="9.29"/>
    <ellipse class="cls-8" cx="209.86" cy="1196.03" rx="18.79" ry="9.29"/>
  </g>
  <g>
    <ellipse class="cls-8" cx="457.49" cy="1203.05" rx="18.79" ry="9.29"/>
    <ellipse class="cls-8" cx="489.82" cy="1216.78" rx="18.79" ry="9.29"/>
    <ellipse class="cls-8" cx="525.78" cy="1203.05" rx="18.79" ry="9.29"/>
    <ellipse class="cls-8" cx="489.82" cy="1191.73" rx="18.79" ry="9.29"/>
    <ellipse class="cls-8" cx="457.49" cy="1209.22" rx="18.79" ry="9.29"/>
    <ellipse class="cls-8" cx="489.82" cy="1222.96" rx="18.79" ry="9.29"/>
    <ellipse class="cls-8" cx="525.78" cy="1209.22" rx="18.79" ry="9.29"/>
    <ellipse class="cls-8" cx="489.82" cy="1197.91" rx="18.79" ry="9.29"/>
  </g>
  <g>
    <polygon class="cls-8" points="330.55 418.95 350.49 400.09 368.27 418.95 330.55 418.95"/>
    <ellipse class="cls-8" cx="349.41" cy="419.49" rx="20.2" ry="6.47"/>
    <ellipse class="cls-8" cx="349.41" cy="421.24" rx="20.2" ry="6.47"/>
    <ellipse class="cls-8" cx="304.69" cy="404.81" rx="7.54" ry="4.71"/>
    <ellipse class="cls-8" cx="393.59" cy="404.81" rx="7.54" ry="4.71"/>
    <ellipse class="cls-8" cx="393.59" cy="425.95" rx="7.54" ry="4.71"/>
    <ellipse class="cls-8" cx="304.69" cy="428.65" rx="7.54" ry="4.71"/>
    <ellipse class="cls-8" cx="304.96" cy="407.57" rx="7.54" ry="4.71"/>
    <ellipse class="cls-8" cx="393.86" cy="407.57" rx="7.54" ry="4.71"/>
    <ellipse class="cls-8" cx="393.86" cy="428.72" rx="7.54" ry="4.71"/>
    <ellipse class="cls-8" cx="304.96" cy="431.41" rx="7.54" ry="4.71"/>
  </g>
  <polyline class="cls-3" points="452.4 688.5 94.4 540.1 253 688.5"/>
  <polyline class="cls-3" points="294.45 190.98 389.68 35.81 433.77 213.94"/>
  <line class="cls-3" x1="349.41" y1="360.69" x2="160.56" y2="393.03"/>
  <line class="cls-3" x1="325.66" y1="525.66" x2="514.51" y2="558"/>
  <line class="cls-3" x1="342.06" y1="282.24" x2="153.22" y2="314.59"/>
  <path class="cls-4" d="M420.14,961.14s24.43-23.28,52.45-24.9c28.02-1.62,53.17,18.95,53.17,18.95"/>
  <path class="cls-4" d="M174.22,961.14s24.43-23.28,52.45-24.9c28.02-1.62,53.17,18.95,53.17,18.95"/>
</svg>