<?xml version="1.0" encoding="UTF-8"?>
<svg id="Capa_2" data-name="Capa 2" xmlns="http://www.w3.org/2000/svg" viewBox="0 0 1387.02 1392.65">
  <defs>
    <style>
      .cls-1 {
        fill: #2c4f66;
      }

      .cls-1, .cls-2, .cls-3, .cls-4, .cls-5 {
        stroke: #000;
      }

      .cls-1, .cls-3, .cls-6 {
        stroke-miterlimit: 10;
        stroke-width: 1px;
      }

      .cls-2, .cls-7, .cls-8, .cls-9, .cls-4, .cls-10, .cls-11, .cls-12, .cls-5, .cls-13 {
        stroke-miterlimit: 10;
      }

      .cls-2, .cls-7, .cls-10, .cls-12, .cls-13 {
        fill: none;
      }

      .cls-7, .cls-8, .cls-9, .cls-10, .cls-11, .cls-6, .cls-13 {
        stroke: #fff;
      }

      .cls-8, .cls-9 {
        stroke-width: 3px;
      }

      .cls-9, .cls-14, .cls-3, .cls-5 {
        fill: #fff;
      }

      .cls-14 {
        font-family: ArialMT, Arial;
        font-size: 25.18px;
      }

      .cls-4 {
        fill: #9eb9c7;
      }

      .cls-10 {
        stroke-dasharray: 0 0 0 0 0 0 12.04 12.04;
      }

      .cls-15 {
        opacity: .33;
      }

      .cls-16 {
        letter-spacing: -.02em;
      }

      .cls-12 {
        stroke: #6a6a58;
      }

      .cls-17 {
        opacity: .42;
      }

      .cls-13 {
        stroke-dasharray: 0 0 0 0 0 0 11.89 11.89;
      }
    </style>
  </defs>
  <g id="Capa_1-2" data-name="Capa 1">
    <path class="cls-5" d="M385.57,237.28l31.88-54.06,39.4-2.45,31.62,42.12,.36,14.38c-13.5,3.21-29.99,6.05-48.89,7.04-20.63,1.08-38.7-.32-53.31-2.44-.36-1.53-.71-3.07-1.07-4.6h.01Z"/>
    <path class="cls-5" d="M417.45,183.23c-.26,.44,0,1,.5,1.07,2.67,.39,10.12,1.18,17.37-.88l8.17-2.32c.45-.13,.66-.64,.43-1.04l-11.39-20.41c-.27-.48-.96-.49-1.25,0l-13.83,23.6h0Z"/>
    <path class="cls-5" d="M385.57,237.28v82.85s44.78,8.66,66.1,4.33c21.32-4.33,37.16-17.06,37.16-17.06l-3.35-72.77s-24.55,8.43-51.72,8.43-48.19-5.79-48.19-5.79h0Z"/>
    <ellipse class="cls-4" cx="351.93" cy="238.64" rx="61.54" ry="39.19"/>
    <ellipse class="cls-1" cx="327.26" cy="232.78" rx="29.19" ry="18.59" transform="translate(-44.91 81.85) rotate(-13.35)"/>
    <ellipse class="cls-3" cx="253.01" cy="199.06" rx="29.19" ry="18.59" transform="translate(-39.12 63.8) rotate(-13.35)"/>
    <path class="cls-4" d="M345.62,327.38l-51.17-31.68c3.68-3.79,25.43-25.43,60.11-25.18,33.93,.24,55.11,21.26,58.92,25.18-15.58,10.56-31.16,21.12-46.73,31.68-1.61-.95-5.52-2.97-10.86-2.89-4.99,.07-8.64,1.94-10.25,2.89h-.02Z"/>
    <circle class="cls-4" cx="309.78" cy="277.83" r="7.21"/>
    <circle class="cls-4" cx="321.96" cy="272.95" r="7.21"/>
    <circle class="cls-4" cx="336.38" cy="270.62" r="7.21"/>
    <circle class="cls-4" cx="396.89" cy="277.83" r="7.21"/>
    <circle class="cls-4" cx="385.12" cy="272.95" r="7.21"/>
    <circle class="cls-4" cx="373.34" cy="270.51" r="7.21"/>
    <circle class="cls-4" cx="363.18" cy="268.08" r="7.21"/>
    <circle class="cls-4" cx="350.8" cy="268.08" r="7.21"/>
    <path class="cls-5" d="M242.87,251.63v28.53s-23.15-1.12-22.54-12.08c.61-10.96,22.54-16.45,22.54-16.45h0Z"/>
    <path class="cls-5" d="M316.61,166.5l-3.17,89.55s-29.73-12.79-62.62-6.7c-32.9,6.09-30.46,16.55-30.46,16.55l-.04-87.83s9.79-12.79,35.37-14.62c25.59-1.83,60.92,3.05,60.92,3.05Z"/>
    <path class="cls-5" d="M220.31,175.48c19.7-22.95,39.4-45.89,59.1-68.84,12.4,19.95,24.79,39.9,37.19,59.85,0,0-39.86-9.23-65.21-3.46-25.35,5.77-31.08,12.44-31.08,12.44h0Z"/>
    <polygon class="cls-5" points="262.85 125.94 290.38 124.29 279.42 106.64 262.85 125.94"/>
    <path class="cls-5" d="M294.45,351.54v64.58l109.66,2.44v-67.01s-12.15-14.01-50.14-14.01-59.51,14.01-59.51,14.01h-.01Z"/>
    <ellipse class="cls-5" cx="349.27" cy="415.51" rx="54.83" ry="17.67"/>
    <path class="cls-5" d="M293.63,453.28c-4.33,65.82-8.66,131.65-13,197.47,4.84-4.61,28.16-25.85,64.17-25.68,40.23,.2,64.84,26.96,68.67,31.27-3.12-66.62-6.25-133.25-9.37-199.87-9.15-5.25-27.15-13.96-51.45-15.37-28.09-1.63-49.41,7.37-59.02,12.17h0Z"/>
    <path class="cls-5" d="M287.14,753.01l-6.5-102.35c5.61-5.12,28.71-25.03,64.17-25.59,38.81-.61,63.94,22.41,68.86,27.11-1.56,33.61-3.13,67.22-4.69,100.83-8.57-5.42-30.71-17.83-61.53-17.67-30.1,.16-51.71,12.23-60.31,17.67h0Z"/>
    <path class="cls-5" d="M287.95,759.1v378.93c10.11-5.68,31.63-15.96,60.72-16.45,31.53-.53,54.84,10.75,65,16.45-1.56-128.34-3.13-256.68-4.69-385.02-8.57-5.42-30.71-17.83-61.53-17.67-30.1,.16-51.71,12.23-60.31,17.67,.27,2.03,.54,4.06,.81,6.09Z"/>
    <polygon class="cls-5" points="426.85 816.71 419.54 1203.22 553.56 1203.22 481.5 816.71 426.85 816.71"/>
    <polygon class="cls-5" points="426.85 713.61 419.54 1100.12 553.56 1100.12 481.5 713.61 426.85 713.61"/>
    <path class="cls-5" d="M481.5,711.58s-42.47-84.48-47.34-84.48-7.34,86.51-7.34,86.51l54.68-2.03Z"/>
    <polygon class="cls-5" points="550.93 1086.03 605.65 1081.06 544.42 1051.11 550.93 1086.03"/>
    <polygon class="cls-5" points="273.2 814.67 280.51 1201.18 146.48 1201.18 218.55 814.67 273.2 814.67"/>
    <polygon class="cls-5" points="273.2 711.57 280.51 1098.07 146.48 1098.07 218.55 711.57 273.2 711.57"/>
    <path class="cls-5" d="M218.55,709.54s42.47-84.48,47.34-84.48,7.34,86.51,7.34,86.51l-54.68-2.03h0Z"/>
    <polygon class="cls-5" points="149.11 1083.99 94.4 1079.02 155.62 1049.06 149.11 1083.99"/>
    <polygon class="cls-5" points="143.36 1203.22 118.59 1230.22 159.2 1216.72 143.36 1203.22"/>
    <polygon class="cls-5" points="553.04 1206 575.04 1235.31 535.95 1217.88 553.04 1206"/>
    <ellipse class="cls-5" cx="351.11" cy="1138.02" rx="62.55" ry="17.67"/>
    <ellipse class="cls-5" cx="486.55" cy="1201.02" rx="67.01" ry="24.47"/>
    <ellipse class="cls-5" cx="486.55" cy="1097.92" rx="67.01" ry="24.47"/>
    <ellipse class="cls-5" cx="213.5" cy="1198.98" rx="67.01" ry="24.47"/>
    <ellipse class="cls-5" cx="213.5" cy="1095.88" rx="67.01" ry="24.47"/>
    <path class="cls-4" d="M319.82,311.4c2.16-2.25,14.81-14.95,35.14-14.99,20.44-.04,33.19,12.76,35.34,14.99"/>
    <path class="cls-5" d="M433.77,159.61l30.26,51.88,.07,86.13s23.56,8.12,24.37,12.18,0-86.91,0-86.91c0,0-42.45-61.75-54.7-63.29h0Z"/>
    <path class="cls-11" d="M743.58,105.25V1231.38"/>
    <g class="cls-15">
      <g>
        <line class="cls-7" x1="279.42" y1="106.64" x2="285.42" y2="106.64"/>
        <line class="cls-10" x1="297.46" y1="106.64" x2="724.91" y2="106.64"/>
        <line class="cls-7" x1="730.93" y1="106.64" x2="736.93" y2="106.64"/>
      </g>
    </g>
    <g class="cls-15">
      <g>
        <line class="cls-7" x1="118.59" y1="1238.09" x2="124.59" y2="1238.09"/>
        <line class="cls-13" x1="136.48" y1="1238.09" x2="724.99" y2="1238.09"/>
        <line class="cls-7" x1="730.93" y1="1238.09" x2="736.93" y2="1238.09"/>
      </g>
    </g>
    <ellipse class="cls-6" cx="253" cy="204.06" rx="29.19" ry="18.59" transform="translate(-40.28 63.93) rotate(-13.35)"/>
    <g>
      <ellipse class="cls-11" cx="315.88" cy="1142.28" rx="18.79" ry="9.29"/>
      <ellipse class="cls-11" cx="348.2" cy="1156.01" rx="18.79" ry="9.29"/>
      <ellipse class="cls-11" cx="384.17" cy="1142.28" rx="18.79" ry="9.29"/>
      <ellipse class="cls-11" cx="348.2" cy="1130.96" rx="18.79" ry="9.29"/>
      <ellipse class="cls-11" cx="315.88" cy="1148.45" rx="18.79" ry="9.29"/>
      <ellipse class="cls-11" cx="348.2" cy="1162.19" rx="18.79" ry="9.29"/>
      <ellipse class="cls-11" cx="384.17" cy="1148.45" rx="18.79" ry="9.29"/>
      <ellipse class="cls-11" cx="348.2" cy="1137.13" rx="18.79" ry="9.29"/>
    </g>
    <g>
      <ellipse class="cls-11" cx="452.4" cy="1104.59" rx="18.79" ry="9.29"/>
      <ellipse class="cls-11" cx="484.73" cy="1118.33" rx="18.79" ry="9.29"/>
      <ellipse class="cls-11" cx="520.69" cy="1104.59" rx="18.79" ry="9.29"/>
      <ellipse class="cls-11" cx="484.73" cy="1093.28" rx="18.79" ry="9.29"/>
      <ellipse class="cls-11" cx="452.4" cy="1110.77" rx="18.79" ry="9.29"/>
      <ellipse class="cls-11" cx="484.73" cy="1124.51" rx="18.79" ry="9.29"/>
      <ellipse class="cls-11" cx="520.69" cy="1110.77" rx="18.79" ry="9.29"/>
      <ellipse class="cls-11" cx="484.73" cy="1099.45" rx="18.79" ry="9.29"/>
    </g>
    <g>
      <ellipse class="cls-11" cx="179.35" cy="1100.3" rx="18.79" ry="9.29"/>
      <ellipse class="cls-11" cx="211.68" cy="1114.03" rx="18.79" ry="9.29"/>
      <ellipse class="cls-11" cx="247.64" cy="1100.3" rx="18.79" ry="9.29"/>
      <ellipse class="cls-11" cx="211.68" cy="1088.98" rx="18.79" ry="9.29"/>
      <ellipse class="cls-11" cx="179.35" cy="1106.47" rx="18.79" ry="9.29"/>
      <ellipse class="cls-11" cx="211.68" cy="1120.21" rx="18.79" ry="9.29"/>
      <ellipse class="cls-11" cx="247.64" cy="1106.47" rx="18.79" ry="9.29"/>
      <ellipse class="cls-11" cx="211.68" cy="1095.15" rx="18.79" ry="9.29"/>
    </g>
    <g>
      <ellipse class="cls-11" cx="177.53" cy="1201.7" rx="18.79" ry="9.29"/>
      <ellipse class="cls-11" cx="209.86" cy="1215.44" rx="18.79" ry="9.29"/>
      <ellipse class="cls-11" cx="245.82" cy="1201.7" rx="18.79" ry="9.29"/>
      <ellipse class="cls-11" cx="209.86" cy="1190.39" rx="18.79" ry="9.29"/>
      <ellipse class="cls-11" cx="177.53" cy="1207.87" rx="18.79" ry="9.29"/>
      <ellipse class="cls-11" cx="209.86" cy="1221.61" rx="18.79" ry="9.29"/>
      <ellipse class="cls-11" cx="245.82" cy="1207.87" rx="18.79" ry="9.29"/>
      <ellipse class="cls-11" cx="209.86" cy="1196.56" rx="18.79" ry="9.29"/>
    </g>
    <g>
      <ellipse class="cls-11" cx="457.49" cy="1203.58" rx="18.79" ry="9.29"/>
      <ellipse class="cls-11" cx="489.82" cy="1217.31" rx="18.79" ry="9.29"/>
      <ellipse class="cls-11" cx="525.78" cy="1203.58" rx="18.79" ry="9.29"/>
      <ellipse class="cls-11" cx="489.82" cy="1192.26" rx="18.79" ry="9.29"/>
      <ellipse class="cls-11" cx="457.49" cy="1209.75" rx="18.79" ry="9.29"/>
      <ellipse class="cls-11" cx="489.82" cy="1223.49" rx="18.79" ry="9.29"/>
      <ellipse class="cls-11" cx="525.78" cy="1209.75" rx="18.79" ry="9.29"/>
      <ellipse class="cls-11" cx="489.82" cy="1198.44" rx="18.79" ry="9.29"/>
    </g>
    <g>
      <polygon class="cls-11" points="330.55 419.48 350.49 400.62 368.27 419.48 330.55 419.48"/>
      <ellipse class="cls-11" cx="349.41" cy="420.02" rx="20.2" ry="6.47"/>
      <ellipse class="cls-11" cx="349.41" cy="421.77" rx="20.2" ry="6.47"/>
      <ellipse class="cls-11" cx="304.69" cy="405.34" rx="7.54" ry="4.71"/>
      <ellipse class="cls-11" cx="393.59" cy="405.34" rx="7.54" ry="4.71"/>
      <ellipse class="cls-11" cx="393.59" cy="426.48" rx="7.54" ry="4.71"/>
      <ellipse class="cls-11" cx="304.69" cy="429.18" rx="7.54" ry="4.71"/>
      <ellipse class="cls-11" cx="304.96" cy="408.1" rx="7.54" ry="4.71"/>
      <ellipse class="cls-11" cx="393.86" cy="408.1" rx="7.54" ry="4.71"/>
      <ellipse class="cls-11" cx="393.86" cy="429.25" rx="7.54" ry="4.71"/>
      <ellipse class="cls-11" cx="304.96" cy="431.94" rx="7.54" ry="4.71"/>
    </g>
    <polyline class="cls-12" points="452.4 689.03 94.4 540.63 253 689.03"/>
    <polyline class="cls-12" points="294.45 191.51 389.68 36.34 433.77 214.47"/>
    <line class="cls-12" x1="349.41" y1="361.22" x2="160.56" y2="393.56"/>
    <line class="cls-12" x1="325.66" y1="526.19" x2="514.51" y2="558.53"/>
    <line class="cls-12" x1="342.06" y1="282.77" x2="153.22" y2="315.12"/>
    <path class="cls-2" d="M420.14,961.67s24.43-23.28,52.45-24.9c28.02-1.62,53.17,18.95,53.17,18.95"/>
    <path class="cls-2" d="M174.22,961.67s24.43-23.28,52.45-24.9,53.17,18.95,53.17,18.95"/>
    <text class="cls-14" transform="translate(32.54 315.12)"><tspan x="0" y="0">VOS</tspan><tspan class="cls-16" x="53.18" y="0">T</tspan><tspan x="68.1" y="0">OK</tspan></text>
    <g class="cls-17">
      <path class="cls-8" d="M838.49,118.82V1221.88h155.79v-144.52h235.92v144.53h155.31V118.82H838.49Z"/>
      <path class="cls-9" d="M838.49,118.82h547.03V1221.89h-155.31v-144.53h-235.92v144.52h-155.79V118.82Zm344.76,811.71v112.77h61.27v-112.77h-61.27Zm-101.91-293.2v112.61h61.51v-112.61h-61.51Zm163.48-292.86h-61.93v112.56h61.93v-112.56Zm101.92,405.98v-112.92h-61.65v112.92h61.65Zm-366.73,180.1v112.51h61.06v-112.51h-61.06Zm101.42-.24v113.02h61.34v-113.02h-61.34Zm203.37,112.87h61.62v-112.55h-61.62v112.55ZM979.62,457.15h61.31v-113h-61.31v113Zm304.98,.81c10.77,0,20.5,0,30.23,0q32.71,0,32.83-32.91c.07-26.74,.01-53.47,.01-80.58h-63.07v113.49Zm-101.72,292.17h61.56v-112.63h-61.56v112.63Zm-203.37-112.81v112.65h61.48v-112.65h-61.48Zm163.55-293.02h-61.52v112.69h61.52v-112.69Zm40.12-146.88v112.44h61.66v-112.44h-61.66Zm163.67,112.85v-112.66h-62.03v112.66h62.03Zm-265.25-112.81v112.59h61.45v-112.59h-61.45Zm-40.42,113.19v-113.05h-61.51v113.05h61.51Zm40.23,473.68v112.2h61.55v-112.2h-61.55Zm101.78-.08v112.32h61.56v-112.32h-61.56Zm101.95-.12v112.32h61.65v-112.32h-61.65Zm61.63-293.08h-61.68v112.47h61.68v-112.47Zm-265.33,.05v112.27h61.52v-112.27h-61.52Zm-101.77-.04v112.23h61.36v-112.23h-61.36Zm61.03,405.74v-112.59h-61.03v112.59h61.03Zm204.19-405.27h-61.56v111.72h61.56v-111.72Zm101.89,698.55v-112.46h-61.82v112.46h61.82Zm-468.63-552.81v112.92h60.76v-112.92h-60.76Zm-.44-180.25h61.18v-112.42h-61.18v112.42Zm61.46,586.41v-112.91h-60.79v112.91h60.79Zm-60.93-846.34v113.07h60.89v-113.07h-60.89Zm.11,587.04v112.03h60.6v-112.03h-60.6Zm61.24-292.99h-61.18v111.99h61.18v-111.99Zm-61.65,698.52h61.29v-112.37h-61.29v112.37Z"/>
      <path class="cls-8" d="M1183.24,930.53h61.27v112.77h-61.27v-112.77Z"/>
      <path class="cls-8" d="M1081.33,637.33h61.51v112.61h-61.51v-112.61Z"/>
      <path class="cls-8" d="M1244.81,344.47v112.56h-61.93v-112.56h61.93Z"/>
      <path class="cls-8" d="M1346.74,750.44h-61.65v-112.92h61.65v112.92Z"/>
      <path class="cls-8" d="M980.01,930.54h61.06v112.51h-61.06v-112.51Z"/>
      <path class="cls-8" d="M1081.43,930.31h61.34v113.02h-61.34v-113.02Z"/>
      <path class="cls-8" d="M1284.81,1043.18v-112.55h61.62v112.55h-61.62Z"/>
      <path class="cls-8" d="M979.62,457.15v-113h61.31v113h-61.31Z"/>
      <path class="cls-8" d="M1284.6,457.96v-113.49h63.07c0,27.11,.05,53.84-.01,80.58q-.08,32.91-32.83,32.91c-9.73,0-19.46,0-30.23,0Z"/>
      <path class="cls-8" d="M1182.88,750.13v-112.63h61.56v112.63h-61.56Z"/>
      <path class="cls-8" d="M979.51,637.32h61.48v112.65h-61.48v-112.65Z"/>
      <path class="cls-8" d="M1143.07,344.31v112.69h-61.52v-112.69h61.52Z"/>
      <path class="cls-8" d="M1183.19,197.43h61.66v112.44h-61.66v-112.44Z"/>
      <path class="cls-8" d="M1346.86,310.28h-62.03v-112.66h62.03v112.66Z"/>
      <path class="cls-8" d="M1081.61,197.47h61.45v112.59h-61.45v-112.59Z"/>
      <path class="cls-8" d="M1041.18,310.66h-61.51v-113.05h61.51v113.05Z"/>
      <path class="cls-8" d="M1081.41,784.34h61.55v112.2h-61.55v-112.2Z"/>
      <path class="cls-8" d="M1183.19,784.26h61.56v112.32h-61.56v-112.32Z"/>
      <path class="cls-8" d="M1285.14,784.14h61.65v112.32h-61.65v-112.32Z"/>
      <path class="cls-8" d="M1346.77,491.06v112.47h-61.68v-112.47h61.68Z"/>
      <path class="cls-8" d="M1081.44,491.11h61.52v112.27h-61.52v-112.27Z"/>
      <path class="cls-8" d="M979.67,491.07h61.36v112.23h-61.36v-112.23Z"/>
      <path class="cls-8" d="M1040.7,896.82h-61.03v-112.59h61.03v112.59Z"/>
      <path class="cls-8" d="M1244.89,491.55v111.72h-61.56v-111.72h61.56Z"/>
      <path class="cls-8" d="M1346.78,1190.1h-61.82v-112.46h61.82v112.46Z"/>
      <path class="cls-8" d="M878.15,637.29h60.76v112.92h-60.76v-112.92Z"/>
      <path class="cls-8" d="M877.71,457.04v-112.42h61.18v112.42h-61.18Z"/>
      <path class="cls-8" d="M939.17,1043.46h-60.79v-112.91h60.79v112.91Z"/>
      <path class="cls-8" d="M878.24,197.12h60.89v113.07h-60.89v-113.07Z"/>
      <path class="cls-8" d="M878.35,784.16h60.6v112.03h-60.6v-112.03Z"/>
      <path class="cls-8" d="M939.59,491.17v111.99h-61.18v-111.99h61.18Z"/>
      <path class="cls-8" d="M877.94,1189.69v-112.37h61.29v112.37h-61.29Z"/>
    </g>
    <text class="cls-14" transform="translate(833.73 1302.55)"><tspan x="0" y="0">Edificio de 7 pisos</tspan></text>
  </g>
</svg>